<svg xmlns="http://www.w3.org/2000/svg" xmlns:xlink="http://www.w3.org/1999/xlink" width="933.545" height="231.795" viewBox="0 0 933.545 231.795">
  <defs>
    <linearGradient id="linear-gradient" x1="-35.289" y1="61.22" x2="-35.289" y2="61.214" gradientUnits="objectBoundingBox">
      <stop offset="0" stop-color="#c7c9ca"/>
      <stop offset="0.285" stop-color="#e7e8e8"/>
      <stop offset="0.522" stop-color="#fff"/>
      <stop offset="0.989" stop-color="#c7c9ca"/>
    </linearGradient>
    <linearGradient id="linear-gradient-2" x1="-41.922" y1="61.189" x2="-41.922" y2="61.194" xlink:href="#linear-gradient"/>
    <linearGradient id="linear-gradient-3" x1="-6.403" y1="509.464" x2="-6.403" y2="509.054" xlink:href="#linear-gradient"/>
    <linearGradient id="linear-gradient-4" x1="-177.095" y1="8.409" x2="-176.982" y2="8.409" xlink:href="#linear-gradient"/>
    <linearGradient id="linear-gradient-5" x1="-4.648" y1="155.18" x2="-4.648" y2="155.067" xlink:href="#linear-gradient"/>
    <linearGradient id="linear-gradient-6" x1="-215.673" y1="8.409" x2="-215.559" y2="8.409" xlink:href="#linear-gradient"/>
  </defs>
  <g id="Grupo_4109" data-name="Grupo 4109" transform="translate(-1339.658 -234.332)">
    <g id="Grupo_9" data-name="Grupo 9">
      <rect id="Rectángulo_20" data-name="Rectángulo 20" width="289.1" height="1.548" transform="translate(1984.103 371.65)" fill="#eeefef"/>
      <rect id="Rectángulo_21" data-name="Rectángulo 21" width="289.1" height="1.548" transform="translate(1339.658 371.65)" fill="#eeefef"/>
    </g>
    <path id="Trazado_10" data-name="Trazado 10" d="M2196.266,448.69H1416.5l81.229-77.039h623.551l.276.284Zm-775.682-1.547h771.8L2120.411,373.2H1498.552Z" fill="#eeefef"/>
    <path id="Trazado_11" data-name="Trazado 11" d="M2028.62,391.477H1584.593l19.973-19.826h408.425Zm-440.059-1.548h436.631L2012.007,373.2h-406.59Z" fill="#eeefef"/>
    <path id="Trazado_12" data-name="Trazado 12" d="M1806.427,466.127c-47.581,0-84.852-8.11-84.852-18.462h1.836c0,8.168,33.358,16.915,83.015,16.915s83.017-8.746,83.017-16.915h1.838C1891.282,458.015,1854.01,466.127,1806.427,466.127Z" fill="#eeefef"/>
    <g id="Grupo_4069" data-name="Grupo 4069" transform="translate(30.132 12.932)">
      <path id="Trazado_12575" data-name="Trazado 12575" d="M1638.771,240.918l1.207.581h2.284l.095,1.143.685.33-.117-1.472h9.405l.61,8.225h-8.809l.043.574h8.809l.6,8.141h-8.81l.044.568h8.81l.6,8.058h-8.8l.044.563h8.8l.591,7.975h-8.791l.043.557h8.791l.586,7.893h-8.787l.041.553h8.783l.579,7.814h-8.776l.042.546h8.775l.574,7.736h-8.768l.04.54h8.767l.568,7.658h-8.76l.04.535h8.76l.563,7.582h-8.754l.039.53h8.753l.558,7.508h-8.747l.04.525h8.746l.553,7.433h-8.739l.038.52h8.74l.547,7.36h-8.733l.039.515h254.917l.038-.515h-8.746l.547-7.36h8.751l.04-.52h-8.752l.552-7.433h8.759l.039-.525H1898.4l.558-7.508h8.766l.04-.53h-8.767l.564-7.582h8.774l.04-.535H1899.6l.568-7.658h8.78l.041-.54h-8.781l.573-7.736h8.787l.042-.546h-8.788l.58-7.814h8.8l.042-.553h-8.8l.586-7.893h8.8l.042-.557h-8.8l.592-7.975h8.809l.042-.563h-8.81l.6-8.058h8.818l.044-.568h-8.819l.6-8.141h8.827l.043-.574h-8.826l.611-8.225h9.4l-.119,1.48.687-.33.095-1.149h2.3l1.207-.581Zm245.7.581h9.4l-.559,8.225h-9.359Zm8.81,8.8-.554,8.141h-9.31l.509-8.141Zm-80.67,58.6.161-7.658h9.074l-.2,7.658Zm9.017.535-.2,7.582h-8.984l.159-7.582Zm-8.844-8.734.162-7.736h9.118l-.206,7.736Zm9.5-16.1-.206,7.814h-9.122l.164-7.814Zm-9.153-.552.164-7.893h9.212l-.209,7.893Zm9.13,25.383h9.029l-.247,7.582h-8.985Zm.014-.535.206-7.658h9.073l-.248,7.658Zm.221-8.2.207-7.736h9.118l-.25,7.736Zm59.7-33.076-.494,7.976h-9.215l.45-7.976Zm-9.228-.563.455-8.058h9.307l-.5,8.058ZM1841.929,300.7l.3-7.736h9.12l-.343,7.736Zm9.052.541-.339,7.658h-9.031l.3-7.658Zm.637,0h9.074l-.384,7.658h-9.032Zm.024-.541.345-7.736h9.12l-.387,7.736Zm19.694-16.1-.439,7.814h-9.121l.395-7.814Zm-9.138-.553.4-7.893h9.212l-.443,7.893Zm-.645,0h-9.168l.354-7.893h9.211Zm-.027.553-.392,7.814h-9.122l.35-7.814Zm-.2,16.637h9.072l-.429,7.658h-9.03Zm.026-.541.392-7.736h9.118l-.433,7.736Zm9.684.541h9.074l-.473,7.658h-9.031Zm.031-.541.437-7.736h9.118l-.48,7.736Zm.468-8.282.441-7.814h9.165l-.484,7.814Zm.474-8.368.446-7.893h9.211l-.489,7.893Zm.308-16.989h-9.262l.407-8.058h9.307Zm-.032.563-.447,7.975h-9.215l.4-7.975Zm-9.881-.563h-9.262l.359-8.058h9.307Zm-.029.563-.4,7.975h-9.216l.356-7.975Zm-9.885-.563h-9.263l.313-8.058h9.307Zm-.025.563-.353,7.975H1842.9l.309-7.975Zm-.378,8.53-.349,7.894h-9.168l.305-7.894Zm-.374,8.45-.346,7.814h-9.122l.3-7.814Zm-9.465-9h-9.218l.262-7.975h9.259Zm-.021.557-.3,7.893h-9.168l.258-7.893Zm-.323,8.45-.3,7.814h-9.122l.257-7.814Zm-.32,8.359-.3,7.736h-9.076l.253-7.736Zm-9.2-17.364h-9.215l.215-7.975h9.259Zm-.018.557-.256,7.893h-9.168l.212-7.893Zm-.275,8.449-.252,7.814h-9.122l.211-7.814Zm-.17,24.831h9.028l-.29,7.582h-8.986Zm.017-.535.251-7.658h9.073l-.293,7.658Zm9.33,8.647h8.985l-.333,7.508h-8.942Zm.021-.53.293-7.582h9.029l-.336,7.582Zm9.594.53h8.982l-.379,7.508h-8.941Zm.023-.53.339-7.582h9.028l-.378,7.582Zm9.591.53h8.983l-.422,7.508h-8.941Zm.026-.53.379-7.582h9.028l-.425,7.582Zm9.587.53h8.982l-.465,7.508h-8.942Zm.03-.53.428-7.582h9.029l-.474,7.582Zm9.585.53h8.981l-.509,7.508h-8.943Zm.032-.53.474-7.582h9.028l-.514,7.582Zm.508-8.117.473-7.658h9.073l-.521,7.658Zm.512-8.2.482-7.736h9.119l-.525,7.736Zm.517-8.282.487-7.814h9.166l-.531,7.814Zm.523-8.368.493-7.893h9.211l-.537,7.893Zm.526-8.45.5-7.975h9.259l-.543,7.975Zm.533-8.537.5-8.058h9.307l-.547,8.058Zm-8.47-25.568h9.4l-.513,8.225h-9.358Zm8.858,8.8-.505,8.14h-9.31l.459-8.14Zm-18.922-8.8h9.4l-.466,8.225h-9.358Zm8.909,8.8-.457,8.14h-9.31l.412-8.14Zm-18.975-8.8h9.4l-.417,8.225h-9.36Zm8.964,8.8-.408,8.14h-9.311l.363-8.14Zm-19.035-8.8h9.4l-.36,8.227H1843.9Zm-.341,8.8h9.355l-.359,8.14h-9.311Zm-9.724-8.8h9.4l-.311,8.227h-9.358Zm-.284,8.8h9.355l-.312,8.14h-9.31Zm9.021,8.71-.308,8.058h-9.262l.264-8.058Zm-18.8-17.51h9.4l-.266,8.227h-9.357Zm-.236,8.8h9.354l-.263,8.14h-9.31Zm9.073,8.71-.261,8.058H1823.4l.217-8.058Zm-18.9-17.51h9.4l-.217,8.225h-9.358Zm-.184,8.8h9.354l-.215,8.14h-9.31Zm-.183,8.71h9.307l-.213,8.058h-9.262Zm9.079,8.621-.211,7.975h-9.214l.167-7.975Zm-18.781-26.13h9.4l-.165,8.227h-9.358Zm-.132,8.8h9.354l-.168,8.14h-9.31Zm-.131,8.71H1813l-.165,8.058h-9.257Zm-.129,8.621h9.259l-.164,7.975h-9.215Zm-.127,8.531h9.211l-.163,7.893h-9.168Zm9.038,8.449-.16,7.814H1803.2l.117-7.814Zm-9.407,16.1.117-7.736h9.118l-.158,7.736Zm9.066.54-.157,7.658h-9.032l.115-7.658ZM1793.888,241.5h9.4l-.117,8.226h-9.359Zm-.08,8.8h9.356l-.119,8.14h-9.311Zm-.078,8.71h9.306l-.116,8.058h-9.263Zm-.078,8.621h9.259l-.117,7.975h-9.215Zm-.079,8.531h9.212l-.115,7.893H1793.5Zm-.076,8.449h9.166l-.115,7.814h-9.122Zm-9.673-43.109h9.4l-.067,8.225H1783.8Zm-.029,8.8h9.356l-.071,8.14h-9.3Zm-.027,8.71h9.307l-.069,8.058h-9.263Zm-10.59,8.058h-9.262l-.07-8.058h9.307Zm-.026-8.628h-9.309l-.072-8.14h9.355ZM1773.1,241.5l.028,8.226h-9.358l-.072-8.226Zm-9.6,50.924h-9.122l-.113-7.814h9.163Zm-.076-8.368h-9.169l-.115-7.894h9.211Zm-.078-8.45h-9.214l-.117-7.975h9.26Zm-.077-8.537H1754l-.117-8.058h9.307Zm-9.4,34.179.115,7.659h-9.03l-.157-7.659Zm-9.084-.541-.159-7.736h9.119l.116,7.736Zm18.406-42.264h-9.309l-.12-8.14h9.354Zm-.154-16.941.075,8.226h-9.358l-.121-8.226Zm-9.3,50.924h-9.122l-.16-7.814h9.165Zm-79.65-24.8.5,7.975h-9.213l-.542-7.975Zm-9.3-.563-.547-8.058h9.307l.5,8.058Zm60.029,16.99-.255-7.894h9.212l.212,7.894Zm9.183.552.209,7.814h-9.122l-.253-7.814Zm-9.284,16.1h-9.076l-.3-7.736h9.121Zm-.175-25.1-.258-7.975h9.26l.214,7.975Zm-.094,16.818h-9.122l-.3-7.814h9.166Zm-39.494-7.814.441,7.814h-9.121l-.485-7.814Zm-9.2-.552-.49-7.893h9.211l.447,7.893Zm19.624,0-.395-7.893h9.211l.351,7.893Zm9.189.552.348,7.814h-9.12l-.393-7.814Zm-9.414,7.814h-9.122l-.438-7.814h9.165Zm-9.591-8.368-.443-7.893h9.211l.4,7.893Zm-.141,8.912.437,7.736h-9.076l-.479-7.736Zm.468,8.278.432,7.658h-9.03l-.474-7.658Zm.172-8.278h9.118l.392,7.736h-9.075Zm9.537,8.278.387,7.658h-9.016l-.429-7.658Zm.223-8.278h9.118l.346,7.736h-9.076Zm9.488,8.278.343,7.658h-9.021l-.385-7.658Zm.272-8.278h9.119l.3,7.736h-9.075Zm9.439,8.278.3,7.658h-9.024l-.338-7.658Zm-.021-17.19-.3-7.893h9.212l.258,7.893Zm-.323-8.45-.305-7.975h9.26l.262,7.975Zm-.3,9,.3,7.814h-9.122l-.346-7.814Zm-9.189-.552-.349-7.894h9.213l.3,7.894Zm-.374-8.45-.352-7.975h9.26l.308,7.975Zm-.378-8.537-.356-8.058h9.307l.313,8.058Zm-.271,8.537h-9.214l-.4-7.975h9.26Zm-9.642-8.537-.4-8.058h9.306l.36,8.058Zm-.219,8.537h-9.215l-.448-7.975h9.259Zm-9.694-8.537-.453-8.058h9.307l.407,8.058Zm-.169,8.537h-9.216l-.494-7.975h9.26Zm-9.744-8.537-.5-8.058h9.307l.455,8.058Zm-.084,9.1.493,7.893h-9.167l-.536-7.893Zm.528,8.449.487,7.814H1666.5l-.531-7.814Zm.521,8.36.484,7.736h-9.071l-.526-7.736Zm.517,8.277.474,7.658h-9.03l-.521-7.658Zm.511,8.194.474,7.582h-8.986l-.515-7.582Zm.507,8.112.468,7.508h-8.941l-.509-7.508Zm.127-8.112h9.028l.429,7.582h-8.985Zm9.488,8.112.424,7.508h-8.941l-.466-7.508Zm.175-8.112h9.029l.378,7.582h-8.985Zm9.438,8.112.379,7.508h-8.941l-.421-7.508Zm.224-8.112h9.028l.338,7.582h-8.984Zm9.39,8.112.335,7.508h-8.941l-.379-7.508Zm.272-8.112h9.029l.293,7.582h-8.987Zm9.342,8.112.29,7.508H1707l-.332-7.508Zm.006-16.306h9.074l.252,7.658h-9.032Zm9.342,8.194.249,7.582h-8.987l-.29-7.582Zm.1-16.47h9.118l.208,7.736h-9.076Zm9.523-8.912-.209-7.894h9.211l.166,7.894Zm9.18.552.164,7.814h-9.122l-.207-7.814Zm-9.363,16.637.206,7.658h-9.03l-.248-7.658Zm.22,8.195.2,7.582h-8.986l-.246-7.582Zm.2-16.471h9.119l.162,7.736h-9.075Zm9.293,8.277.16,7.658h-9.03l-.2-7.658Zm.17,8.194.159,7.582H1735.5l-.2-7.582Zm9.284-25.383h-9.168l-.164-7.894h9.212Zm-.127-8.45h-9.214l-.164-7.975h9.26Zm-.128-8.538h-9.262l-.165-8.057h9.306Zm-.129-8.627h-9.31l-.168-8.14h9.354Zm-.255-16.941.124,8.226h-9.358l-.169-8.226Zm-9.349,34.106H1734.4l-.211-7.975h9.258Zm-.18-8.538h-9.262l-.213-8.057h9.307Zm-.179-8.627h-9.31l-.215-8.14h9.354Zm-.354-16.941.173,8.226h-9.359l-.218-8.226Zm-9.378,25.568h-9.262l-.261-8.057h9.307Zm-.232-8.627h-9.31l-.263-8.14h9.354Zm-.455-16.941.221,8.226H1723.7l-.266-8.226Zm-9.226,25.568h-9.262l-.309-8.057h9.309Zm-.285-8.627h-9.311l-.312-8.14h9.355Zm-.555-16.941.269,8.226h-9.358l-.316-8.226Zm-9.41,16.941h-9.311l-.359-8.14h9.355Zm-.654-16.941.318,8.226h-9.359l-.364-8.226Zm-9.309,16.941h-9.311l-.408-8.14h9.355Zm-.758-16.941.366,8.226h-9.358l-.414-8.226Zm-9.209,16.941h-9.31l-.457-8.14h9.354Zm-.852-16.941.415,8.226h-9.358l-.46-8.226Zm-9.108,16.941h-9.31l-.506-8.14h9.355Zm-.957-16.941.469,8.214h-9.359l-.511-8.226Zm-9.008,16.941H1664.2l-.554-8.14H1673Zm-1.057-16.941.513,8.226h-9.358l-.56-8.226Zm-18.858,8.214-.607-8.226h9.4l.561,8.226Zm.644,8.715-.6-8.14h9.354l.557,8.14Zm.637,8.628-.595-8.058h9.306l.55,8.058Zm.631,8.537-.589-7.975h9.26l.545,7.975Zm.624,8.45-.583-7.893h9.211l.539,7.893Zm.618,8.368-.578-7.814h9.166l.534,7.814Zm.612,8.282-.568-7.736h9.118l.529,7.736Zm.606,8.2-.568-7.658h9.072l.524,7.658Zm.6,8.117-.559-7.582h9.027l.518,7.582Zm.594,8.038-.555-7.508h8.983l.512,7.508Zm.039.525h8.938l.508,7.433h-8.9Zm1.132,15.313-.544-7.36h8.9l.5,7.36Zm8.431-15.313h8.939l.464,7.433h-8.9ZM1669.8,340.9l-.5-7.36h8.894l.46,7.36Zm8.525-15.313h8.939l.42,7.433h-8.9Zm.948,15.313-.456-7.36h8.895l.414,7.36Zm8.62-15.313h8.94l.378,7.433h-8.9Zm.86,15.313-.412-7.36h8.894l.371,7.36Zm8.707-15.313h8.939l.332,7.433h-8.9Zm.768,15.313-.369-7.36h8.894l.328,7.36Zm8.8-15.313h8.94l.284,7.433h-8.9Zm.677,15.313-.326-7.36h8.9l.284,7.36Zm8.582-23.346h8.983l.247,7.508h-8.941Zm.307,8.032h8.939l.244,7.433h-8.9Zm.586,15.313-.284-7.36h8.9l.241,7.36Zm8.722-23.346h8.983l.2,7.508h-8.941Zm.261,8.032h8.938l.2,7.433h-8.9Zm.5,15.313-.239-7.36h8.894l.2,7.36Zm8.858-23.346h8.983l.156,7.508h-8.94Zm.212,8.032h8.938l.156,7.433h-8.9Zm.406,15.313-.2-7.36h8.9l.153,7.36Zm8.828-31.458h9.029l.114,7.582h-8.986Zm.167,8.112h8.983l.113,7.508h-8.941Zm.164,8.032h8.94l.111,7.433h-8.9Zm.316,15.313-.151-7.36h8.894l.111,7.36Zm8.775-47.928h9.118l.071,7.736H1754.5Zm.122,8.278h9.073l.07,7.658h-9.03Zm.12,8.194h9.029l.068,7.582h-8.986Zm.119,8.112h8.982l.068,7.508h-8.941Zm.118,8.032h8.938l.068,7.433h-8.9Zm.224,15.313-.108-7.36h8.895l.066,7.36Zm8.839-73.267h9.258l.026,7.975h-9.215Zm.074,8.53h9.211l.025,7.893h-9.168Zm.073,8.449h9.166l.024,7.814h-9.122Zm.073,8.36h9.12l.024,7.736h-9.076Zm.072,8.277h9.073l.025,7.658h-9.03Zm.072,8.194h9.027l.024,7.582h-8.982Zm.07,8.112h8.983l.023,7.508h-8.941Zm.07,8.032h8.938l.024,7.433h-8.9Zm.133,15.313-.064-7.36h8.895l.023,7.36Zm18.33,0h-8.854l-.021-7.36h8.895Zm.021-7.881h-8.894l-.02-7.433h8.938Zm.021-7.962h-8.941l-.021-7.507h8.984Zm.022-8.037h-8.986l-.021-7.582h9.028Zm.023-8.118h-9.032l-.021-7.658H1783Zm.022-8.2h-9.077l-.021-7.736h9.12Zm.024-8.282H1773.9l-.021-7.814h9.166Zm.023-8.367h-9.168l-.022-7.894h9.213Zm.024-8.45h-9.217l-.022-7.975h9.261Zm.022-8.538h-9.265l-.023-8.057h9.307Zm.025-8.627h-9.311l-.022-8.14h9.355Zm.024-8.715h-9.359l-.022-8.225h9.405Zm9.223,91.172h-8.854l.024-7.36h8.894Zm.068-7.881h-8.9l.025-7.433h8.938Zm.07-7.961h-8.942l.025-7.508h8.983Zm.069-8.038h-8.987l.025-7.582h9.029Zm.07-8.117h-9.031l.025-7.658h9.073Zm.072-8.2h-9.077l.024-7.736h9.121Zm.072-8.282h-9.122l.025-7.814h9.165Zm.073-8.368h-9.168l.025-7.893h9.212Zm-9.142-8.45.026-7.975H1793l-.07,7.975Zm18.125,65.292h-8.856l.068-7.36h8.9Zm.115-7.88h-8.9l.068-7.433h8.939Zm.117-7.962h-8.944l.07-7.508h8.982Zm.116-8.037H1793.2l.069-7.583h9.029Zm.12-8.118h-9.032l.069-7.658h9.074Zm-8.958-8.2.07-7.736h9.119l-.113,7.736Zm17.965,40.192h-8.854l.111-7.36h8.894Zm.162-7.881h-8.9l.111-7.433h8.938Zm.163-7.961H1802.7l.113-7.508h8.983Zm-8.821-8.038.114-7.582h9.028l-.155,7.582Zm17.971,23.875h-8.854l.155-7.359h8.894ZM1821,333h-8.9l.156-7.433h8.938Zm.21-7.962h-8.941l.158-7.508h8.982Zm9.057,15.838h-8.853l.2-7.36h8.9Zm.254-7.881h-8.9l.2-7.433h8.938Zm-8.682-7.962.2-7.508h8.983l-.244,7.508Zm17.9,15.838h-8.854l.242-7.36h8.894Zm.3-7.881h-8.9l.244-7.433h8.939Zm-8.636-7.962.247-7.507h8.982l-.284,7.507Zm17.809,15.838h-8.855l.285-7.36h8.9Zm-8.549-7.881.285-7.433h8.938l-.327,7.433Zm18.024,7.881h-8.854l.328-7.36h8.894Zm-8.5-7.881.332-7.433h8.938l-.372,7.433Zm17.978,7.881h-8.853l.372-7.36h8.894Zm-8.455-7.881.379-7.433h8.939l-.418,7.433Zm17.931,7.881h-8.854l.416-7.36h8.894Zm-8.408-7.881.42-7.433h8.938l-.461,7.433Zm17.884,7.881h-8.854l.459-7.36h8.9Zm-8.361-7.881.464-7.433h8.937l-.5,7.433Zm17.837,7.881h-8.853l.5-7.36h8.894Zm.582-7.881h-8.9l.508-7.433h8.938Zm.587-7.961h-8.937l.512-7.508h8.983Zm.594-8.038h-8.986l.518-7.582h9.028Zm.6-8.117h-9.03l.523-7.658h9.073Zm.606-8.2h-9.077l.529-7.736h9.118Zm.611-8.282h-9.122l.535-7.814h9.164Zm.619-8.368h-9.168l.539-7.893h9.211Zm.624-8.45h-9.214l.545-7.975h9.26Zm.631-8.537h-9.261l.551-8.058h9.306Zm.637-8.628h-9.31l.556-8.14h9.354Zm.643-8.715h-9.358l.563-8.226h9.4Z" fill="#fff"/>
      <path id="Trazado_12576" data-name="Trazado 12576" d="M1654.73,341.679,1647.8,238.756l-.377-.154.275,4.078-2.987-.7-2.456-.575-.049-.754-.287-4.3-.4-.162.284,4.3.054.826-5.748-1.346-.12-1.855-.281-4.3-.421-.167.281,4.294.128,1.928-6.083-1.425-.194-3.018-.269-4.17.833.22-3.485-1.425-4.27-1.14-.007-.1-.033-.517-.47-.192.044.688-6.844-1.827-.105-1.682-.5-.2.11,1.754-4.377-1.168-.974-.261-1.923-.512-.085-1.4-.127-2.074h-.519l.1,1.677.1,1.652-2.407-.642v.548l2.441.646.48,7.881-2.921-.685v.551l2.956.687.481,7.9-3.437-.692v.556l3.472.692.484,7.917-3.956-.665V250l3.989.664.485,7.938-4.474-.6v.563l4.507.6.486,7.96-4.993-.5v.567l5.027.5.488,7.98-5.515-.372v.571l5.548.363.488,8-6.038-.2v.575l6.073.19.489,8.025-6.564,0v.58l6.6-.02.492,8.044-7.088.251v.587l7.123-.265.492,8.064-7.615.532v.587l7.649-.552.494,8.085-7.69.806-.453-7.538v9.39l.43,7.17-.43.06v.6l.461-.066.5,8.4-.967.167v.6l1-.176.5,8.423-1.506.317v.6l1.542-.328.5,8.434v.013l-.307.076-1.739.43v.068l-.015.005.015.029v.5l.239-.059,1.843-.46.1,1.6.093,1.553h.565l-.1-1.713-.1-1.578,7.52-1.875.146-.036.08,1.3.52-.15-.078-1.279,7.186-1.793.064,1.018.489-.139-.061-1,6.752-1.683.047.754.46-.132-.047-.739,6.356-1.584.032.5.433-.123-.032-.492,5.988-1.494.018.274.408-.116-.017-.26,5.658-1.412v.054l.385-.11v-.039l1.087-.272,3.508-1.007,1.113-.317ZM1654,336.34l-.913.193-4.448.938-.461-7,4.308-.765,1.058-.188ZM1622.81,245.2l.472,7.448-6.827-1.148-.477-7.661Zm-6.867-1.9-.476-7.643,6.839,1.588.469,7.429Zm18.3,73.625.475,7.392-6.374.892-.482-7.6Zm-6.414.15-.482-7.581,6.389-.461.474,7.374Zm6.85-.2,6.017-.645.47,7.18-6.011.838Zm-.033-.517-.475-7.36,6.024-.434.469,7.162Zm-.508-7.875-.473-7.342,6.029-.225.468,7.146Zm-.507-7.857-.472-7.324,6.038-.016.461,7.126Zm-.505-7.837-.471-7.308,6.042.19.461,7.113Zm-.5-7.821-.47-7.289,6.05.4.461,7.1Zm-.5-7.8-.468-7.272,6.056.6.461,7.08Zm-.5-7.782-.467-7.253,6.062.8.46,7.064Zm-.5-7.763-.461-7.236,6.068,1.006.461,7.048Zm-.439-.059-6.423-.866-.474-7.452,6.432,1.068Zm.034.51.467,7.268-6.419-.651-.473-7.47Zm.5,7.779.471,7.286-6.415-.434-.474-7.488Zm.5,7.8.471,7.3-6.408-.215-.476-7.507Zm.5,7.816.471,7.321-6.4,0-.477-7.526Zm.5,7.835.474,7.337-6.4.225-.479-7.545Zm.507,7.854.475,7.355-6.388.446-.481-7.562Zm-5.861,15.963-6.779.71-.487-7.817,6.783-.489Zm.033.535.482,7.615-6.771.949-.488-7.839Zm.516,8.152.484,7.634-6.766,1.187-.489-7.856Zm.461-.066,6.374-.907.478,7.409-6.37,1.117Zm6.81-.968,6.011-.856.471,7.2-6.006,1.053Zm6.422-.914,5.679-.808.461,7-5.672,1Zm-.033-.5-.469-7.166,5.687-.609.461,6.98Zm-.5-7.669-.468-7.15,5.693-.41.46,6.964Zm-.5-7.653-.468-7.131,5.7-.213.46,6.948Zm-.5-7.629-.461-7.116,5.707-.017.46,6.933Zm-.5-7.616-.461-7.1,5.712.179.461,6.917Zm-.5-7.6-.461-7.084,5.718.374.461,6.9Zm-.5-7.58-.461-7.067,5.723.568L1644.3,278Zm-.495-7.563-.461-7.052,5.729.762.461,6.87Zm-.493-7.545-.461-7.034,5.737.952.455,6.856Zm-.494-7.526-.461-7.019,5.741,1.143.455,6.841Zm-.415-.07-6.069-1.021-.46-7.22,6.075,1.21Zm-6.508-1.1-6.43-1.082-.472-7.433,6.436,1.282Zm-6.862-.635.473,7.466-6.821-.922-.48-7.68Zm.507,7.991.473,7.484-6.815-.69-.479-7.7Zm.506,8.012.475,7.5-6.809-.46-.481-7.719Zm.509,8.031.476,7.521-6.8-.228-.481-7.739Zm.509,8.048.48,7.545h-6.795l-.484-7.758Zm.513,8.072.478,7.557-6.8.239-.484-7.777Zm.512,8.089.479,7.578-6.784.474-.486-7.8Zm-6.763,8.635.488,7.834-5.721.6-1.5.157-.493-8.069,1.985-.144Zm-5.233,9,5.758-.616.491,7.854-6.244.875-.963.134-.495-8.089Zm0,8.684,6.279-.892.49,7.873-6.769,1.187-.432.076-.5-8.11Zm0,8.743,6.8-1.21.491,7.895-7.195,1.519-.1-1.637-.4-6.5Zm7.293-1.3,6.766-1.2.484,7.653-6.758,1.425Zm7.226-1.284,6.368-1.133.479,7.427-6.363,1.341Zm6.8-1.21,6-1.067.472,7.21-6,1.266Zm6.414-1.14,5.673-1.006.461,7.013-5.666,1.2Zm11.394-2.51-1.067.187-4.3.755-.461-6.984,4.157-.591,1.215-.173Zm-.489-7.284-1.226.168-4.145.58-.461-6.967,4.008-.429,1.371-.148Zm-.489-7.269-1.381.145-4,.419-.46-6.951,3.855-.279,1.529-.11Zm-.487-7.252-1.541.108-3.846.268-.46-6.936,3.7-.138,1.687-.063Zm-.486-7.236-1.7.06-3.7.13-.46-6.921,3.552-.011,1.843,0Zm-.484-7.22h-5.4l-.461-6.905,3.4.106,2.007.063Zm-.486-7.2-2.016-.069-3.389-.114-.461-6.89,3.246.213,2.167.141Zm-.483-7.189-2.178-.147-3.234-.219-.461-6.874,3.091.306,2.327.231Zm-.482-7.172-2.338-.238-3.075-.314-.46-6.858,2.934.389,2.489.331Zm-.481-7.158-2.5-.336-2.925-.394-.454-6.842,2.778.462,2.649.44Zm-.48-7.14-2.661-.447-2.77-.467-.452-6.827,2.623.524,2.813.559Zm-3.9-14.459,2.976.689.447,6.645-2.825-.569-2.613-.526-.451-6.812Zm-2.852-.667.454,6.824-5.742-1.156-.461-7Zm-6.163-1.43.46,7.014-6.074-1.222-.461-7.2Zm-6.054,5.7-6.436-1.3-.471-7.416,6.442,1.5Zm-.962-14.923.265,4.108.2,3.095-6.443-1.509-.269-4.246-.2-3.151Zm-8.8-2.329,1.88.5.2,3.085.274,4.328-6.839-1.6-.346-5.551-.047-.754-.082-1.315Zm-12.256,4.489-.481-7.862,1.546.411,2.474.656,3.257.862.09,1.445.036.554.345,5.637-.562-.131Zm.515,8.434-.481-7.881,6.679,1.549.594.139.477,7.656-1.072-.216Zm.517,8.455-.482-7.9,6.16,1.227,1.106.221.477,7.674-1.583-.266Zm.52,8.478-.485-7.922,5.643.938,1.612.268.479,7.694-2.1-.283Zm.518,8.5-.485-7.942,5.124.68,2.131.283.48,7.713-2.609-.266Zm.521,8.523-.488-7.964,4.607.455,2.648.263.482,7.735-3.126-.211Zm.522,8.546-.488-7.984,4.085.266,3.158.207.483,7.755-3.641-.122Zm.524,8.567-.5-8,3.562.112,3.676.116.485,7.773h-7.223Zm.525,8.59-.492-8.025,3.038-.01,4.194-.011.485,7.8-4.678.167Zm.528,8.611-.492-8.048,2.512-.094,4.712-.176.486,7.814-5.2.363Zm-7.153,18.444-.5-8.359,7.692-.824.495,8.108Zm.539,8.971-.5-8.384,7.684-1.09.5,8.132Zm.035.587,7.68-1.364.5,8.151-7.674,1.62Zm8.6,15.559-7.556,1.866v-.033l-.508-8.39,7.674-1.638.387,6.35.091,1.494.02.33Zm.633-.156-.022-.35-.477-7.8,7.194-1.536.454,7.287.038.628Zm7.678-1.9-.041-.647-.451-7.252,6.759-1.443.428,6.766.058.907Zm7.212-1.781-.059-.923-.426-6.733,6.362-1.359.4,6.276.076,1.174Zm6.794-1.677-.076-1.189-.4-6.244,6-1.28.38,5.813.092,1.418Zm6.4-1.583-.093-1.434-.379-5.785,5.666-1.21.358,5.377.108,1.652Zm10.643-2.629-4.6,1.135-.115-1.668-.355-5.348,4.457-.952.9-.193.334,4.964.125,1.873Z" fill="#fff"/>
      <path id="Trazado_12577" data-name="Trazado 12577" d="M2012.993,356.141v-.068l-1.739-.43-.308-.076v-.013l.505-8.434,1.54.328v-.6l-1.506-.317.505-8.424,1,.177v-.6l-.966-.167.5-8.4.46.066v-.6l-.429-.06.429-7.17v-9.395l-.452,7.539-7.692-.806.495-8.086,7.649.553v-.587l-7.614-.532.493-8.065,7.121.266v-.587l-7.088-.251.492-8.045,6.6.02V292.8l-6.564,0,.49-8.024,6.071-.19v-.575l-6.037.2.488-8,5.549-.363v-.572l-5.515.373.487-7.98,5.028-.5V266.6l-4.994.5.486-7.96,4.506-.6v-.563l-4.474.6.486-7.938,3.99-.663v-.56l-3.955.665.484-7.917,3.471-.691v-.557l-3.438.692.482-7.9,2.956-.687v-.551l-2.922.685.48-7.88,2.441-.646v-.549l-2.407.642.1-1.652.1-1.677h-.519l-.126,2.074-.085,1.4-1.922.512-.975.261-4.376,1.168.109-1.754-.5.2-.1,1.683-6.844,1.827.044-.688-.471.192-.033.518-.006.1-4.271,1.14-3.484,1.424.833-.22-.268,4.17-.194,3.018-6.083,1.425.128-1.928.281-4.293-.421.167-.281,4.3-.121,1.854-5.748,1.347.054-.827.285-4.3-.4.162-.286,4.3-.05.755-2.455.575-2.986.7.273-4.078-.377.154-6.924,102.922-.012.151-.137,2.049-.012.151.461.132.651.162,3.521.878,1.086.272v.039l.386.11v-.053l5.659,1.412-.016.259.407.117.018-.274,5.988,1.494-.032.491.431.124.034-.5,6.356,1.584-.048.739.461.132.048-.755,6.752,1.684-.061,1,.488.139.064-1.018,7.187,1.792-.078,1.279.52.151.078-1.3.148.037,7.52,1.875-.095,1.578-.009.151-.093,1.562h.565l.085-1.4.008-.151.1-1.6,1.367.341.473.12.241.059v-.5l.016-.029Zm-2.064-9.73-7.673-1.621.5-8.151,7.68,1.364Zm-9.694-102.578-.478,7.661-6.827,1.148.472-7.448Zm-6.8.838.471-7.429,6.838-1.588-.476,7.643ZM1983,316.4l.473-7.374,6.389.461-.482,7.581Zm6.347,1.2-.482,7.6-6.374-.892.475-7.392Zm-5.84-9.091.474-7.355,6.394.239-.48,7.562Zm.507-7.873.473-7.337,6.4.019-.479,7.545Zm.507-7.852.471-7.32,6.406-.2-.477,7.525Zm.5-7.834.471-7.3,6.412-.42-.477,7.508Zm.5-7.816.47-7.286,6.419-.636-.475,7.488Zm.5-7.8.467-7.268,6.425-.852-.473,7.47Zm.5-7.778.46-7.251,6.431-1.068-.473,7.452Zm-.439.059-6.063.819.46-7.048,6.069-1.007Zm-.032.509-.468,7.254-6.055.614.461-7.064Zm-.5,7.765-.469,7.271-6.05.41.46-7.08Zm-.5,7.784-.47,7.288-6.045.2.461-7.1Zm-.5,7.8-.469,7.308-6.038,0,.46-7.114Zm-.5,7.821-.471,7.324-6.032-.212.461-7.126Zm-.5,7.839-.474,7.342-6.025-.42.468-7.146Zm-.507,7.858-.474,7.36-6.019-.631.469-7.163Zm-.508,7.881-.475,7.377-6.013-.838.47-7.18Zm-.509,7.9-.477,7.395-6.006-1.054.471-7.2Zm.437.061,6.373.907-.482,7.62-6.369-1.118Zm6.835.974,6.772.963-.49,7.856-6.764-1.186Zm.034-.537.481-7.616,6.777.726-.488,7.839Zm.516-8.15.482-7.6,6.783.49-.487,7.816Zm7.235,1.312,5.758.616,1.458.156-.495,8.089-.964-.134-6.244-.874Zm5.758.048-5.721-.6.49-7.833,5.231.377,1.986.144-.493,8.068Zm-5.691-9.017-6.784-.474.479-7.578,6.794.251Zm-6.268-8.584.478-7.558,6.794.019-.485,7.778Zm.511-8.089.479-7.545,6.8-.214-.483,7.758Zm.513-8.071.475-7.521,6.808-.446-.482,7.739Zm.51-8.048.474-7.5,6.815-.677-.481,7.719Zm.506-8.03.475-7.484,6.821-.905-.481,7.7Zm.508-8.01.474-7.465,6.827-1.135-.479,7.679Zm.041-7.911-6.431,1.082.461-7.234,6.436-1.282Zm-6.87,1.155-6.069,1.022.461-7.032,6.076-1.21Zm-6.483,1.09-5.737.965.454-6.841,5.741-1.143Zm-.032.494-.461,7.034-5.729.773.455-6.856Zm-.493,7.529-.461,7.052-5.724.579.46-6.869Zm-.493,7.545-.461,7.067-5.717.387.46-6.885Zm-.5,7.564-.461,7.084-5.712.192.461-6.9Zm-.5,7.583-.46,7.1h-5.7l.46-6.917Zm-.5,7.6-.461,7.116-5.7-.2.461-6.933Zm-.5,7.617-.467,7.132-5.693-.4.461-6.948Zm-.5,7.635-.466,7.15-5.686-.6.461-6.963Zm-.5,7.652-.469,7.167-5.679-.8.46-6.98Zm-.5,7.672-.471,7.182-5.672-.995.461-7Zm-.5,7.688-.472,7.2-5.666-1.2.46-7.013Zm.41.073,6,1.067-.477,7.413-6-1.265Zm6.439,1.145,6.369,1.133-.485,7.638-6.363-1.341Zm6.829,1.214,6.766,1.2-.492,7.88-6.758-1.425Zm7.255,1.288,6.8,1.21.4.071-.4,6.5-.1,1.637-7.194-1.519Zm6.8.634-6.768-1.187.49-7.874,6.278.893.928.133-.5,8.11Zm8.637,1.514-7.679-1.346.5-8.132,7.685,1.09Zm1.036-17.33-.5,8.36-7.686-1.076.495-8.107Zm-7.651-10.082-2.02-.141-5.2-.363.486-7.814,4.713.176,2.512.1Zm.526-8.611-2.546-.091-4.679-.167.486-7.8,4.193.011,3.038.01Zm.526-8.59h-7.231l.485-7.773,3.674-.116,3.562-.111Zm.525-8.567-3.6.122-3.64.122.481-7.755,3.16-.207,4.085-.266Zm.521-8.545-4.118.278-3.125.211.48-7.735,2.649-.263,4.606-.455Zm.522-8.523-4.64.469-2.609.266.479-7.713,2.129-.283,5.125-.68Zm.52-8.5-5.158.7-2.1.283.478-7.694,1.612-.268,5.643-.937Zm.518-8.477-5.676.954-1.584.266.477-7.674,1.1-.22,6.16-1.228Zm.518-8.456-6.195,1.248-1.072.215.477-7.656.595-.139,6.68-1.549Zm-6.406-12.369.035-.553.09-1.445,3.257-.862,2.476-.656,1.545-.41-.481,7.861-6.709,1.573-.562.131Zm-7.41,3.027.2-3.084,1.879-.5,4.965-1.315-.083,1.315-.047.754-.346,5.551-6.839,1.6Zm-6.984,2.851.265-4.108,6.449-1.707-.2,3.152-.269,4.245-6.442,1.509Zm-.23,3.6,6.443-1.5-.471,7.417-6.436,1.3Zm-6.521,1.509,6.082-1.412-.461,7.2-6.074,1.222Zm-6.163,1.43,5.748-1.334-.461,7-5.742,1.157Zm-5.835,1.354,2.976-.689,2.466-.573-.452,6.812-2.613.526-2.825.568Zm-.478,7.111,2.813-.56,2.622-.523-.452,6.827-2.77.467-2.661.447Zm-.479,7.126,2.649-.439,2.778-.462-.453,6.842-2.926.394-2.5.336Zm-.48,7.143,2.488-.33,2.936-.39-.461,6.858-3.079.312-2.338.239Zm-.482,7.158,2.328-.231,3.09-.305-.46,6.874-3.235.219-2.176.148Zm-.483,7.173,2.167-.141,3.245-.213-.461,6.89-3.389.113-2.016.069Zm-.483,7.19,2.007-.063,3.4-.106-.461,6.905h-5.4Zm-.484,7.205,1.843.005,3.551.011-.46,6.921-3.7-.131-1.7-.06Zm-.484,7.222,1.687.063,3.7.138-.461,6.936-3.845-.269-1.541-.107Zm-.488,7.237,1.531.11,3.855.279-.46,6.951-4-.42-1.382-.144Zm-.488,7.253,1.372.148,4.007.429-.46,6.967-4.146-.58-1.225-.167Zm-.488,7.27,1.215.173,4.158.592-.46,6.983-4.3-.754-1.069-.186Zm-.491,7.285,1.06.188,4.308.766-.461,7-4.448-.939-.912-.192Zm4.405,15.462-4.6-1.135-.756-.187.116-1.722.01-.151.334-4.964.9.193,4.456.952-.354,5.348-.011.151Zm6.046,1.494-5.672-1.393.1-1.5.009-.15.358-5.377,5.666,1.21-.379,5.785-.009.151Zm6.4,1.582-5.989-1.48.082-1.268.011-.15.38-5.813,6,1.279-.4,6.244-.009.151Zm6.794,1.677-6.356-1.57.067-1.019.01-.151.4-6.276,6.361,1.359-.426,6.733-.011.15Zm7.211,1.782-6.753-1.669.05-.754.009-.151.428-6.766,6.759,1.443-.451,7.252-.01.15Zm7.678,1.9-7.188-1.776.03-.477.009-.151.452-7.287,7.2,1.536-.477,7.8-.01.15Zm.633.156-.115-.027.011-.18.009-.151.091-1.494.387-6.349,7.674,1.638-.5,8.394v.034l-3.035-.75Z" transform="translate(-60.265)" fill="#fff"/>
      <path id="Trazado_12578" data-name="Trazado 12578" d="M1946.287,224.282l1.092-.51,4.606-2.152h.741v-.2H1604.217v.2h.729l4.614,2.158,1.2.557h.008l3.98,1.86h-10.528v.3h11.176l6.435,3.006,2.251,1.051h-10.169l.514.27h10.231l7.749,3.62h-10.887l-1.062-.458,3.639,1.907h0l4.727,2.045H1628l.413.217h.911l6.784,2.935h-2.095l.373.2h288.179l.373-.2h-2.107l6.783-2.935h.924l.414-.217h-.837l4.8-2.078h0l3.646-1.911-1.146.5h-10.889l7.751-3.62h10.243l.515-.27H1932.85l2.251-1.051,6.434-3.007h11.193v-.3h-10.542l4.1-1.917Zm-9.057-2.659-8.967,4.579h-12.2l8.236-4.579Zm-274.953,9.208h11.471l5.277,3.62h-10.888Zm5.087,3.62h-10.888l-6.473-3.62h11.466Zm7.185-3.62h11.465l4.658,3.62h-10.888Zm12.273,0h11.466l4.04,3.62H1691.44Zm12.273,0h11.467l3.422,3.62h-10.891Zm12.273,0h11.471l2.8,3.62h-10.89Zm12.272,0h11.472l2.184,3.62H1726.4Zm12.273,0h11.468l1.565,3.62h-10.889Zm12.273,0h11.466l.948,3.62h-10.888Zm-.113-.269-.443-1.051-1.266-3.007h12.157l.785,3.007.275,1.051Zm-1.263-1.051.454,1.051h-11.51l-.622-1.051-1.779-3.007h12.157Zm-12.5,0,.635,1.051h-11.511l-.8-1.051-2.294-3.007H1732.5Zm-12.5,0,.813,1.051h-11.51l-.982-1.051-2.809-3.007h12.159Zm-12.5,0,.994,1.051H1698.8l-1.16-1.051-3.322-3.007h12.158Zm-12.5,0,1.172,1.051h-11.51l-1.34-1.051L1681.3,226.5h12.156Zm-12.5,0,1.353,1.051h-11.509l-1.52-1.051-4.348-3.007h12.158Zm-12.5,0,1.531,1.051H1661.84l-1.7-1.051-4.861-3.007h12.157Zm-12.5,0,1.71,1.051h-11.51l-1.879-1.051-5.375-3.007h12.157Zm-12.5,0,1.891,1.051h-11.509l-2.062-1.051-5.89-3.007h12.157Zm2.373,1.32,6.514,3.62h-10.889l-7.091-3.62Zm1.737,7.112H1640.6l-6.922-3.251h10.852Zm-5.64-3.251h10.85l5.848,3.251h-10.334Zm11.612,0h10.853l5.294,3.251H1662.72Zm11.613,0h10.85l4.739,3.251h-10.332Zm11.613,0h10.85l4.183,3.251h-10.331Zm11.614,0h10.85l3.627,3.251H1695.89Zm11.613,0h10.851l3.072,3.251h-10.333Zm11.613,0h10.852l2.516,3.251h-10.331Zm11.614,0h10.851l1.964,3.251h-10.333Zm11.613,0h10.856l1.406,3.251h-10.332Zm11.613,0h10.851l.851,3.251h-10.332Zm11.614,0h10.852l.294,3.251h-10.332Zm10.961-8.188h12.157l-.24,3.007-.084,1.05h-11.51l-.083-1.05Zm12.267,8.188H1795.5l-.814,3.251h-10.332Zm11.613,0h10.852l-1.374,3.251H1795.41Zm25.557-3.861h11.467l-2.762,3.62h-10.888Zm-2.946,3.62h-10.888l1.566-3.62h11.467Zm15.218-3.62h11.467l-3.381,3.62h-10.889Zm12.273,0h11.466l-4,3.62h-10.89Zm12.272,0h11.467l-4.615,3.62H1854.6Zm12.273,0h11.468l-5.236,3.62h-10.891Zm12.273,0h11.467l-5.854,3.62h-10.889Zm12.273,0h11.465l-6.473,3.618h-10.888Zm.438-.27,1.71-1.05,4.9-3.007h12.157l-5.372,3-1.879,1.051Zm.89-1.05-1.7,1.05h-11.511l1.531-1.05,4.382-3.007h12.158Zm-12.5,0-1.52,1.05h-11.511l1.353-1.05,3.867-3.007h12.159Zm-12.5,0-1.341,1.05h-11.51l1.172-1.05,3.355-3.007h12.157Zm-12.5,0-1.16,1.05h-11.51l.992-1.05,2.84-3.007h12.157Zm-12.5,0-.981,1.05H1834.3l.813-1.05,2.327-3.007H1849.6Zm-12.5,0-.8,1.05h-11.51l.634-1.05,1.814-3.007h12.157Zm-12.5,0-.622,1.05h-11.511l.454-1.05,1.3-3.007h12.154Zm-12.5,0-.443,1.05h-11.51l.275-1.05.786-3.007h12.158Zm-.556,1.32-1.525,3.62h-10.889l.948-3.62Zm-.865,3.861h10.851l-1.925,3.251h-10.331Zm11.613,0h10.851l-2.48,3.251h-10.332Zm11.613,0h10.851l-3.035,3.251h-10.331Zm11.613,0h10.851l-3.59,3.251h-10.332Zm11.614,0h10.852l-4.147,3.251H1850.7Zm11.613,0H1876.8l-4.7,3.251h-10.327Zm11.614,0h10.852l-5.257,3.251H1872.82Zm11.615,0h10.85l-5.811,3.251h-10.333Zm11.612,0h10.851l-6.366,3.251h-10.332Zm11.613,0h10.85l-6.921,3.251h-10.331Zm-.3-.241h-10.888l6.514-3.62H1919.2Zm-3.892-3.89,1.891-1.05,5.408-3.007h12.157l-5.89,3.007-2.062,1.05Zm15.17-8.938L1915.2,226.2H1902.99l7.453-4.579Zm-13.843,0-7.4,4.579h-12.206l6.671-4.579Zm-13.843,0-6.621,4.579h-12.205l5.89-4.579Zm-13.844,0-5.839,4.579h-12.205l5.105-4.579Zm-13.843,0-5.057,4.579h-12.206l4.326-4.579Zm-13.844,0-4.276,4.579h-12.2l3.544-4.579Zm-13.843,0-3.492,4.579H1824.62l2.761-4.579Zm-13.844,0-2.71,4.579h-12.205l1.98-4.579Zm-13.843,0L1810.7,226.2h-12.213l1.2-4.579Zm-26.782,0h12.936l-1.147,4.579h-12.206Zm-.718,7.886.274-3.007h12.151l-.753,3.007-.264,1.051h-11.511Zm11.348,1.32-.907,3.62h-10.9l.33-3.62Zm-11.539-9.208-.366,4.579h-12.212l-.366-4.579Zm-12.677,12.828h-10.889l-.906-3.62h11.465Zm-.449-4.94.1,1.051H1760.4l-.264-1.051-.753-3.007h12.157Zm-.718-7.886.418,4.579h-12.206l-1.147-4.579Zm-13.843,0,1.2,4.579h-12.205l-1.929-4.579Zm-13.844,0,1.98,4.579h-12.206l-2.709-4.579Zm-13.843,0,2.761,4.579H1720.11l-3.493-4.579Zm-13.844,0,3.546,4.579h-12.206l-4.275-4.579Zm-13.843,0,4.326,4.579H1694l-5.056-4.579Zm-13.844,0,5.106,4.579h-12.224l-5.839-4.579Zm-13.843,0,5.891,4.579h-12.225l-6.621-4.579Zm-13.843,0,6.677,4.579h-12.206l-7.4-4.579Zm-13.844,0,7.454,4.579h-12.2l-8.185-4.579Zm-13.843,0,8.235,4.579h-12.2l-8.967-4.579Zm-26.784,0h12.938l9.018,4.579h-12.206Zm16.795,7.886-6.4-3.007h12.158l5.922,3.007,2.069,1.051h-11.51Zm2.812,1.32h11.447l7.131,3.62h-10.89Zm-3.392,3.861h10.851l6.959,3.251h-10.334Zm14.727,6.4-6.751-2.934h10.3l6.283,2.934Zm10.519,0-6.249-2.934h10.3l5.78,2.934Zm10.521,0-5.748-2.934h10.3l5.28,2.934Zm10.521,0-5.247-2.934h10.3l4.778,2.934Zm10.519,0-4.745-2.934h10.3l4.277,2.934Zm10.519,0-4.244-2.934h10.273l3.776,2.934Zm10.52,0-3.743-2.934h10.3l3.274,2.934Zm10.519,0-3.24-2.934h10.3l2.773,2.934Zm10.52,0-2.741-2.934h10.3l2.27,2.934Zm10.521,0-2.24-2.934h10.273l1.767,2.934Zm10.519,0-1.738-2.934h10.3l1.269,2.934Zm10.519,0-1.237-2.934h10.3l.768,2.934Zm10.521,0-.737-2.934h10.3l.267,2.934Zm20.348,0h-9.854l-.234-2.934h10.3Zm.251-3.152h-10.331l-.26-3.251h10.851Zm-10.61-3.492-.289-3.62h11.467l-.289,3.62Zm11.05,6.644.268-2.934h10.3l-.736,2.934Zm10.52,0,.768-2.934h10.3l-1.236,2.934Zm10.522,0,1.269-2.934h10.3l-1.738,2.934Zm10.519,0,1.767-2.934H1827.7l-2.24,2.934Zm10.519,0,2.272-2.934h10.3l-2.74,2.934Zm10.52,0,2.772-2.934h10.3l-3.24,2.934Zm10.519,0,3.275-2.934h10.3l-3.743,2.934Zm10.52,0,3.776-2.934h10.271l-4.244,2.934Zm10.52,0,4.276-2.934h10.3l-4.744,2.934Zm10.52,0,4.779-2.934h10.3l-5.247,2.934Zm10.519,0,5.281-2.934h10.3l-5.748,2.934Zm10.522,0,5.78-2.934h10.271l-6.249,2.934Zm20.347,0h-9.828l6.283-2.934h10.3Zm14.727-6.4-7.476,3.251h-10.36l6.959-3.251Zm-11.1-.241H1912.9l7.131-3.62H1931.5Zm10.52-4.94-2.237,1.051h-11.51l2.07-1.051,5.921-3.007h12.157Zm7.045-3.31h-12.234l9.018-4.579h12.936Z" transform="translate(0)" fill="#fff"/>
      <path id="Trazado_12579" data-name="Trazado 12579" d="M1608.505,372.247" transform="translate(0 -12.932)" fill="#fff"/>
      <path id="Trazado_12580" data-name="Trazado 12580" d="M1657.555,354.524l-2.677.838-1.113.348-3.508,1.1-1.085.34-.386.12-5.642,1.769-.408.127-5.978,1.873-.433.135-6.341,1.987-.46.144-6.738,2.109-.488.153-7.173,2.246-.52.164-.23.071-7.426,2.326-.556.175-1.142.357-.795-1.6-.24-.487-.014-.032.014-.006,1.739-.545.307-.091.555-.174,7.558-2.366.091-.029.52-.162,7.17-2.247.488-.152,6.735-2.109.46-.143,6.334-1.986.433-.136,5.977-1.872.407-.128,5.643-1.768.385-.121,4.544-1.423.794-.249.366-.114,1.774-.556Z" transform="translate(0 -12.932)" fill="url(#linear-gradient)"/>
      <path id="Trazado_12581" data-name="Trazado 12581" d="M2012.472,368.782l-.193.39-.856,1.734-.616-.193-.557-.175-47.468-14.868-.461-.144-3.2-1,1.049-2.124,2.3.721.365.114,5.34,1.673.384.12,5.643,1.769.407.127,5.978,1.872.433.136,6.334,1.985.46.144,6.735,2.109.488.153,7.17,2.246.521.163,4.622,1.447Z" transform="translate(-60.265 -12.932)" fill="url(#linear-gradient-2)"/>
      <rect id="Rectángulo_5571" data-name="Rectángulo 5571" width="244.645" height="2.137" transform="translate(1657.397 339.939)" fill="url(#linear-gradient-3)"/>
      <path id="Trazado_12582" data-name="Trazado 12582" d="M1657.127,344.059H1655.4a1.535,1.535,0,0,1-1.618-1.032c0-.022-.006-.042-.008-.064l-.006-.061-.031-.349-.078-.886-.049-.525-.035-.4-.444-4.937-.041-.473-.152-1.69-.046-.53-.407-4.522-.041-.474-.231-2.581-.047-.535-.324-3.623-.042-.471-.319-3.56-.048-.54-.236-2.636-.043-.473-.414-4.618-.049-.546-.14-1.562-.042-.472-.517-5.771-.049-.552-.036-.4-.041-.471-.6-6.718-.026-.294-.016-.177-.035-.38-.566-6.332-.043-.471-.1-1.159-.05-.563-.446-4.984-.042-.471-.231-2.59-.05-.568-.317-3.543-.043-.471-.368-4.114-.052-.574-.181-2.008-.041-.47-.512-5.732-.053-.58-.035-.379-.042-.47-.6-6.687-.041-.47-.026-.291-.052-.586-.521-5.805-.041-.469-.029-.314-.728-.293-.834-.336-.921-.369-.4-.161-1.573-.634-.64-.257-.437-.178-.391-.157L1636,238.13l-.42-.165-2.983-1.2-.486-.2-2.681-1.08-.444-.18-1.453-.587h0L1623.269,233h0l-.789-.318-.471-.19-5.81-2.345-.6-.243-.5-.2-.5-.2-.21-.083-6.3-2.544.494-.632.164-.211.048-.061.3-.38.221-.284,1.188-1.523.037-.048,1.367.552h.009l2.419.978.5.2,1.238.5.676.273,4.991,2.014.47.19,1.266.511,2.353.949.6.244.087.034,3.484,1.408,4.534,1.829.538.217.23.094.421.165,5.81,2.345.4.16.417.165.486.2,4.606,1.856.377.152,1.2.484.39.157.115.046.01.13.024.257.749,8.384.052.585.743,8.3.052.58.734,8.212.052.573.727,8.128.051.568.719,8.045.051.563.712,7.964.049.556.706,7.884.048.552.7,7.805.049.545.691,7.728.048.54.684,7.652.048.535.677,7.576.049.53.671,7.5.046.525.1,1.143c.064.645-.611,1.205-1.508,1.252C1657.212,344.058,1657.169,344.06,1657.127,344.059Z" fill="#fff"/>
      <path id="Trazado_12583" data-name="Trazado 12583" d="M2009.136,226.864l-7.513,3.03-.6.243-6.982,2.815h-.007l-4.276,1.725h0l-4.651,1.876-.485.2-6.178,2.493-.39.157-.438.177-.639.257-2.9,1.172-.835.337-.71.286-.59,6.588-.052.585-.743,8.3-.053.58-.736,8.212-.05.573-.729,8.127-.052.568-.721,8.044-.051.563-.714,7.964-.05.556-.708,7.883-.049.552-.7,7.8-.048.546-.691,7.727-.049.54-.691,7.651-.048.535-.678,7.574-.049.53-.672,7.5-.046.525-.105,1.164c-.061.677-.874,1.191-1.816,1.148l-1.586-.073c-.942-.043-1.656-.628-1.6-1.3h0l.084-.934.046-.525.674-7.5.047-.53.678-7.574.049-.535.691-7.651.047-.54.691-7.727.048-.546.7-7.8.051-.552.706-7.883.051-.556.712-7.964.051-.562.722-8.045.051-.568.729-8.127.051-.573.736-8.212.053-.58.744-8.3.053-.585.752-8.383.023-.257.011-.13.115-.046.39-.158,6.179-2.492.484-.2,7.278-2.936.538-.217,8.1-3.268.6-.244,9.082-3.663.677-.274,4.289-1.731h0l1.247-.5.033.043,1.71,2.191.215.274Z" transform="translate(-60.265)" fill="#fff"/>
      <g id="Grupo_4068" data-name="Grupo 4068" transform="translate(1604.216 221.417)">
        <path id="Trazado_12584" data-name="Trazado 12584" d="M1614.374,228.814v130.5h-10.158v-137.9l5.832,4.246,1.151.843Z" transform="translate(-1604.216 -221.417)" fill="url(#linear-gradient-4)"/>
        <path id="Trazado_12585" data-name="Trazado 12585" d="M1952.726,221.417l-8.66,8.089H1612.877l-2.7-2.523-.981-.922-4.975-4.644Z" transform="translate(-1604.216 -221.417)" fill="url(#linear-gradient-5)"/>
        <path id="Trazado_12586" data-name="Trazado 12586" d="M2012.991,221.417v137.9h-10.162v-130.5Z" transform="translate(-1664.481 -221.417)" fill="url(#linear-gradient-6)"/>
      </g>
    </g>
  </g>
</svg>
