<svg id="Grupo_4136" data-name="Grupo 4136" xmlns="http://www.w3.org/2000/svg" width="91.239" height="103.812" viewBox="0 0 91.239 103.812">
  <g id="Grupo_4125" data-name="Grupo 4125" transform="translate(24.558 57.066)">
    <path id="Trazado_13017" data-name="Trazado 13017" d="M407.355,320.288l-2.746,10.266-1.834,6.863-.645,2.408-1.186,4.443-.392,1.469-.541,2.029-3.094,11.559-.3,1.115-.062.238-1.039-.194-1.3-.241-1.4-.263-.169-.031.247-1.431,2.1-12.079.3-1.706.319-1.857.8-4.608.385-2.22.9-5.166,2.317-13.341Z" transform="translate(-389.983 -317.539)" fill="#e9b8a9"/>
    <path id="Trazado_13018" data-name="Trazado 13018" d="M402.775,357.495l-.645,2.408-1.186,4.443-.392,1.469-.541,2.029-3.454,12.912-3.907-.729,2.345-13.51.3-1.706.319-1.857.8-4.608.385-2.22Z" transform="translate(-389.983 -337.617)" fill="#fa5457"/>
    <g id="Grupo_4124" data-name="Grupo 4124" transform="translate(0.835 44.828)">
      <path id="Trazado_13019" data-name="Trazado 13019" d="M390.35,411h-1.52l.313,1.919h1.207Z" transform="translate(-388.83 -411)" fill="#2a3f93"/>
      <path id="Trazado_13020" data-name="Trazado 13020" d="M401.531,411H400v1.919h1.217Z" transform="translate(-394.642 -411)" fill="#2a3f93"/>
      <path id="Trazado_13021" data-name="Trazado 13021" d="M396.271,412h-1.566l.261,1.439h1.044Z" transform="translate(-391.887 -411.52)" fill="#2a3f93"/>
    </g>
    <path id="Trazado_13022" data-name="Trazado 13022" d="M395.544,406.019c0-1.268-1.893-3.548-4.227-3.548s-4.227,2.28-4.227,3.548,1.892,1.67,4.227,1.67S395.544,407.287,395.544,406.019Z" transform="translate(-387.09 -361.734)" fill="#3f4faa"/>
    <path id="Trazado_13023" data-name="Trazado 13023" d="M395.5,407.61a4.669,4.669,0,0,0-1.433-1.535,3.992,3.992,0,0,0-2.235-.728,4.2,4.2,0,0,0-2.817,1.195,4.442,4.442,0,0,0-.849,1.069,2.666,2.666,0,0,0-.288.74c.144.134.54.249.54.347v-.008a1.773,1.773,0,0,1,.254-.8,4.1,4.1,0,0,1,1.252-1.338,3.418,3.418,0,0,1,1.908-.626,3.624,3.624,0,0,1,2.422,1.038,3.891,3.891,0,0,1,.739.927,1.87,1.87,0,0,1,.246.7,1.56,1.56,0,0,0,.5-.429A3.009,3.009,0,0,0,395.5,407.61Z" transform="translate(-387.498 -363.231)" fill="#4b66d0"/>
    <path id="Trazado_13024" data-name="Trazado 13024" d="M405.342,362.311l-1.186,4.443-5.332-1.394.8-4.608Z" transform="translate(-393.196 -340.025)" fill="#f6d420"/>
    <path id="Trazado_13025" data-name="Trazado 13025" d="M403.1,375.236l-.541,2.029-5.016-1.328.3-1.706Z" transform="translate(-392.527 -347.039)" fill="#fff"/>
  </g>
  <g id="Grupo_4127" data-name="Grupo 4127" transform="translate(48.039 57.066)">
    <path id="Trazado_13026" data-name="Trazado 13026" d="M450.751,359.947l-.166.031-1.4.26-1.3.245-1.039.194-.063-.238-.3-1.111-3.093-11.563-.542-2.028-.392-1.469-1.186-4.443-.645-2.408-1.719-6.425-2.862-10.7,7.345-2.749,2.517,14.511.7,4,.385,2.22.8,4.608.319,1.857.3,1.706,2.1,12.079Z" transform="translate(-436.045 -317.539)" fill="#e9b8a9"/>
    <path id="Trazado_13027" data-name="Trazado 13027" d="M445.6,357.495l.645,2.408,1.187,4.443.391,1.469.542,2.028,3.453,12.912,3.907-.729-2.345-13.51-.3-1.706-.32-1.857-.8-4.608-.385-2.22Z" transform="translate(-441.016 -337.617)" fill="#fa5457"/>
    <g id="Grupo_4126" data-name="Grupo 4126" transform="translate(9.651 44.828)">
      <path id="Trazado_13028" data-name="Trazado 13028" d="M467,411h1.691l-.313,1.919H467Z" transform="translate(-461.803 -411)" fill="#2a3f93"/>
      <path id="Trazado_13029" data-name="Trazado 13029" d="M456.166,411h1.359v1.919h-1.046Z" transform="translate(-456.166 -411)" fill="#2a3f93"/>
      <path id="Trazado_13030" data-name="Trazado 13030" d="M461.388,412h1.565l-.261,1.439h-1.043Z" transform="translate(-458.883 -411.52)" fill="#2a3f93"/>
    </g>
    <path id="Trazado_13031" data-name="Trazado 13031" d="M454.643,406.019c0-1.268,1.892-3.548,4.226-3.548s4.227,2.28,4.227,3.548-1.893,1.67-4.227,1.67S454.643,407.287,454.643,406.019Z" transform="translate(-445.723 -361.734)" fill="#3f4faa"/>
    <path id="Trazado_13032" data-name="Trazado 13032" d="M455.327,407.61a4.672,4.672,0,0,1,1.433-1.535,3.992,3.992,0,0,1,2.235-.728,4.2,4.2,0,0,1,2.818,1.195,4.484,4.484,0,0,1,.85,1.069,2.438,2.438,0,0,1,.2.74.845.845,0,0,1-.625.347v-.008c.48-.2,0-.49-.17-.8a3.938,3.938,0,0,0-1.209-1.338,3.346,3.346,0,0,0-1.886-.626,3.594,3.594,0,0,0-2.41,1.038,3.839,3.839,0,0,0-.734.927,1.877,1.877,0,0,0-.243.7,1.556,1.556,0,0,1-.5-.429A2.978,2.978,0,0,1,455.327,407.61Z" transform="translate(-445.952 -363.231)" fill="#4b66d0"/>
    <path id="Trazado_13033" data-name="Trazado 13033" d="M446.942,362.311l1.187,4.443,5.331-1.394-.8-4.608Z" transform="translate(-441.715 -340.025)" fill="#f6d420"/>
    <path id="Trazado_13034" data-name="Trazado 13034" d="M450.232,375.236l.542,2.028,5.015-1.327-.3-1.706Z" transform="translate(-443.427 -347.039)" fill="#fff"/>
  </g>
  <path id="Trazado_13035" data-name="Trazado 13035" d="M405.482,317.539l7.345,2.749-2.746,10.266c-2.67.05-5.044.185-6.916.326Z" transform="translate(-370.897 -260.473)" fill="#cea28b"/>
  <path id="Trazado_13036" data-name="Trazado 13036" d="M445.907,332.051a67.037,67.037,0,0,0-7-1.058l-2.862-10.7,7.345-2.749Z" transform="translate(-388.006 -260.473)" fill="#cea28b"/>
  <path id="Trazado_13037" data-name="Trazado 13037" d="M446.069,250.226c1.656,0,6.489,5.918,9.731,7.287s11.559.254,11.559.254l-.158,4.755c-17.287,2.766-22.841-5.619-22.841-5.619S444.414,250.222,446.069,250.226Z" transform="translate(-392.333 -225.446)" fill="#37423a"/>
  <path id="Trazado_13038" data-name="Trazado 13038" d="M428.436,316.651s-6.7,2.395-9.192,2.251l-.16-.8-2.839-10.04c-.35-.013-.688-.016-1.008-.01l-3.642,10.094-.172.795c-2.492.1-9.158-2.392-9.158-2.392l1.861-10.7.5-2.887.783-4.492.673.172,18.808.041.676-.16,1.171,7.4.263,1.656Z" transform="translate(-370.428 -250.555)" fill="#212026"/>
  <path id="Trazado_13039" data-name="Trazado 13039" d="M446.685,316.709s-6.7,2.393-9.19,2.251l-.159-.8c1.5.157,8.534-1.489,8.657-2.141.143-.775-2.809-17.025-2.853-17.274l.674-.159Z" transform="translate(-388.677 -250.613)" fill="#333"/>
  <path id="Trazado_13040" data-name="Trazado 13040" d="M402.266,316.556s6.665,2.494,9.156,2.389l.171-.793c-1.5.134-8.511-1.617-8.624-2.272-.131-.777,3.065-16.982,3.112-17.229l-.672-.17Z" transform="translate(-370.429 -250.556)" fill="#333"/>
  <path id="Trazado_13041" data-name="Trazado 13041" d="M445.527,221.875l-2.973-.251s.235-11.127,2.133-12.9" transform="translate(-391.393 -203.848)" fill="#534741"/>
  <path id="Trazado_13042" data-name="Trazado 13042" d="M411.7,212.089s-5.334,2.153-1.434,12.177l2.967-.089S413.507,213.832,411.7,212.089Z" transform="translate(-373.851 -205.601)" fill="#7d4921"/>
  <path id="Trazado_13043" data-name="Trazado 13043" d="M446.724,233.7a2.088,2.088,0,1,0-2.109,1.964A2.038,2.038,0,0,0,446.724,233.7Z" transform="translate(-391.393 -215.801)" fill="#e4b69d"/>
  <path id="Trazado_13044" data-name="Trazado 13044" d="M412.822,233.7a2.088,2.088,0,1,0-2.108,1.964A2.037,2.037,0,0,0,412.822,233.7Z" transform="translate(-373.752 -215.801)" fill="#e4b69d"/>
  <path id="Trazado_13045" data-name="Trazado 13045" d="M429.559,307.586a45.815,45.815,0,0,1-22.374-4.615l.783-4.492.673.172,18.808.041.676-.16,1.171,7.4Z" transform="translate(-372.988 -250.555)" fill="#333" opacity="0.11"/>
  <path id="Trazado_13046" data-name="Trazado 13046" d="M428.969,275.147c-6.477,5.181-21.647,1.377-21.249-.652.34-1.735,1.9-25.052,1.822-25.62-.258-1.927,8.36-2.7,8.36-2.7a56.841,56.841,0,0,1,9.714,2.215C427.922,248.493,429.267,274.909,428.969,275.147Z" transform="translate(-373.263 -223.336)" fill="#37423a"/>
  <path id="Trazado_13047" data-name="Trazado 13047" d="M427.778,247.129h0a1.946,1.946,0,0,1-1.911-1.98l.118-6.746a1.947,1.947,0,0,1,1.98-1.912h0a1.946,1.946,0,0,1,1.912,1.98l-.119,6.747A1.946,1.946,0,0,1,427.778,247.129Z" transform="translate(-382.709 -218.299)" fill="#e4b69d"/>
  <path id="Trazado_13048" data-name="Trazado 13048" d="M429.408,217.129l0,.242a15.709,15.709,0,0,1-2.76,8.9,9.291,9.291,0,0,1-2.339,2.268,5.832,5.832,0,0,1-.631.377,6.4,6.4,0,0,1-5.775.17,7.219,7.219,0,0,1-.681-.364,8.829,8.829,0,0,1-2.409-2.2,15.147,15.147,0,0,1-2.814-8.708c-.011-.289-.014-.584-.011-.879.084-7.207,4.006-8.97,8.818-8.915S429.492,209.922,429.408,217.129Z" transform="translate(-375.485 -203.482)" fill="#efc7b0"/>
  <path id="Trazado_13049" data-name="Trazado 13049" d="M423.117,229.535c.013-.773-.289-1.4-.675-1.412s-.71.614-.724,1.387.288,1.4.674,1.411S423.1,230.307,423.117,229.535Z" transform="translate(-380.551 -213.945)" fill="#29291e"/>
  <path id="Trazado_13050" data-name="Trazado 13050" d="M437.762,229.793c.014-.772-.288-1.4-.674-1.411s-.71.614-.724,1.387.289,1.4.675,1.411S437.749,230.565,437.762,229.793Z" transform="translate(-388.171 -214.08)" fill="#29291e"/>
  <path id="Trazado_13051" data-name="Trazado 13051" d="M437,225.68l-1.946.293a.492.492,0,0,1-.559-.413h0a.493.493,0,0,1,.413-.56l1.945-.293a.492.492,0,0,1,.56.413h0A.493.493,0,0,1,437,225.68Z" transform="translate(-387.194 -212.164)" fill="#7d4921"/>
  <path id="Trazado_13052" data-name="Trazado 13052" d="M422.457,225.707l-1.919-.442a.491.491,0,0,1-.368-.589h0a.493.493,0,0,1,.59-.369l1.918.442a.493.493,0,0,1,.368.59h0A.491.491,0,0,1,422.457,225.707Z" transform="translate(-379.739 -211.952)" fill="#7d4921"/>
  <path id="Trazado_13053" data-name="Trazado 13053" d="M421.537,236.024c-.011.593-.788,1.059-1.737,1.043s-1.709-.511-1.7-1.1.789-1.059,1.738-1.042S421.547,235.431,421.537,236.024Z" transform="translate(-378.668 -217.482)" fill="#f5e0cd"/>
  <path id="Trazado_13054" data-name="Trazado 13054" d="M438.458,236.024c-.01.593-.788,1.059-1.737,1.043s-1.71-.51-1.7-1.1.789-1.059,1.738-1.042S438.468,235.431,438.458,236.024Z" transform="translate(-387.473 -217.482)" fill="#f5e0cd"/>
  <path id="Trazado_13055" data-name="Trazado 13055" d="M441.445,263.977a2.416,2.416,0,0,0-2.269-2.448,2.236,2.236,0,0,0-2.458,2.1,2.416,2.416,0,0,0,2.269,2.449A2.235,2.235,0,0,0,441.445,263.977Z" transform="translate(-388.355 -231.324)" fill="#fff"/>
  <path id="Trazado_13056" data-name="Trazado 13056" d="M402,206.043s1.607,5.976,12.8,2.026c0,0,8.969-1.935,8.969,6.892,0,2.426,6.184-10.793-2.542-15.02,0,0-8.371-4.942-15.976,3.889C405.252,203.831,404.765,205.084,402,206.043Z" transform="translate(-370.291 -198.563)" fill="#7d4921"/>
  <g id="Grupo_4128" data-name="Grupo 4128" transform="translate(43.915 16.814)">
    <path id="Trazado_13057" data-name="Trazado 13057" d="M428.171,233.618s-.078.3-.173.756a7.691,7.691,0,0,0-.214,1.641,1.928,1.928,0,0,0,.159.812,1.057,1.057,0,0,0,.486.5,1.807,1.807,0,0,0,.512.171c.133.02.212.036.212.036s-.076.014-.215.029a1.562,1.562,0,0,1-.582-.057,1.154,1.154,0,0,1-.675-.535,1.936,1.936,0,0,1-.235-.948,4.524,4.524,0,0,1,.367-1.7A4.725,4.725,0,0,1,428.171,233.618Z" transform="translate(-427.447 -233.618)" fill="#af8a7f"/>
  </g>
  <g id="Grupo_4129" data-name="Grupo 4129" transform="translate(42.556 22.061)">
    <path id="Trazado_13058" data-name="Trazado 13058" d="M424.613,246.007a2.351,2.351,0,0,1,.621-.679,3.136,3.136,0,0,1,.373-.256,3.292,3.292,0,0,1,.455-.223,3.1,3.1,0,0,1,.517-.171,5.228,5.228,0,0,1,.553-.1c.188-.015.376-.014.561-.02s.365.036.539.055.335.077.489.116a3.6,3.6,0,0,1,.42.154,3.122,3.122,0,0,1,.587.309c.135.086.208.14.208.14s-.094-.005-.251-.023-.373-.06-.635-.078c-.13-.01-.268-.032-.415-.043s-.3-.01-.458-.027c-.158,0-.32.011-.484,0-.164.012-.329.019-.494.037a4.667,4.667,0,0,0-.489.07c-.16.033-.32.057-.47.1a6.928,6.928,0,0,0-.825.267A7.282,7.282,0,0,0,424.613,246.007Z" transform="translate(-424.613 -244.557)" fill="#af8a7f"/>
  </g>
  <path id="Trazado_13059" data-name="Trazado 13059" d="M391.306,249.522c-1.655,0-6.489,5.918-9.731,7.288-2.606,1.1-8.486.6-10.7.356.094,1.494.19,3.13.282,4.794,16.506,2.294,21.854-5.76,21.854-5.76S392.962,249.518,391.306,249.522Z" transform="translate(-354.096 -225.08)" fill="#37423a"/>
  <g id="Grupo_4132" data-name="Grupo 4132" transform="translate(72.323 25.615)">
    <path id="Trazado_13060" data-name="Trazado 13060" d="M500.679,260.979c.024.068.051.136.078.2a5.115,5.115,0,0,0,1.694,2.169,7.625,7.625,0,0,0,7.742.533c3.127-1.642,1.852-6.015,1.852-6.015s1.653-1.444-.166-3.7c-.492-.61-1.633-.544-2.877-.2a16.2,16.2,0,0,0-2.524.959c.758-1.3,1.356-2.676-.1-2.944-1.226-.228-3.626,1.548-4.983,3.936-.1.173-.188.349-.275.525-.069.144-.137.291-.193.438A5.629,5.629,0,0,0,500.679,260.979Z" transform="translate(-493.817 -251.967)" fill="#01b4bc"/>
    <path id="Trazado_13061" data-name="Trazado 13061" d="M487.208,267.514a6.453,6.453,0,0,0,.7,1.441c.194.275.845.367,1.718.352a33.036,33.036,0,0,0,4.651-.562c.366-.065.714-.132,1.037-.2,1.09-.206,1.852-.378,1.852-.378l-.613-1.672-1.663-4.545-.4.044c-.094.011-.2.025-.324.04s-.238.027-.373.044c-.557.069-1.275.159-2.036.274a21.186,21.186,0,0,0-4.311.948,1.361,1.361,0,0,0-.273.146C486.366,264.03,486.663,266.007,487.208,267.514Z" transform="translate(-486.675 -257.164)" fill="#01b4bc"/>
    <g id="Grupo_4131" data-name="Grupo 4131" transform="translate(10.13 2.965)">
      <g id="Grupo_4130" data-name="Grupo 4130">
        <path id="Trazado_13062" data-name="Trazado 13062" d="M510.324,258.148c-.2.48-.427.936-.666,1.388l.029-.152a6.932,6.932,0,0,1,.222,1.61c0,.136,0,.271-.006.407s-.007.272-.024.408a6.989,6.989,0,0,1-.14.811c-.027.134-.079.265-.119.4a3.093,3.093,0,0,1-.152.387,2.238,2.238,0,0,1-.187.371l-.22.353-.271.316a1.905,1.905,0,0,1-.305.278,1.511,1.511,0,0,1-.333.234c-.118.067-.239.127-.357.186l.269-.292a2.055,2.055,0,0,0,.243-.3,2.838,2.838,0,0,0,.215-.312l.184-.327.15-.343a3.377,3.377,0,0,0,.125-.351,2.515,2.515,0,0,0,.1-.357c.026-.122.06-.241.084-.364a7.16,7.16,0,0,0,.108-.744c.021-.124.023-.251.034-.377s.014-.253.016-.38a12.272,12.272,0,0,0-.038-1.526l-.01-.1.039-.048C509.637,258.914,509.962,258.52,510.324,258.148Z" transform="translate(-507.794 -258.148)" fill="#1f88a3"/>
      </g>
    </g>
    <path id="Trazado_13063" data-name="Trazado 13063" d="M487.787,264.212a6.452,6.452,0,0,0,.7,1.441c.194.275.845.367,1.718.352a33.037,33.037,0,0,0,4.651-.562c.366-.065.714-.132,1.036-.2a7.625,7.625,0,0,0,7.741.533c3.127-1.642,1.852-6.015,1.852-6.015s1.653-1.444-.166-3.7c-.492-.61-1.633-.544-2.876-.2.326,3.242.319,7.976-2.395,8.56a2.9,2.9,0,0,1-2.917-1.228,12.783,12.783,0,0,1-2.065-4.5c-.089-.313-.164-.607-.229-.879-.1.173-.188.349-.275.525.062.13.121.26.179.394.578,1.349.811,3-.622,4.137C493.068,263.7,491.133,264.257,487.787,264.212Z" transform="translate(-487.254 -253.862)" fill="#01a6bc"/>
    <path id="Trazado_13064" data-name="Trazado 13064" d="M488.269,263.741a9.38,9.38,0,0,0,2.182,6,33.035,33.035,0,0,0,4.651-.562,8.055,8.055,0,0,1-2.522-6.388A21.184,21.184,0,0,0,488.269,263.741Z" transform="translate(-487.504 -257.6)" fill="#1f88a3"/>
  </g>
  <g id="Grupo_4135" data-name="Grupo 4135" transform="translate(0 25.614)">
    <path id="Trazado_13065" data-name="Trazado 13065" d="M347.942,260.979c-.025.067-.052.136-.079.2a5.118,5.118,0,0,1-1.693,2.169,7.625,7.625,0,0,1-7.741.533c-3.127-1.642-1.851-6.015-1.851-6.015s-1.654-1.444.165-3.7c.492-.61,1.633-.545,2.876-.2a16.239,16.239,0,0,1,2.524.959c-.758-1.3-1.356-2.676.1-2.944,1.226-.228,3.626,1.548,4.982,3.937.1.173.189.349.275.525.069.144.137.291.193.438A5.626,5.626,0,0,1,347.942,260.979Z" transform="translate(-335.889 -251.966)" fill="#01b4bc"/>
    <path id="Trazado_13066" data-name="Trazado 13066" d="M363.415,267.513a6.475,6.475,0,0,1-.7,1.442c-.194.274-.845.367-1.718.352a33.036,33.036,0,0,1-4.651-.562c-.366-.065-.715-.132-1.037-.2-1.09-.206-1.852-.378-1.852-.378l.613-1.672,1.663-4.545.4.045c.095.01.2.025.325.04s.237.027.372.044c.558.069,1.276.159,2.036.274a21.173,21.173,0,0,1,4.311.948,1.354,1.354,0,0,1,.273.146C364.257,264.03,363.96,266.007,363.415,267.513Z" transform="translate(-345.033 -257.164)" fill="#01b4bc"/>
    <g id="Grupo_4134" data-name="Grupo 4134" transform="translate(6.255 2.965)">
      <g id="Grupo_4133" data-name="Grupo 4133">
        <path id="Trazado_13067" data-name="Trazado 13067" d="M348.93,258.148c.362.372.687.766,1.006,1.166l.039.048-.01.1a12.26,12.26,0,0,0-.038,1.526c0,.127,0,.254.016.38s.013.253.034.377a7.158,7.158,0,0,0,.108.744c.024.123.058.242.084.364a2.472,2.472,0,0,0,.1.358,3.4,3.4,0,0,0,.125.351l.15.343.184.327a2.863,2.863,0,0,0,.215.312,2.08,2.08,0,0,0,.243.3l.27.292c-.117-.059-.239-.118-.357-.186a1.519,1.519,0,0,1-.333-.234,1.907,1.907,0,0,1-.305-.277l-.271-.316-.22-.352a2.263,2.263,0,0,1-.187-.371,2.946,2.946,0,0,1-.151-.387c-.041-.131-.092-.262-.119-.4a6.968,6.968,0,0,1-.139-.811c-.018-.136-.017-.272-.025-.408s-.008-.272-.006-.408a6.957,6.957,0,0,1,.221-1.61l.029.152C349.358,259.084,349.126,258.628,348.93,258.148Z" transform="translate(-348.93 -258.148)" fill="#1f88a3"/>
      </g>
    </g>
    <path id="Trazado_13068" data-name="Trazado 13068" d="M354.271,264.211a6.477,6.477,0,0,1-.7,1.442c-.194.274-.845.367-1.718.352a33.03,33.03,0,0,1-4.651-.562c-.366-.065-.715-.132-1.036-.2a7.625,7.625,0,0,1-7.741.533c-3.127-1.642-1.851-6.015-1.851-6.015s-1.654-1.444.165-3.7c.492-.61,1.633-.545,2.876-.2-.326,3.242-.32,7.976,2.4,8.56a2.9,2.9,0,0,0,2.916-1.228A12.785,12.785,0,0,0,347,258.7c.09-.313.164-.607.229-.879.1.173.189.349.275.525-.062.13-.121.26-.179.394-.579,1.349-.811,3,.622,4.138C348.99,263.7,350.925,264.257,354.271,264.211Z" transform="translate(-335.889 -253.862)" fill="#01a6bc"/>
    <path id="Trazado_13069" data-name="Trazado 13069" d="M366.318,263.741a9.377,9.377,0,0,1-2.182,6,33.034,33.034,0,0,1-4.651-.562,8.058,8.058,0,0,0,2.522-6.388A21.172,21.172,0,0,1,366.318,263.741Z" transform="translate(-348.167 -257.6)" fill="#1f88a3"/>
  </g>
</svg>
