<svg xmlns="http://www.w3.org/2000/svg" width="20.779" height="20.779" viewBox="0 0 20.779 20.779">
  <g id="Grupo_4082" data-name="Grupo 4082" transform="translate(0 0)">
    <g id="Grupo_4077" data-name="Grupo 4077">
      <path id="Trazado_12591" data-name="Trazado 12591" d="M949.611,431.092V430.5h5.343v.594h-5.343Z" transform="translate(-941.893 -430.498)" fill="#007025" fill-rule="evenodd"/>
      <path id="Trazado_12592" data-name="Trazado 12592" d="M947.323,431.854v-.594H949.1v.594Z" transform="translate(-941.386 -430.667)" fill="#007025" fill-rule="evenodd"/>
      <path id="Trazado_12593" data-name="Trazado 12593" d="M956.477,431.261h1.781v.594h-1.781v-.594Z" transform="translate(-943.415 -430.667)" fill="#007025" fill-rule="evenodd"/>
      <path id="Trazado_12594" data-name="Trazado 12594" d="M945.8,432.617v-.594h1.187v.594H945.8Z" transform="translate(-941.047 -430.836)" fill="#007025" fill-rule="evenodd"/>
      <path id="Trazado_12595" data-name="Trazado 12595" d="M958.765,432.024h1.187v.594h-1.187v-.594Z" transform="translate(-943.922 -430.836)" fill="#007025" fill-rule="evenodd"/>
      <path id="Trazado_12596" data-name="Trazado 12596" d="M945.034,433.38v-.594h.594v.594Z" transform="translate(-940.878 -431.005)" fill="#007025" fill-rule="evenodd"/>
      <path id="Trazado_12597" data-name="Trazado 12597" d="M960.291,432.786h.594v.594h-.594v-.594Z" transform="translate(-944.261 -431.005)" fill="#007025" fill-rule="evenodd"/>
      <path id="Trazado_12598" data-name="Trazado 12598" d="M944.271,434.143v-.594h.594v.594Z" transform="translate(-940.709 -431.174)" fill="#007025" fill-rule="evenodd"/>
      <path id="Trazado_12599" data-name="Trazado 12599" d="M961.053,433.549h.594v.594h-.594v-.594Z" transform="translate(-944.43 -431.174)" fill="#007025" fill-rule="evenodd"/>
      <path id="Trazado_12600" data-name="Trazado 12600" d="M943.508,434.906v-.594h.594v.594Z" transform="translate(-940.54 -431.344)" fill="#007025" fill-rule="evenodd"/>
      <path id="Trazado_12601" data-name="Trazado 12601" d="M961.816,434.312h.594v.594h-.594v-.594Z" transform="translate(-944.599 -431.344)" fill="#007025" fill-rule="evenodd"/>
      <path id="Trazado_12602" data-name="Trazado 12602" d="M942.746,435.669v-.594h.594v.594Z" transform="translate(-940.371 -431.513)" fill="#007025" fill-rule="evenodd"/>
      <path id="Trazado_12603" data-name="Trazado 12603" d="M962.579,435.075h.594v.594h-.594v-.594Z" transform="translate(-944.768 -431.513)" fill="#007025" fill-rule="evenodd"/>
      <path id="Trazado_12604" data-name="Trazado 12604" d="M941.983,436.431v-.594h.594v.594Z" transform="translate(-940.202 -431.682)" fill="#007025" fill-rule="evenodd"/>
      <path id="Trazado_12605" data-name="Trazado 12605" d="M963.342,435.838h.594v.594h-.594v-.594Z" transform="translate(-944.937 -431.682)" fill="#007025" fill-rule="evenodd"/>
      <path id="Trazado_12606" data-name="Trazado 12606" d="M941.814,436.6v1.187h-.594V436.6Z" transform="translate(-940.033 -431.851)" fill="#007025" fill-rule="evenodd"/>
      <path id="Trazado_12607" data-name="Trazado 12607" d="M964.1,436.6h.594v1.187H964.1V436.6Z" transform="translate(-945.106 -431.851)" fill="#007025" fill-rule="evenodd"/>
      <path id="Trazado_12608" data-name="Trazado 12608" d="M941.051,438.126v1.781h-.594v-1.781Z" transform="translate(-939.864 -432.189)" fill="#007025" fill-rule="evenodd"/>
      <path id="Trazado_12609" data-name="Trazado 12609" d="M964.868,438.126h.594v1.781h-.594v-1.781Z" transform="translate(-945.276 -432.189)" fill="#007025" fill-rule="evenodd"/>
      <path id="Trazado_12610" data-name="Trazado 12610" d="M939.694,440.415h.594v5.343h-.594v-5.343Z" transform="translate(-939.694 -432.697)" fill="#007025" fill-rule="evenodd"/>
      <path id="Trazado_12611" data-name="Trazado 12611" d="M965.63,440.415h.594v5.343h-.594v-5.343Z" transform="translate(-945.445 -432.697)" fill="#007025" fill-rule="evenodd"/>
      <path id="Trazado_12612" data-name="Trazado 12612" d="M940.457,447.28h.594v1.781h-.594V447.28Z" transform="translate(-939.864 -434.219)" fill="#007025" fill-rule="evenodd"/>
      <path id="Trazado_12613" data-name="Trazado 12613" d="M965.461,447.28v1.781h-.594V447.28Z" transform="translate(-945.276 -434.219)" fill="#007025" fill-rule="evenodd"/>
      <path id="Trazado_12614" data-name="Trazado 12614" d="M941.22,449.568h.594v1.187h-.594v-1.187Z" transform="translate(-940.033 -434.726)" fill="#007025" fill-rule="evenodd"/>
      <path id="Trazado_12615" data-name="Trazado 12615" d="M964.7,449.568v1.187H964.1v-1.187Z" transform="translate(-945.106 -434.726)" fill="#007025" fill-rule="evenodd"/>
      <path id="Trazado_12616" data-name="Trazado 12616" d="M941.983,451.094h.594v.594h-.594v-.594Z" transform="translate(-940.202 -435.064)" fill="#007025" fill-rule="evenodd"/>
      <path id="Trazado_12617" data-name="Trazado 12617" d="M963.342,451.688v-.594h.594v.594Z" transform="translate(-944.937 -435.064)" fill="#007025" fill-rule="evenodd"/>
      <path id="Trazado_12618" data-name="Trazado 12618" d="M942.746,451.857h.594v.594h-.594v-.594Z" transform="translate(-940.371 -435.233)" fill="#007025" fill-rule="evenodd"/>
      <path id="Trazado_12619" data-name="Trazado 12619" d="M962.579,452.451v-.594h.594v.594Z" transform="translate(-944.768 -435.233)" fill="#007025" fill-rule="evenodd"/>
      <path id="Trazado_12620" data-name="Trazado 12620" d="M943.508,452.62h.594v.594h-.594v-.594Z" transform="translate(-940.54 -435.403)" fill="#007025" fill-rule="evenodd"/>
      <path id="Trazado_12621" data-name="Trazado 12621" d="M961.816,453.213v-.594h.594v.594Z" transform="translate(-944.599 -435.403)" fill="#007025" fill-rule="evenodd"/>
      <path id="Trazado_12622" data-name="Trazado 12622" d="M944.271,453.383h.594v.594h-.594v-.594Z" transform="translate(-940.709 -435.572)" fill="#007025" fill-rule="evenodd"/>
      <path id="Trazado_12623" data-name="Trazado 12623" d="M961.053,453.976v-.594h.594v.594Z" transform="translate(-944.43 -435.572)" fill="#007025" fill-rule="evenodd"/>
      <path id="Trazado_12624" data-name="Trazado 12624" d="M945.034,454.145h.594v.594h-.594v-.594Z" transform="translate(-940.878 -435.741)" fill="#007025" fill-rule="evenodd"/>
      <path id="Trazado_12625" data-name="Trazado 12625" d="M960.291,454.739v-.594h.594v.594Z" transform="translate(-944.261 -435.741)" fill="#007025" fill-rule="evenodd"/>
      <path id="Trazado_12626" data-name="Trazado 12626" d="M945.8,454.908h1.187v.594H945.8v-.594Z" transform="translate(-941.047 -435.91)" fill="#007025" fill-rule="evenodd"/>
      <path id="Trazado_12627" data-name="Trazado 12627" d="M958.765,455.5v-.594h1.187v.594h-1.187Z" transform="translate(-943.922 -435.91)" fill="#007025" fill-rule="evenodd"/>
      <path id="Trazado_12628" data-name="Trazado 12628" d="M947.323,455.671H949.1v.594h-1.781v-.594Z" transform="translate(-941.386 -436.079)" fill="#007025" fill-rule="evenodd"/>
      <path id="Trazado_12629" data-name="Trazado 12629" d="M956.477,456.265v-.594h1.781v.594h-1.781Z" transform="translate(-943.415 -436.079)" fill="#007025" fill-rule="evenodd"/>
      <path id="Trazado_12630" data-name="Trazado 12630" d="M949.611,457.028v-.594h5.343v.594Z" transform="translate(-941.893 -436.248)" fill="#007025" fill-rule="evenodd"/>
    </g>
    <g id="Grupo_4078" data-name="Grupo 4078" transform="translate(0.594 7.718)">
      <path id="Trazado_12631" data-name="Trazado 12631" d="M964.529,440.415h.594v3.562h-.594v-.594h-.594v-.594h-.594V441.6h.594v-.594h.594v-.594Z" transform="translate(-945.531 -440.415)" fill="#007025" fill-rule="evenodd"/>
      <path id="Trazado_12632" data-name="Trazado 12632" d="M956.311,447.96h-1.187v.594h-2.968v1.781h-.594V447.96h-.594v-.594h-.594v-.594h.594v-.594h2.969v-.594h1.781v-.594H956.9v1.187h-.594v1.781Z" transform="translate(-942.656 -441.429)" fill="#007025" fill-rule="evenodd"/>
      <path id="Trazado_12633" data-name="Trazado 12633" d="M940.457,447.111v-.594h1.187v.594h2.375v2.969h-.594v1.187h-.594v-.594h-.594v-.594h-.594v-1.187h-.594v-1.781Z" transform="translate(-940.457 -441.768)" fill="#007025" fill-rule="evenodd"/>
      <path id="Trazado_12634" data-name="Trazado 12634" d="M958,448.806h.594v.594H958v-.594Z" transform="translate(-944.347 -442.275)" fill="#007025" fill-rule="evenodd"/>
      <path id="Trazado_12635" data-name="Trazado 12635" d="M958.765,449.568h.594v.594h-.594v-.594Z" transform="translate(-944.516 -442.444)" fill="#007025" fill-rule="evenodd"/>
      <path id="Trazado_12636" data-name="Trazado 12636" d="M959.528,450.331h.594v.594h-.594v-.594Z" transform="translate(-944.685 -442.613)" fill="#007025" fill-rule="evenodd"/>
      <path id="Trazado_12637" data-name="Trazado 12637" d="M958.765,453.894V453.3h.594v-1.187h.594v-1.187h1.781v-.594h1.187v.594h-.594v.594h-.594v.594h-.594v.594h-.594v.594h-.594v.594h-1.187Z" transform="translate(-944.516 -442.613)" fill="#007025" fill-rule="evenodd"/>
      <path id="Trazado_12638" data-name="Trazado 12638" d="M950.885,451.857v1.781h.594v1.187h.594v.594H949.1v-.594h-1.781v-.594h1.187v-.594H949.7v-.594h.594v-1.187Z" transform="translate(-941.979 -442.952)" fill="#007025" fill-rule="evenodd"/>
      <path id="Trazado_12639" data-name="Trazado 12639" d="M944.271,452.62h.594v.594h-.594v-.594Z" transform="translate(-941.303 -443.121)" fill="#007025" fill-rule="evenodd"/>
      <path id="Trazado_12640" data-name="Trazado 12640" d="M945.034,453.383h.594v.594h-.594v-.594Z" transform="translate(-941.472 -443.29)" fill="#007025" fill-rule="evenodd"/>
      <path id="Trazado_12641" data-name="Trazado 12641" d="M945.8,454.145h.594v.594H945.8v-.594Z" transform="translate(-941.641 -443.459)" fill="#007025" fill-rule="evenodd"/>
      <path id="Trazado_12642" data-name="Trazado 12642" d="M958.6,454.908v.594H958v-.594Z" transform="translate(-944.347 -443.628)" fill="#007025" fill-rule="evenodd"/>
      <path id="Trazado_12643" data-name="Trazado 12643" d="M955.714,456.265v-.594h.594v.594Z" transform="translate(-943.84 -443.797)" fill="#007025" fill-rule="evenodd"/>
    </g>
    <g id="Grupo_4079" data-name="Grupo 4079" transform="translate(0.594 0.594)">
      <path id="Trazado_12644" data-name="Trazado 12644" d="M952.918,431.261h2.375v.594h1.781v.594h1.187v.594h.594v1.187h-.594v.594h-2.969V436.6H954.7v-2.375h-.594v-.594h-.594v-.594h-2.375v-.594h1.781v-1.187Z" transform="translate(-942.825 -431.261)" fill="#007025" fill-rule="evenodd"/>
      <path id="Trazado_12645" data-name="Trazado 12645" d="M946.139,434.567v.594h-1.187v.594h.594v.594h-.594v.594h-.594v-1.187H943.17v.594h-1.187v-.594h.594v-.594h.594v-.594h.594v-.594h.594v-.594h.594v-.594h.594v1.781Z" transform="translate(-940.796 -431.599)" fill="#007025" fill-rule="evenodd"/>
      <path id="Trazado_12646" data-name="Trazado 12646" d="M948.848,434.143v-.594h1.781v.594Z" transform="translate(-942.318 -431.768)" fill="#007025" fill-rule="evenodd"/>
      <path id="Trazado_12647" data-name="Trazado 12647" d="M947.323,434.906v-.594h1.187v.594h-1.187Z" transform="translate(-941.979 -431.937)" fill="#007025" fill-rule="evenodd"/>
      <path id="Trazado_12648" data-name="Trazado 12648" d="M960.291,435.838h.594v.594h-.594v-.594Z" transform="translate(-944.855 -432.276)" fill="#007025" fill-rule="evenodd"/>
      <path id="Trazado_12649" data-name="Trazado 12649" d="M961.053,436.6h.594v.594h-.594V436.6Z" transform="translate(-945.024 -432.445)" fill="#007025" fill-rule="evenodd"/>
      <path id="Trazado_12650" data-name="Trazado 12650" d="M946.56,437.363h.594v.594h-.594v-.594Z" transform="translate(-941.81 -432.614)" fill="#007025" fill-rule="evenodd"/>
      <path id="Trazado_12651" data-name="Trazado 12651" d="M961.816,437.363h.594v.594h-.594v-.594Z" transform="translate(-945.193 -432.614)" fill="#007025" fill-rule="evenodd"/>
      <path id="Trazado_12652" data-name="Trazado 12652" d="M944.865,438.126v1.187h-.594v-1.187Z" transform="translate(-941.303 -432.783)" fill="#007025" fill-rule="evenodd"/>
      <path id="Trazado_12653" data-name="Trazado 12653" d="M947.323,438.126h.594v.594h-.594v-.594Z" transform="translate(-941.979 -432.783)" fill="#007025" fill-rule="evenodd"/>
      <path id="Trazado_12654" data-name="Trazado 12654" d="M953.853,438.126V440.5h.594v.594h.594v.594h.594v.594h.594v1.187h-1.187v.594H953.26v.594h-2.969v.594H949.1v-.594h-1.781v-.594H949.1v-2.375h.594V440.5h1.187v-.594h2.375v-1.781Z" transform="translate(-941.979 -432.783)" fill="#007025" fill-rule="evenodd"/>
      <path id="Trazado_12655" data-name="Trazado 12655" d="M962.579,438.126h.594v.594h-.594v-.594Z" transform="translate(-945.362 -432.783)" fill="#007025" fill-rule="evenodd"/>
      <path id="Trazado_12656" data-name="Trazado 12656" d="M964.022,438.126V440.5h-.594v.594h-.594v.594h-1.781v-.594h1.187v-1.781h.594v-.594h.594v-.594Z" transform="translate(-945.024 -432.783)" fill="#007025" fill-rule="evenodd"/>
      <path id="Trazado_12657" data-name="Trazado 12657" d="M948.085,438.889h.594v.594h-.594v-.594Z" transform="translate(-942.148 -432.952)" fill="#007025" fill-rule="evenodd"/>
      <path id="Trazado_12658" data-name="Trazado 12658" d="M944.1,439.652v1.781h-.594v-1.781Z" transform="translate(-941.134 -433.121)" fill="#007025" fill-rule="evenodd"/>
      <path id="Trazado_12659" data-name="Trazado 12659" d="M948.848,439.652h.594v.594h-.594v-.594Z" transform="translate(-942.318 -433.121)" fill="#007025" fill-rule="evenodd"/>
      <path id="Trazado_12660" data-name="Trazado 12660" d="M949.611,440.415h.594v.594h-.594v-.594Z" transform="translate(-942.487 -433.29)" fill="#007025" fill-rule="evenodd"/>
      <path id="Trazado_12661" data-name="Trazado 12661" d="M943.339,441.94v1.781h-.594V441.94Z" transform="translate(-940.965 -433.629)" fill="#007025" fill-rule="evenodd"/>
      <path id="Trazado_12662" data-name="Trazado 12662" d="M958.765,443.3V442.7h1.781v.594h-1.781Z" transform="translate(-944.516 -433.798)" fill="#007025" fill-rule="evenodd"/>
      <path id="Trazado_12663" data-name="Trazado 12663" d="M940.457,444.229h1.781v.594h.594v.594h.594v.594H945.8v.594h-4.156v-.594h-1.187v-1.781Z" transform="translate(-940.457 -434.136)" fill="#007025" fill-rule="evenodd"/>
    </g>
    <g id="Grupo_4080" data-name="Grupo 4080" transform="translate(3.562 9.499)">
      <path id="Trazado_12664" data-name="Trazado 12664" d="M961.564,442.7h.594v.594h.594v.594h.594v.594h.594v1.781h-.594v1.781h-.594v.594h-1.187v.594h-1.781v-.594h-.594v-.594H958.6v-.594H958v-1.781h.594v-1.187h.594v-.594h1.187V443.3h1.187V442.7Z" transform="translate(-947.316 -442.703)" fill="#c8d6dc" fill-rule="evenodd"/>
      <path id="Trazado_12665" data-name="Trazado 12665" d="M950.208,450.842h-.594v1.187h-.594v.594h-1.187v.594h-1.781v-.594h-.594v-.594h-.594v-.594h-.594v-1.187h.594V447.28h4.156v.594h.594v.594h.594v2.375Z" transform="translate(-944.271 -443.718)" fill="#c8d6dc" fill-rule="evenodd"/>
      <path id="Trazado_12666" data-name="Trazado 12666" d="M956.649,448.806v.594h.594v.594h.594v.594h.594v1.187h-.594v1.187h-.594v.594h-.594v.594h-1.781v.594h-1.781v-.594h-.594v-1.187H951.9V451.18h.594V449.4h2.968v-.594h1.187Z" transform="translate(-945.963 -444.056)" fill="#c8d6dc" fill-rule="evenodd"/>
    </g>
    <g id="Grupo_4081" data-name="Grupo 4081" transform="translate(0.594 0.594)">
      <path id="Trazado_12667" data-name="Trazado 12667" d="M948.935,431.261H951.9v1.187h-1.781v.594h-1.781v.594h-1.187v.594h-.594v-1.781h.594v-.594h1.781v-.594Z" transform="translate(-941.81 -431.261)" fill="#f8fdff" fill-rule="evenodd"/>
      <path id="Trazado_12668" data-name="Trazado 12668" d="M949.953,433.549h2.375v.594h.594v.594h.594v2.375h-.594v1.781h-2.375v.594h-1.187v-.594h-.594V438.3h-.594v-.594h-.594v-.594h-.594v-.594h-.594v-.594H945.8v-.594h1.187v-.594h1.187v-.594h1.781v-.594Z" transform="translate(-941.641 -431.768)" fill="#f8fdff" fill-rule="evenodd"/>
      <path id="Trazado_12669" data-name="Trazado 12669" d="M963.259,436.093v1.781h-.594v-.594h-.594v-.594h-.594v-.594h-.594V435.5h-.594v-.594h.594v-.594h.594v.594h.594v.594h.594v.594Z" transform="translate(-944.855 -431.937)" fill="#f8fdff" fill-rule="evenodd"/>
      <path id="Trazado_12670" data-name="Trazado 12670" d="M959.276,435.838v.594h.594v.594h.594v.594h.594v.594h.594v.594h-.594v1.781H959.87v.594h-1.781v.594h-.594v-.594H956.9v-.594h-.594v-.594h-.594v-2.375h.594v-1.781h2.968Z" transform="translate(-943.84 -432.276)" fill="#f8fdff" fill-rule="evenodd"/>
      <path id="Trazado_12671" data-name="Trazado 12671" d="M944.019,437.788h-.594v1.187h-.594v1.781h-.594v1.781h-1.781v-2.969h.594v-1.781h.594v-.594h1.187V436.6h1.187v1.187Z" transform="translate(-940.457 -432.445)" fill="#f8fdff" fill-rule="evenodd"/>
      <path id="Trazado_12672" data-name="Trazado 12672" d="M945.714,437.363v.594h.594v.594h.594v.594h.594v.594h.594v.594h.594v1.187h-.594v2.375h-1.781v.594h-2.375v-.594h-.594V443.3h-.594v-.594h.594v-1.781h.594v-1.781h.594v-1.187h.594v-.594Z" transform="translate(-940.965 -432.614)" fill="#f8fdff" fill-rule="evenodd"/>
      <path id="Trazado_12673" data-name="Trazado 12673" d="M961.053,443.3V442.7h1.187v.594h-1.187Z" transform="translate(-945.024 -433.798)" fill="#f8fdff" fill-rule="evenodd"/>
      <path id="Trazado_12674" data-name="Trazado 12674" d="M958.765,443.466h1.781v.594h-1.187v.594h-.594v-1.187Z" transform="translate(-944.516 -433.967)" fill="#f8fdff" fill-rule="evenodd"/>
      <path id="Trazado_12675" data-name="Trazado 12675" d="M947.323,447.111v-.594H949.1v.594Z" transform="translate(-941.979 -434.643)" fill="#f8fdff" fill-rule="evenodd"/>
    </g>
  </g>
</svg>
