<svg xmlns="http://www.w3.org/2000/svg" width="369.553" height="63.396" viewBox="0 0 369.553 63.396">
  <g id="Grupo_4191" data-name="Grupo 4191" transform="translate(-2118.321 -450)">
    <g id="Grupo_4107" data-name="Grupo 4107" transform="translate(2119.821 451.5)">
      <g id="Grupo_4102" data-name="Grupo 4102" transform="translate(2.743 32.282)">
        <g id="Grupo_4076" data-name="Grupo 4076" transform="translate(0)">
          <g id="Grupo_4075" data-name="Grupo 4075">
            <g id="Grupo_4074" data-name="Grupo 4074">
              <g id="Grupo_4073" data-name="Grupo 4073">
                <rect id="Rectángulo_5573" data-name="Rectángulo 5573" width="2.632" height="3.215" transform="translate(2.632 3.215)" fill="#15132a"/>
                <rect id="Rectángulo_5574" data-name="Rectángulo 5574" width="113.192" height="3.215" transform="translate(5.265)" fill="#15132a"/>
                <rect id="Rectángulo_5575" data-name="Rectángulo 5575" width="2.632" height="3.215" transform="translate(5.265 25.719) rotate(180)" fill="#15132a"/>
                <rect id="Rectángulo_5576" data-name="Rectángulo 5576" width="113.192" height="3.215" transform="translate(5.265 25.719)" fill="#15132a"/>
                <rect id="Rectángulo_5577" data-name="Rectángulo 5577" width="2.632" height="16.075" transform="translate(0 6.43)" fill="#15132a"/>
                <rect id="Rectángulo_5578" data-name="Rectángulo 5578" width="2.632" height="3.215" transform="translate(118.457 22.504)" fill="#15132a"/>
                <rect id="Rectángulo_5579" data-name="Rectángulo 5579" width="2.632" height="3.215" transform="translate(118.457 3.215)" fill="#15132a"/>
                <rect id="Rectángulo_5580" data-name="Rectángulo 5580" width="2.632" height="16.075" transform="translate(121.089 6.43)" fill="#15132a"/>
              </g>
              <rect id="Rectángulo_5581" data-name="Rectángulo 5581" width="2.632" height="16.075" transform="translate(5.265 6.43)" fill="#383838"/>
              <path id="Trazado_12589" data-name="Trazado 12589" d="M942.4,432.021v0Z" transform="translate(-934.502 -425.591)" fill="#383838"/>
              <rect id="Rectángulo_5582" data-name="Rectángulo 5582" width="2.632" height="16.075" transform="translate(115.824 6.43)" fill="#383838"/>
              <path id="Trazado_12590" data-name="Trazado 12590" d="M1105.075,432.021v0Z" transform="translate(-986.618 -425.591)" fill="#383838"/>
              <rect id="Rectángulo_5583" data-name="Rectángulo 5583" width="2.632" height="16.074" transform="translate(7.897 6.43)" fill="#383838"/>
              <rect id="Rectángulo_5584" data-name="Rectángulo 5584" width="2.632" height="19.289" transform="translate(10.53 3.215)" fill="#383838"/>
              <rect id="Rectángulo_5585" data-name="Rectángulo 5585" width="2.632" height="19.289" transform="translate(13.162 3.215)" fill="#383838"/>
              <rect id="Rectángulo_5586" data-name="Rectángulo 5586" width="2.632" height="19.289" transform="translate(15.794 3.215)" fill="#383838"/>
              <rect id="Rectángulo_5587" data-name="Rectángulo 5587" width="2.632" height="19.289" transform="translate(18.427 3.215)" fill="#383838"/>
              <rect id="Rectángulo_5588" data-name="Rectángulo 5588" width="2.632" height="19.289" transform="translate(21.059 3.215)" fill="#383838"/>
              <rect id="Rectángulo_5589" data-name="Rectángulo 5589" width="2.632" height="19.289" transform="translate(23.691 3.215)" fill="#383838"/>
              <rect id="Rectángulo_5590" data-name="Rectángulo 5590" width="2.632" height="19.289" transform="translate(26.324 3.215)" fill="#383838"/>
              <rect id="Rectángulo_5591" data-name="Rectángulo 5591" width="2.632" height="19.289" transform="translate(28.956 3.215)" fill="#383838"/>
              <rect id="Rectángulo_5592" data-name="Rectángulo 5592" width="2.632" height="19.289" transform="translate(31.588 3.215)" fill="#383838"/>
              <rect id="Rectángulo_5593" data-name="Rectángulo 5593" width="2.632" height="19.289" transform="translate(34.221 3.215)" fill="#383838"/>
              <rect id="Rectángulo_5594" data-name="Rectángulo 5594" width="2.632" height="19.289" transform="translate(36.853 3.215)" fill="#383838"/>
              <rect id="Rectángulo_5595" data-name="Rectángulo 5595" width="2.632" height="19.289" transform="translate(39.486 3.215)" fill="#383838"/>
              <rect id="Rectángulo_5596" data-name="Rectángulo 5596" width="2.632" height="19.289" transform="translate(42.118 3.215)" fill="#383838"/>
              <rect id="Rectángulo_5597" data-name="Rectángulo 5597" width="2.632" height="19.289" transform="translate(44.75 3.215)" fill="#383838"/>
              <rect id="Rectángulo_5598" data-name="Rectángulo 5598" width="2.632" height="19.289" transform="translate(47.383 3.215)" fill="#383838"/>
              <rect id="Rectángulo_5599" data-name="Rectángulo 5599" width="2.632" height="19.289" transform="translate(50.015 3.215)" fill="#383838"/>
              <rect id="Rectángulo_5600" data-name="Rectángulo 5600" width="2.632" height="19.289" transform="translate(52.647 3.215)" fill="#383838"/>
              <rect id="Rectángulo_5601" data-name="Rectángulo 5601" width="2.632" height="19.289" transform="translate(55.28 3.215)" fill="#383838"/>
              <rect id="Rectángulo_5602" data-name="Rectángulo 5602" width="55.28" height="19.289" transform="translate(57.912 3.215)" fill="#383838"/>
              <rect id="Rectángulo_5603" data-name="Rectángulo 5603" width="2.632" height="16.075" transform="translate(113.192 6.43)" fill="#383838"/>
              <rect id="Rectángulo_5604" data-name="Rectángulo 5604" width="2.632" height="9.645" transform="translate(2.632 9.645)" fill="#383838"/>
              <rect id="Rectángulo_5605" data-name="Rectángulo 5605" width="2.632" height="9.645" transform="translate(118.457 9.645)" fill="#383838"/>
            </g>
            <rect id="Rectángulo_5606" data-name="Rectángulo 5606" width="2.632" height="3.215" transform="translate(5.265 22.504) rotate(180)" fill="#383838"/>
            <rect id="Rectángulo_5607" data-name="Rectángulo 5607" width="2.632" height="3.215" transform="translate(5.265 9.645) rotate(180)" fill="#383838"/>
            <rect id="Rectángulo_5608" data-name="Rectángulo 5608" width="2.632" height="3.215" transform="translate(121.089 9.645) rotate(180)" fill="#383838"/>
            <rect id="Rectángulo_5609" data-name="Rectángulo 5609" width="2.632" height="3.215" transform="translate(118.457 22.504) rotate(180)" fill="#383838"/>
            <rect id="Rectángulo_5610" data-name="Rectángulo 5610" width="2.632" height="3.215" transform="translate(121.089 19.29) rotate(180)" fill="#383838"/>
            <rect id="Rectángulo_5611" data-name="Rectángulo 5611" width="113.192" height="3.215" transform="translate(5.265 3.215)" fill="#383838"/>
            <rect id="Rectángulo_5612" data-name="Rectángulo 5612" width="5.265" height="3.215" transform="translate(10.53 6.43) rotate(180)" fill="#383838"/>
            <rect id="Rectángulo_5613" data-name="Rectángulo 5613" width="113.192" height="3.215" transform="translate(5.265 22.504)" fill="#383838"/>
            <rect id="Rectángulo_5614" data-name="Rectángulo 5614" width="2.632" height="3.215" transform="translate(121.089 22.504) rotate(180)" fill="#383838"/>
          </g>
        </g>
      </g>
      <g id="Grupo_4104" data-name="Grupo 4104" transform="translate(0 10.279)">
        <path id="Trazado_10833" data-name="Trazado 10833" d="M525.362,750.781v-2.755h-3.085V745.27H389.618v2.756h-3.085v2.755h-3.085v13.776h3.085v2.755h3.085v2.756H522.277v-2.756h3.085ZM398.873,764.556h0Z" transform="translate(-383.448 -745.27)" fill="#383838" stroke="#15132a" stroke-miterlimit="10" stroke-width="3"/>
      </g>
      <path id="Trazado_12932" data-name="Trazado 12932" d="M42.475,7.754V3.877h-.923V0H1.847V3.877H.923V7.754H0V27.139H.923v3.877h.923v3.877H41.552V31.016h.923ZM4.617,27.138h0Z" transform="translate(175.916 0) rotate(90)" fill="#383838" stroke="#15132a" stroke-miterlimit="10" stroke-width="3"/>
      <g id="Grupo_4105" data-name="Grupo 4105" transform="translate(242.029 32.962)">
        <g id="Grupo_4076-2" data-name="Grupo 4076" transform="translate(0)">
          <g id="Grupo_4075-2" data-name="Grupo 4075" transform="translate(0)">
            <g id="Grupo_4074-2" data-name="Grupo 4074">
              <g id="Grupo_4073-2" data-name="Grupo 4073">
                <rect id="Rectángulo_5573-2" data-name="Rectángulo 5573" width="2.632" height="3.215" transform="translate(2.632 3.215)" fill="#15132a"/>
                <rect id="Rectángulo_5574-2" data-name="Rectángulo 5574" width="113.192" height="3.215" transform="translate(5.265)" fill="#15132a"/>
                <rect id="Rectángulo_5575-2" data-name="Rectángulo 5575" width="2.632" height="3.215" transform="translate(2.632 22.504)" fill="#15132a"/>
                <rect id="Rectángulo_5576-2" data-name="Rectángulo 5576" width="113.192" height="3.215" transform="translate(5.265 25.719)" fill="#15132a"/>
                <rect id="Rectángulo_5577-2" data-name="Rectángulo 5577" width="2.632" height="16.075" transform="translate(0 6.43)" fill="#15132a"/>
                <rect id="Rectángulo_5578-2" data-name="Rectángulo 5578" width="2.632" height="3.215" transform="translate(118.457 22.504)" fill="#15132a"/>
                <rect id="Rectángulo_5579-2" data-name="Rectángulo 5579" width="2.632" height="3.215" transform="translate(118.457 3.215)" fill="#15132a"/>
                <rect id="Rectángulo_5580-2" data-name="Rectángulo 5580" width="2.632" height="16.075" transform="translate(121.089 6.43)" fill="#15132a"/>
              </g>
              <rect id="Rectángulo_5581-2" data-name="Rectángulo 5581" width="2.632" height="16.075" transform="translate(5.265 6.43)" fill="#383838"/>
              <path id="Trazado_12589-2" data-name="Trazado 12589" d="M942.4,432.021v0Z" transform="translate(-934.502 -425.591)" fill="#383838"/>
              <rect id="Rectángulo_5582-2" data-name="Rectángulo 5582" width="2.632" height="16.075" transform="translate(115.824 6.43)" fill="#383838"/>
              <path id="Trazado_12590-2" data-name="Trazado 12590" d="M1105.075,432.021v0Z" transform="translate(-986.618 -425.591)" fill="#383838"/>
              <rect id="Rectángulo_5583-2" data-name="Rectángulo 5583" width="2.632" height="16.074" transform="translate(7.897 6.43)" fill="#383838"/>
              <rect id="Rectángulo_5584-2" data-name="Rectángulo 5584" width="2.632" height="19.289" transform="translate(10.53 3.215)" fill="#383838"/>
              <rect id="Rectángulo_5585-2" data-name="Rectángulo 5585" width="2.632" height="19.289" transform="translate(13.162 3.215)" fill="#383838"/>
              <rect id="Rectángulo_5586-2" data-name="Rectángulo 5586" width="2.632" height="19.289" transform="translate(15.794 3.215)" fill="#383838"/>
              <rect id="Rectángulo_5587-2" data-name="Rectángulo 5587" width="2.632" height="19.289" transform="translate(18.427 3.215)" fill="#383838"/>
              <rect id="Rectángulo_5588-2" data-name="Rectángulo 5588" width="2.632" height="19.289" transform="translate(21.059 3.215)" fill="#383838"/>
              <rect id="Rectángulo_5589-2" data-name="Rectángulo 5589" width="2.632" height="19.289" transform="translate(23.691 3.215)" fill="#383838"/>
              <rect id="Rectángulo_5590-2" data-name="Rectángulo 5590" width="2.632" height="19.289" transform="translate(26.324 3.215)" fill="#383838"/>
              <rect id="Rectángulo_5591-2" data-name="Rectángulo 5591" width="2.632" height="19.289" transform="translate(28.956 3.215)" fill="#383838"/>
              <rect id="Rectángulo_5592-2" data-name="Rectángulo 5592" width="2.632" height="19.289" transform="translate(31.588 3.215)" fill="#383838"/>
              <rect id="Rectángulo_5593-2" data-name="Rectángulo 5593" width="2.632" height="19.289" transform="translate(34.221 3.215)" fill="#383838"/>
              <rect id="Rectángulo_5594-2" data-name="Rectángulo 5594" width="2.632" height="19.289" transform="translate(36.853 3.215)" fill="#383838"/>
              <rect id="Rectángulo_5595-2" data-name="Rectángulo 5595" width="2.632" height="19.289" transform="translate(39.486 3.215)" fill="#383838"/>
              <rect id="Rectángulo_5596-2" data-name="Rectángulo 5596" width="2.632" height="19.289" transform="translate(42.118 3.215)" fill="#383838"/>
              <rect id="Rectángulo_5597-2" data-name="Rectángulo 5597" width="2.632" height="19.289" transform="translate(44.75 3.215)" fill="#383838"/>
              <rect id="Rectángulo_5598-2" data-name="Rectángulo 5598" width="2.632" height="19.289" transform="translate(47.383 3.215)" fill="#383838"/>
              <rect id="Rectángulo_5599-2" data-name="Rectángulo 5599" width="2.632" height="19.289" transform="translate(50.015 3.215)" fill="#383838"/>
              <rect id="Rectángulo_5600-2" data-name="Rectángulo 5600" width="2.632" height="19.289" transform="translate(52.647 3.215)" fill="#383838"/>
              <rect id="Rectángulo_5601-2" data-name="Rectángulo 5601" width="2.632" height="19.289" transform="translate(55.28 3.215)" fill="#383838"/>
              <rect id="Rectángulo_5602-2" data-name="Rectángulo 5602" width="55.28" height="19.289" transform="translate(57.912 3.215)" fill="#383838"/>
              <rect id="Rectángulo_5603-2" data-name="Rectángulo 5603" width="2.632" height="16.075" transform="translate(113.192 6.43)" fill="#383838"/>
              <rect id="Rectángulo_5604-2" data-name="Rectángulo 5604" width="2.632" height="9.645" transform="translate(2.632 9.645)" fill="#383838"/>
              <rect id="Rectángulo_5605-2" data-name="Rectángulo 5605" width="2.632" height="9.645" transform="translate(118.457 9.645)" fill="#383838"/>
            </g>
            <rect id="Rectángulo_5606-2" data-name="Rectángulo 5606" width="2.632" height="3.215" transform="translate(2.632 19.29)" fill="#383838"/>
            <rect id="Rectángulo_5607-2" data-name="Rectángulo 5607" width="2.632" height="3.215" transform="translate(2.632 6.43)" fill="#383838"/>
            <rect id="Rectángulo_5608-2" data-name="Rectángulo 5608" width="2.632" height="3.215" transform="translate(118.457 6.43)" fill="#383838"/>
            <rect id="Rectángulo_5609-2" data-name="Rectángulo 5609" width="2.632" height="3.215" transform="translate(115.824 19.29)" fill="#383838"/>
            <rect id="Rectángulo_5610-2" data-name="Rectángulo 5610" width="2.632" height="3.215" transform="translate(118.457 16.075)" fill="#383838"/>
            <rect id="Rectángulo_5611-2" data-name="Rectángulo 5611" width="113.192" height="3.215" transform="translate(5.265 3.215)" fill="#383838"/>
            <rect id="Rectángulo_5612-2" data-name="Rectángulo 5612" width="5.265" height="3.215" transform="translate(5.265 3.215)" fill="#383838"/>
            <rect id="Rectángulo_5613-2" data-name="Rectángulo 5613" width="113.192" height="3.215" transform="translate(5.265 22.504)" fill="#383838"/>
            <rect id="Rectángulo_5614-2" data-name="Rectángulo 5614" width="2.632" height="3.215" transform="translate(118.457 19.29)" fill="#383838"/>
          </g>
        </g>
      </g>
      <g id="Grupo_4106" data-name="Grupo 4106" transform="translate(223.112 9.842)">
        <path id="Trazado_10833-2" data-name="Trazado 10833" d="M383.448,750.781v-2.755h3.118V745.27H520.653v2.756h3.118v2.755h3.118v13.776h-3.118v2.755h-3.118v2.756H386.566v-2.756h-3.118ZM511.3,764.556h0Z" transform="translate(-383.448 -745.27)" fill="#383838" stroke="#15132a" stroke-miterlimit="10" stroke-width="3"/>
      </g>
      <path id="Trazado_12933" data-name="Trazado 12933" d="M42.475,27.139v3.877h-.923v3.877H1.847V31.016H.923V27.139H0V7.754H.923V3.877h.923V0H41.552V3.877h.923ZM4.617,7.755h0Z" transform="translate(225.432 0) rotate(90)" fill="#383838" stroke="#15132a" stroke-miterlimit="10" stroke-width="3"/>
    </g>
  </g>
</svg>
