<svg xmlns="http://www.w3.org/2000/svg" xmlns:xlink="http://www.w3.org/1999/xlink" width="545.62" height="159.482" viewBox="0 0 545.62 159.482">
  <defs>
    <linearGradient id="linear-gradient" x1="-35.289" y1="61.22" x2="-35.289" y2="61.214" gradientUnits="objectBoundingBox">
      <stop offset="0" stop-color="#c7c9ca"/>
      <stop offset="0.285" stop-color="#e7e8e8"/>
      <stop offset="0.522" stop-color="#fff"/>
      <stop offset="0.989" stop-color="#c7c9ca"/>
    </linearGradient>
    <linearGradient id="linear-gradient-2" x1="-41.922" y1="61.189" x2="-41.922" y2="61.194" xlink:href="#linear-gradient"/>
    <linearGradient id="linear-gradient-3" x1="-6.403" y1="509.464" x2="-6.403" y2="509.054" xlink:href="#linear-gradient"/>
    <linearGradient id="linear-gradient-4" x1="-177.095" y1="8.409" x2="-176.982" y2="8.409" xlink:href="#linear-gradient"/>
    <linearGradient id="linear-gradient-5" x1="-4.648" y1="155.18" x2="-4.648" y2="155.067" xlink:href="#linear-gradient"/>
    <linearGradient id="linear-gradient-6" x1="-215.673" y1="8.409" x2="-215.559" y2="8.409" xlink:href="#linear-gradient"/>
  </defs>
  <g id="Grupo_4069" data-name="Grupo 4069" transform="translate(0)">
    <path id="Trazado_12575" data-name="Trazado 12575" d="M1638.771,240.918l1.889.672h3.576l.148,1.322,1.073.381-.183-1.7H1660l.955,9.511h-13.79l.067.664h13.79l.947,9.414h-13.792l.068.657h13.792l.936,9.318H1649.2l.068.652h13.772l.926,9.221H1650.2l.067.644h13.762l.918,9.127h-13.755l.064.639h13.75l.906,9.035h-13.738l.066.631h13.737l.9,8.946h-13.726l.063.625h13.724l.89,8.856h-13.714l.063.619h13.714l.881,8.768h-13.7l.062.613h13.7l.873,8.681h-13.694l.063.608h13.691l.865,8.594h-13.681l.059.6h13.682l.856,8.51h-13.672l.062.6H2057l.059-.6h-13.691l.856-8.51h13.7l.063-.6h-13.7l.864-8.594h13.712l.062-.608h-13.72l.873-8.681H2059.8l.062-.613H2046.14l.884-8.768h13.734l.062-.619h-13.735l.89-8.856h13.745l.064-.625h-13.746l.9-8.946h13.757l.066-.631H2049l.908-9.035h13.768l.066-.639h-13.771l.918-9.127h13.781l.065-.644h-13.78l.927-9.221h13.791l.065-.652h-13.792l.937-9.318h13.8l.068-.657h-13.806l.944-9.414h13.818l.067-.664h-13.817l.957-9.511h14.722l-.186,1.711,1.075-.382.148-1.329h3.594l1.889-.672Zm384.641.672h14.721l-.875,9.511h-14.651Zm13.791,10.175-.866,9.414h-14.575l.8-9.414Zm-126.286,67.766.251-8.856h14.2l-.318,8.856Zm14.116.619-.315,8.768h-14.065l.249-8.768Zm-13.845-10.1.253-8.946h14.274l-.322,8.946Zm14.874-18.613-.323,9.036h-14.28l.256-9.036Zm-14.328-.638.257-9.127h14.421l-.327,9.127Zm14.294,29.35h14.134l-.387,8.768h-14.065Zm.022-.619.322-8.856h14.2l-.389,8.856Zm.346-9.481.324-8.946h14.275l-.392,8.946Zm93.453-38.246-.774,9.222h-14.427l.7-9.222Zm-14.446-.651.712-9.318h14.569l-.783,9.318Zm-48.594,38.892.469-8.945h14.277l-.537,8.945Zm14.171.626-.531,8.855h-14.138l.465-8.855Zm1,0h14.2l-.6,8.855h-14.139Zm.037-.626.541-8.945h14.277l-.605,8.945Zm30.831-18.612-.688,9.035h-14.279l.618-9.035Zm-14.306-.639.624-9.127h14.421l-.693,9.127Zm-1.009,0h-14.353l.554-9.127h14.419Zm-.042.639-.614,9.035h-14.281l.548-9.035Zm-.308,19.238h14.2l-.673,8.855h-14.136Zm.041-.626.613-8.945h14.274l-.679,8.945Zm15.16.626h14.2l-.74,8.855h-14.138Zm.049-.626.683-8.945h14.274l-.751,8.945Zm.733-9.577.69-9.035H2018.2l-.759,9.035Zm.742-9.676.7-9.127h14.42l-.766,9.127Zm.483-19.645h-14.5l.637-9.318h14.57Zm-.051.651-.7,9.221h-14.426l.631-9.221Zm-15.468-.651h-14.5l.561-9.318H1989.5Zm-.045.651-.626,9.221h-14.427l.557-9.221Zm-15.474-.651h-14.5l.489-9.318h14.569Zm-.039.651-.553,9.221h-14.426l.484-9.221Zm-.592,9.864-.546,9.128h-14.353l.478-9.128Zm-.586,9.771-.541,9.035h-14.28l.472-9.035Zm-14.818-10.411h-14.43l.409-9.221h14.494Zm-.034.644-.474,9.127h-14.351l.4-9.127Zm-.506,9.771-.469,9.035h-14.281l.4-9.035Zm-.5,9.666-.464,8.946H1941.6l.4-8.946Zm-14.4-20.078H1927.45l.336-9.221h14.495Zm-.028.644-.4,9.127h-14.353l.333-9.127Zm-.43,9.769-.394,9.036h-14.281l.33-9.036Zm-.265,28.712h14.132l-.454,8.768h-14.067Zm.027-.619.392-8.856h14.2l-.458,8.856Zm14.6,10h14.066l-.521,8.681h-14Zm.034-.613.459-8.768h14.134l-.526,8.768Zm15.02.613h14.06l-.593,8.681h-14Zm.036-.613.53-8.768h14.133l-.592,8.768Zm15.015.613h14.063l-.661,8.681h-14Zm.041-.613.594-8.768h14.133l-.666,8.768Zm15.009.613H2015l-.727,8.681h-14Zm.046-.613.671-8.768h14.134l-.742,8.768Zm15,.613h14.059l-.8,8.681h-14Zm.05-.613.742-8.768h14.133l-.8,8.768Zm.794-9.386.74-8.856h14.2l-.815,8.856Zm.8-9.481.755-8.946h14.276l-.822,8.946Zm.809-9.577.762-9.036h14.35l-.832,9.036Zm.819-9.676.771-9.127h14.42l-.841,9.127Zm.824-9.77.78-9.221h14.495l-.85,9.221Zm.834-9.872.786-9.318h14.569l-.856,9.318Zm-13.259-29.565h14.721l-.8,9.511h-14.651Zm13.867,10.175-.79,9.413h-14.575l.719-9.413Zm-29.621-10.175h14.72l-.729,9.511H1991.25Zm13.947,10.175-.714,9.413h-14.575l.645-9.413Zm-29.705-10.175h14.723l-.653,9.511h-14.653Zm14.032,10.175-.638,9.413h-14.576l.568-9.413Zm-29.8-10.177H1975.1l-.564,9.513h-14.652Zm-.535,10.175h14.645l-.562,9.413h-14.575Zm-15.224-10.175h14.721l-.487,9.513h-14.649Zm-.444,10.175h14.646l-.488,9.413h-14.575Zm14.123,10.072-.483,9.318h-14.5l.413-9.318Zm-29.427-20.247H1943.6l-.417,9.513h-14.648Zm-.37,10.175h14.644l-.412,9.413h-14.574Zm14.2,10.072-.408,9.318h-14.5l.34-9.318Zm-29.589-20.247h14.72l-.34,9.511h-14.65Zm-.288,10.175h14.644l-.336,9.413h-14.574Zm-.286,10.072h14.569l-.333,9.318h-14.5Zm14.212,9.968-.33,9.221h-14.425l.261-9.221Zm-29.4-30.215h14.721l-.258,9.513h-14.65Zm-.206,10.175H1911.8l-.263,9.413h-14.574Zm-.2,10.072h14.568l-.258,9.318h-14.492Zm-.2,9.968h14.495l-.256,9.221h-14.427Zm-.2,9.865h14.42l-.255,9.127h-14.353Zm14.149,9.769-.251,9.036h-14.272l.183-9.036Zm-14.726,18.613.182-8.946h14.274l-.247,8.946Zm14.192.625-.246,8.856h-14.139l.18-8.856ZM1881.6,241.591h14.722l-.182,9.512H1881.49Zm-.125,10.176h14.647l-.187,9.413h-14.575Zm-.122,10.072h14.568l-.182,9.318h-14.5Zm-.123,9.968h14.494l-.183,9.221h-14.426Zm-.124,9.865h14.421l-.18,9.127H1881Zm-.119,9.77h14.349l-.18,9.036h-14.28Zm-15.143-49.848h14.721l-.106,9.51h-14.652Zm-.045,10.176h14.646l-.111,9.413h-14.565Zm-.043,10.072h14.571l-.109,9.318h-14.5Zm-16.578,9.318h-14.5l-.109-9.318h14.569Zm-.041-9.976h-14.573l-.112-9.413H1849.1Zm-.085-19.589.044,9.512h-14.65l-.112-9.512Zm-15.03,58.884h-14.281l-.178-9.036h14.345Zm-.119-9.676h-14.354l-.18-9.128h14.42Zm-.122-9.771H1819.36l-.182-9.221h14.5Zm-.121-9.872h-14.5l-.182-9.318h14.569Zm-14.716,39.521.18,8.856h-14.136l-.246-8.856Zm-14.22-.626-.249-8.945h14.276l.182,8.945Zm28.814-48.871h-14.573l-.188-9.413h14.643Zm-.241-19.589.117,9.512h-14.649l-.189-9.512Zm-14.56,58.884h-14.28l-.251-9.036h14.347Zm-124.69-28.673.779,9.221h-14.422l-.848-9.221Zm-14.555-.651-.856-9.318h14.571l.786,9.318Zm93.974,19.646-.4-9.128h14.421l.332,9.128Zm14.376.638.327,9.036h-14.279l-.4-9.036Zm-14.533,18.613H1759.1l-.466-8.946h14.278Zm-.274-29.025-.4-9.221h14.5l.335,9.221Zm-.148,19.447h-14.28l-.47-9.036h14.349Zm-61.826-9.036.69,9.036h-14.278l-.76-9.036Zm-14.4-.638-.768-9.127h14.42l.7,9.127Zm30.721,0-.618-9.127h14.42l.55,9.127Zm14.385.638.545,9.036h-14.277l-.616-9.036Zm-14.738,9.036h-14.28l-.686-9.036h14.348Zm-15.015-9.676-.694-9.127h14.42l.626,9.127Zm-.22,10.305.684,8.946h-14.209l-.75-8.946Zm.732,9.572.676,8.855h-14.136l-.742-8.855Zm.269-9.572h14.274l.614,8.946h-14.207Zm14.93,9.572.6,8.855h-14.115l-.672-8.855Zm.349-9.572h14.274l.541,8.946h-14.209Zm14.853,9.572.537,8.855h-14.122l-.6-8.855Zm.426-9.572h14.276l.468,8.946h-14.207Zm14.776,9.572.465,8.855h-14.127l-.529-8.855ZM1758.1,290.8l-.471-9.127h14.421l.4,9.127Zm-.506-9.771-.478-9.221h14.5l.41,9.221Zm-.466,10.411.472,9.036h-14.281l-.541-9.036Zm-14.385-.638-.546-9.128h14.422l.476,9.128Zm-.586-9.77-.551-9.221h14.5l.481,9.221Zm-.593-9.872-.558-9.318h14.569l.489,9.318Zm-.424,9.872h-14.424l-.626-9.221h14.5Zm-15.095-9.872-.632-9.318h14.568l.564,9.318Zm-.342,9.872h-14.425l-.7-9.221h14.495Zm-15.176-9.872-.708-9.318h14.57l.637,9.318Zm-.264,9.872h-14.428l-.773-9.221h14.5Zm-15.254-9.872-.782-9.318H1708.8l.712,9.318Zm-.131,10.521.771,9.127H1681.3l-.84-9.127Zm.827,9.769.762,9.036h-14.279l-.831-9.036Zm.816,9.667.757,8.946h-14.2l-.823-8.946Zm.81,9.571.741,8.856h-14.137l-.816-8.856Zm.8,9.475.742,8.768H1684.8l-.806-8.768Zm.793,9.38.733,8.682h-14l-.8-8.682Zm.2-9.38h14.133l.671,8.768H1699.86Zm14.853,9.38.663,8.682h-14l-.729-8.682Zm.274-9.38h14.134l.592,8.768H1714.91Zm14.775,9.38.594,8.682h-14l-.659-8.682Zm.351-9.38h14.133l.529,8.768h-14.064Zm14.7,9.38.524,8.682h-14l-.593-8.682Zm.426-9.38h14.134l.458,8.768h-14.068Zm14.624,9.38.455,8.682h-14l-.52-8.682Zm.009-18.855h14.205l.394,8.856h-14.139Zm14.625,9.475.391,8.767h-14.068l-.453-8.767Zm.16-19.045h14.274l.326,8.945h-14.209Zm14.908-10.305-.327-9.128h14.42l.26,9.128Zm14.371.638.256,9.036h-14.281l-.325-9.036Zm-14.658,19.238.323,8.856h-14.136l-.388-8.856Zm.345,9.475.319,8.768h-14.067l-.385-8.768Zm.311-19.045h14.276l.254,8.945h-14.207Zm14.549,9.571.25,8.856h-14.137l-.317-8.856Zm.267,9.475.249,8.768h-14.065l-.316-8.768Zm14.533-29.35h-14.352l-.256-9.128h14.421Zm-.2-9.77h-14.424l-.258-9.221h14.5Zm-.2-9.873h-14.5l-.259-9.317h14.568Zm-.2-9.975h-14.574l-.263-9.413h14.644Zm-.4-19.589.194,9.512h-14.649l-.264-9.512Zm-14.637,39.438h-14.426l-.33-9.221h14.493Zm-.282-9.873h-14.5l-.333-9.317h14.569Zm-.281-9.975H1787.77l-.337-9.413h14.644Zm-.555-19.589.27,9.512h-14.65l-.341-9.512Zm-14.681,29.565h-14.5l-.408-9.317h14.571Zm-.363-9.975h-14.574l-.412-9.413H1786.4Zm-.712-19.589.346,9.512H1771.73l-.416-9.512ZM1771.59,271.17h-14.5l-.484-9.317h14.573Zm-.445-9.975h-14.576l-.488-9.413h14.645Zm-.87-19.589.421,9.512h-14.65l-.494-9.512Zm-14.731,19.589h-14.576l-.562-9.413h14.646Zm-1.024-19.589.5,9.512h-14.651l-.569-9.512Zm-14.573,19.589h-14.576l-.639-9.413h14.645Zm-1.186-19.589.573,9.512h-14.649l-.648-9.512Zm-14.416,19.589h-14.574l-.715-9.413H1723.7Zm-1.334-19.589.649,9.512h-14.65l-.72-9.512Zm-14.258,19.589h-14.574l-.792-9.413h14.645Zm-1.5-19.589.734,9.5h-14.651l-.8-9.512Zm-14.1,19.589h-14.573l-.867-9.413h14.646Zm-1.655-19.589.8,9.512h-14.649l-.877-9.512Zm-29.522,9.5-.951-9.512h14.721l.878,9.512Zm1.008,10.077-.942-9.413h14.644l.872,9.413Zm1,9.976-.931-9.318h14.568l.861,9.318Zm.988,9.872-.922-9.221h14.5l.852,9.221Zm.978,9.77-.913-9.127h14.419l.844,9.127Zm.967,9.676-.905-9.036h14.349l.836,9.036Zm.958,9.577-.89-8.946h14.275l.828,8.946Zm.949,9.481-.89-8.856h14.2l.821,8.856Zm.936,9.386-.875-8.768h14.131l.811,8.768Zm.93,9.294-.869-8.681h14.062l.8,8.681Zm.06.607h13.992l.8,8.6h-13.928Zm1.772,17.707-.851-8.51H1685.6l.785,8.51Zm13.2-17.707h13.993l.726,8.6h-13.931Zm1.631,17.707-.782-8.51h13.923l.72,8.51Zm13.346-17.707h13.994l.657,8.6h-13.928Zm1.484,17.707-.715-8.51h13.924l.649,8.51Zm13.494-17.707h13.995l.592,8.6h-13.927Zm1.346,17.707-.645-8.51H1730.3l.581,8.51Zm13.63-17.707h13.993l.519,8.6h-13.928Zm1.2,17.707-.577-8.51H1745.2l.514,8.51Zm13.772-17.707h13.995l.444,8.6h-13.929Zm1.059,17.707-.51-8.51H1760.1l.444,8.51Zm13.435-27h14.063l.386,8.681h-14Zm.48,9.288h13.994l.382,8.6h-13.93Zm.917,17.707-.444-8.51H1775l.378,8.51Zm13.654-27h14.062l.314,8.681h-14Zm.408,9.288h13.992l.311,8.6h-13.927Zm.775,17.707-.373-8.51H1789.9l.311,8.51Zm13.868-27h14.062l.245,8.681h-13.994Zm.332,9.288h13.992l.244,8.6h-13.929Zm.636,17.707-.307-8.51h13.925l.24,8.51Zm13.82-36.375h14.134l.178,8.768h-14.067Zm.261,9.38h14.063l.176,8.681h-14Zm.257,9.288h14l.173,8.6h-13.927Zm.495,17.707-.236-8.51h13.923l.174,8.51Zm13.737-55.42h14.274l.111,8.946h-14.207Zm.191,9.572h14.2l.109,8.855h-14.136Zm.188,9.474h14.134l.107,8.768h-14.067Zm.187,9.38h14.061l.107,8.681h-14Zm.184,9.288H1834.5l.107,8.6h-13.929Zm.35,17.707-.169-8.51h13.924l.1,8.51Zm13.837-84.72h14.493l.041,9.221H1834.8Zm.116,9.864h14.42l.038,9.127h-14.353Zm.114,9.77h14.349l.038,9.036h-14.28Zm.114,9.667h14.277l.037,8.946h-14.208Zm.113,9.571h14.2l.039,8.856h-14.137Zm.114,9.475H1849.4l.037,8.768h-14.06Zm.109,9.38h14.062l.036,8.681h-14Zm.11,9.288h13.992l.037,8.6h-13.928Zm.209,17.707-.1-8.51h13.925l.036,8.51Zm28.7,0h-13.861l-.033-8.51h13.924Zm.033-9.113H1850.5l-.031-8.6h13.992Zm.033-9.207h-14l-.034-8.68h14.065Zm.035-9.293h-14.067l-.032-8.768h14.132Zm.036-9.387h-14.139l-.033-8.855h14.2Zm.035-9.481h-14.21l-.033-8.945h14.276Zm.037-9.577h-14.282l-.033-9.035h14.349Zm.036-9.675h-14.353l-.035-9.128h14.423Zm.037-9.771h-14.428l-.035-9.221h14.5Zm.035-9.873h-14.5l-.036-9.317h14.571Zm.039-9.975h-14.575l-.035-9.413h14.645Zm.038-10.078H1850.13l-.035-9.511h14.724Zm14.438,105.425h-13.861l.037-8.51h13.924Zm.107-9.113H1865.4l.038-8.594h13.992Zm.109-9.206h-14l.038-8.681h14.063Zm.108-9.294h-14.069l.039-8.768h14.134Zm.109-9.386h-14.138l.039-8.856h14.2Zm.113-9.48h-14.21l.038-8.946h14.278Zm.112-9.577H1865.6l.038-9.036h14.348Zm.115-9.676h-14.353l.039-9.127H1880.1Zm-14.312-9.771.04-9.221h14.5l-.109,9.221Zm28.374,75.5h-13.863l.105-8.51h13.927Zm.18-9.112h-13.931l.106-8.6H1894.4Zm.183-9.207h-14l.109-8.681h14.06Zm.181-9.293h-14.068l.108-8.769h14.134Zm.188-9.387h-14.14l.108-8.855h14.2Zm-14.024-9.481.11-8.946h14.276l-.177,8.946Zm28.124,46.475h-13.861l.174-8.51h13.923Zm.254-9.113h-13.928l.174-8.594h13.992Zm.255-9.206h-14l.176-8.681h14.063Zm-13.808-9.294.179-8.768H1909.9l-.242,8.768Zm28.133,27.607h-13.86L1910.1,348h13.923Zm.327-9.112h-13.928l.244-8.6h13.992Zm.328-9.207h-14l.247-8.681h14.06Zm14.178,18.314H1924.7l.308-8.51h13.925Zm.4-9.113h-13.926l.313-8.594h13.992Zm-13.591-9.206.315-8.681h14.063l-.382,8.681Zm28.027,18.314h-13.861l.379-8.51h13.923Zm.471-9.113h-13.928l.382-8.6h13.993Zm-13.52-9.207.386-8.68h14.061l-.444,8.68Zm27.879,18.314h-13.863l.446-8.51h13.925Zm-13.383-9.113.446-8.594h13.992l-.512,8.594Zm28.217,9.113h-13.861l.514-8.51h13.924Zm-13.31-9.113.519-8.594h13.993l-.582,8.594Zm28.145,9.113h-13.859l.582-8.51h13.923Zm-13.236-9.113.594-8.594h13.994l-.654,8.594Zm28.07,9.113H1998.86l.652-8.51h13.923Zm-13.163-9.113.658-8.594h13.992l-.721,8.594Zm28,9.113h-13.861l.718-8.51h13.926Zm-13.089-9.113.726-8.594h13.991l-.788,8.594Zm27.923,9.113h-13.859l.788-8.51h13.923Zm.912-9.113h-13.927l.8-8.594h13.992Zm.919-9.206h-13.991l.8-8.681h14.063Zm.93-9.294h-14.068l.812-8.768h14.133Zm.937-9.386h-14.136l.819-8.856h14.2Zm.949-9.481h-14.21l.828-8.946h14.274Zm.957-9.577h-14.28l.837-9.036H2048.9Zm.969-9.676H2034.61l.844-9.127h14.42Zm.977-9.77h-14.425l.853-9.221h14.5Zm.988-9.872h-14.5l.863-9.318h14.568Zm1-9.976H2037.35l.87-9.413h14.644Zm1.007-10.077h-14.649l.881-9.512h14.721Z" transform="translate(-1584.651 -218.349)" fill="#fff"/>
    <path id="Trazado_12576" data-name="Trazado 12576" d="M1683.3,360.478,1672.46,241.467l-.59-.178.43,4.715-4.676-.809-3.845-.665-.077-.872-.449-4.969-.622-.187.445,4.968.084.955-9-1.556-.188-2.145-.44-4.967-.659-.193.44,4.966.2,2.23-9.523-1.648-.3-3.49-.421-4.822,1.3.255-5.456-1.648-6.685-1.318-.011-.119-.052-.6-.736-.222.069.8-10.714-2.112-.165-1.945-.784-.237.172,2.029-6.852-1.351-1.525-.3-3.01-.592-.133-1.617-.2-2.4h-.813l.16,1.939.159,1.91-3.768-.742v.633l3.821.747.751,9.113-4.573-.792v.637l4.628.794.753,9.132-5.38-.8v.643l5.435.8.758,9.154-6.193-.769v.646l6.245.768.759,9.179-7-.7v.651l7.056.691.761,9.2-7.816-.581v.655l7.87.581.764,9.227-8.633-.43v.661l8.685.42.764,9.252-9.452-.235v.665l9.507.22.765,9.279-10.276,0v.67l10.327-.023.77,9.3-11.1.291v.679l11.151-.307.771,9.324-11.921.615v.679l11.974-.639.773,9.349-12.038.933-.709-8.717v10.857l.673,8.29-.673.07v.688l.722-.076.788,9.715-1.514.193v.693l1.569-.2.789,9.74-2.358.367v.7l2.414-.38.789,9.753v.015l-.481.088-2.722.5v.078l-.023.006.023.034v.582l.374-.069,2.885-.532.15,1.848.146,1.8h.885l-.16-1.981-.15-1.825,11.772-2.168.229-.041.125,1.5.814-.173-.122-1.479,11.25-2.073.1,1.177.765-.161-.1-1.158,10.57-1.946.073.872.72-.152-.074-.854,9.95-1.832.05.581.678-.143-.05-.569,9.374-1.727.028.317.639-.134-.027-.3,8.857-1.632v.062l.6-.127v-.045l1.7-.315,5.492-1.164,1.743-.367Zm-1.144-6.173-1.429.223-6.963,1.085-.722-8.094,6.744-.885,1.656-.218Zm-48.825-105.39.739,8.612-10.687-1.328-.747-8.858Zm-10.75-2.195-.745-8.838,10.706,1.836.734,8.591Zm28.648,85.134.743,8.547L1642,341.434l-.755-8.789Zm-10.041.173-.755-8.766,10-.533.742,8.526Zm10.723-.227,9.42-.745.736,8.3-9.41.969Zm-.052-.6-.744-8.51,9.43-.5.734,8.282Zm-.8-9.107-.74-8.489,9.438-.26.732,8.263Zm-.794-9.085-.739-8.469,9.452-.019.722,8.24Zm-.791-9.062-.737-8.45,9.458.22.722,8.225Zm-.789-9.043-.736-8.428,9.471.458.722,8.206Zm-.789-9.02-.732-8.409,9.48.693.722,8.187Zm-.786-9-.731-8.387,9.49.93.72,8.168Zm-.784-8.977-.721-8.368,9.5,1.163.721,8.15Zm-.687-.069-10.055-1-.742-8.617,10.069,1.235Zm.053.59.731,8.4-10.049-.753-.74-8.637Zm.782,9,.738,8.425-10.043-.5-.742-8.658Zm.786,9.016.737,8.444-10.032-.248-.745-8.681Zm.789,9.038.737,8.465-10.019.005-.747-8.7Zm.789,9.06.742,8.484-10.011.26-.75-8.725Zm.794,9.082.743,8.505-10,.516-.753-8.744Zm-9.175,18.458-10.612.821-.762-9.039,10.619-.566Zm.052.618.754,8.805-10.6,1.1-.764-9.064Zm.808,9.426.758,8.828-10.592,1.372-.766-9.084Zm.722-.076,9.979-1.049.748,8.567-9.972,1.292Zm10.661-1.12,9.41-.989.737,8.322-9.4,1.218Zm10.053-1.057,8.89-.935.722,8.09-8.879,1.151Zm-.052-.581-.734-8.286,8.9-.7.722,8.072Zm-.786-8.868-.733-8.267,8.912-.475.72,8.053Zm-.784-8.85-.733-8.246,8.923-.246.72,8.035Zm-.783-8.821-.722-8.228,8.934-.02.72,8.017Zm-.778-8.806-.722-8.21,8.942.207.721,8Zm-.78-8.787-.722-8.191,8.951.432.722,7.98Zm-.776-8.765-.722-8.172,8.959.657.722,7.962Zm-.775-8.745-.722-8.154,8.969.881.721,7.944Zm-.772-8.725-.722-8.134,8.981,1.1.712,7.928Zm-.773-8.7-.722-8.116,8.988,1.322.712,7.91Zm-.65-.081-9.5-1.181-.72-8.349,9.51,1.4Zm-10.188-1.267-10.066-1.251-.739-8.595,10.075,1.482Zm-10.742-.735.741,8.633-10.678-1.067-.751-8.88Zm.794,9.24.74,8.654-10.668-.8-.75-8.9Zm.792,9.264.743,8.675-10.659-.532-.753-8.926Zm.8,9.286.745,8.7-10.651-.263-.753-8.949Zm.8,9.306.751,8.725h-10.637l-.758-8.971Zm.8,9.334.748,8.739-10.637.276-.758-8.992Zm.8,9.353.75,8.763-10.62.548-.761-9.016Zm-10.587,9.985.764,9.059-8.956.692-2.344.182-.772-9.331,3.107-.166Zm-8.192,10.408,9.014-.713.769,9.081-9.775,1.012-1.508.155-.775-9.354Zm0,10.041,9.83-1.032.767,9.1-10.6,1.372-.676.088-.776-9.377Zm0,10.11,10.65-1.4.769,9.129-11.263,1.756-.156-1.894-.625-7.511Zm11.417-1.5,10.592-1.39.758,8.85-10.58,1.648Zm11.312-1.484,9.969-1.31.75,8.589-9.961,1.551Zm10.65-1.4,9.4-1.234.739,8.337-9.391,1.464Zm10.041-1.318,8.881-1.163.722,8.11-8.87,1.383Zm17.837-2.9-1.67.216-6.73.873-.721-8.076,6.508-.684,1.9-.2Zm-.766-8.423-1.919.195-6.489.67-.722-8.056,6.274-.5,2.146-.171Zm-.765-8.406-2.162.168-6.26.484-.72-8.038,6.035-.322,2.393-.127Zm-.762-8.386-2.412.125-6.021.31-.72-8.02,5.8-.16,2.641-.073Zm-.761-8.367-2.657.07-5.786.15-.72-8,5.56-.013,2.885-.005Zm-.758-8.349h-8.452l-.722-7.985,5.321.123,3.142.073Zm-.761-8.331-3.156-.079-5.305-.132-.722-7.967,5.082.246,3.393.163Zm-.756-8.313-3.409-.17-5.063-.254-.722-7.949,4.839.354,3.643.267ZM1675.3,279l-3.66-.275-4.813-.363-.72-7.93,4.593.45,3.9.383Zm-.753-8.277-3.914-.388-4.579-.456-.71-7.912,4.349.534,4.147.508Zm-.751-8.257-4.166-.517-4.336-.54-.707-7.894,4.106.606,4.4.646Zm-6.11-16.719,4.659.8.7,7.684-4.422-.658-4.091-.608-.706-7.877Zm-4.465-.772.711,7.891-8.989-1.336-.722-8.1Zm-9.648-1.653.72,8.111-9.509-1.413-.722-8.331Zm-9.477,6.592-10.075-1.5-.737-8.575,10.085,1.73Zm-1.506-17.255.415,4.75.312,3.579-10.086-1.745-.421-4.91-.312-3.644Zm-13.768-2.693,2.943.575.307,3.567.429,5-10.706-1.852-.542-6.418-.074-.872-.128-1.52Zm-19.187,5.191-.753-9.091,2.42.475,3.873.758,5.1,1,.141,1.67.056.641.54,6.519-.88-.151Zm.806,9.753-.753-9.113,10.456,1.791.93.161.747,8.853-1.678-.249Zm.809,9.777-.755-9.136,9.643,1.419,1.732.256.746,8.874-2.478-.308Zm.814,9.8-.759-9.16,8.834,1.085,2.524.31.75,8.9-3.281-.327Zm.811,9.828-.759-9.184,8.021.786,3.336.327.751,8.918-4.084-.308Zm.815,9.855-.764-9.209,7.212.526,4.146.3.754,8.944-4.894-.244Zm.818,9.882-.764-9.232,6.395.308,4.944.239.756,8.967-5.7-.142Zm.82,9.906-.783-9.253,5.576.129,5.755.134.759,8.988h-11.307Zm.822,9.932-.77-9.28,4.755-.012,6.566-.013.759,9.016-7.323.193Zm.826,9.958-.77-9.306,3.932-.109,7.376-.2.761,9.036-8.141.42Zm-11.2,21.328-.783-9.666,12.042-.952.775,9.375Zm.844,10.373-.786-9.694,12.029-1.26.778,9.4Zm.054.679,12.023-1.577.778,9.425-12.013,1.873Zm13.461,17.991-11.828,2.158v-.038l-.8-9.7,12.014-1.894.606,7.342.142,1.727.031.382Zm.991-.181-.034-.4-.747-9.024,11.262-1.776.711,8.426.06.726Zm12.02-2.193-.064-.749-.706-8.386,10.581-1.668.67,7.823.091,1.049Zm11.29-2.059-.092-1.067-.667-7.785,9.959-1.571.631,7.257.119,1.357Zm10.636-1.939-.119-1.374-.628-7.22,9.389-1.48.595,6.722.144,1.64Zm10.022-1.83-.146-1.659-.593-6.689,8.87-1.4.56,6.217.169,1.91Zm16.661-3.039-7.2,1.312-.18-1.928-.556-6.185,6.977-1.1,1.414-.223.523,5.739.2,2.166Z" transform="translate(-1604.2 -221.397)" fill="#fff"/>
    <path id="Trazado_12577" data-name="Trazado 12577" d="M2041.648,377.2v-.078l-2.722-.5-.482-.088v-.015l.791-9.752,2.411.38v-.7l-2.358-.367.79-9.741,1.567.205v-.693l-1.512-.193.789-9.714.72.076v-.688l-.672-.07.672-8.29V326.115l-.708,8.717-12.042-.932.775-9.35,11.974.64v-.679l-11.919-.615.772-9.325,11.148.308V314.2l-11.1-.291.77-9.3,10.324.023v-.669l-10.276-.005.767-9.278,9.5-.22v-.665l-9.451.234.764-9.251,8.687-.42v-.662l-8.634.431.763-9.227,7.871-.581v-.655l-7.818.581.761-9.2,7.054-.692v-.651l-7,.7.761-9.178,6.246-.766V253.8l-6.192.769.758-9.154,5.434-.8v-.644l-5.382.8.755-9.132,4.627-.794v-.637l-4.574.792.751-9.112,3.821-.747v-.634l-3.768.742.158-1.91.161-1.939h-.813l-.2,2.4-.133,1.616-3.009.592-1.526.3-6.85,1.351.171-2.029-.784.236-.165,1.946-10.714,2.112.069-.8-.737.222-.052.6-.009.119-6.686,1.318-5.454,1.647,1.3-.255-.419,4.822-.3,3.49-9.523,1.648.2-2.23.44-4.965-.659.193-.44,4.967-.19,2.144-9,1.557.085-.956.446-4.967-.623.187-.448,4.968-.078.873-3.844.665-4.675.808.428-4.715-.59.178-10.839,119.011-.019.174-.215,2.369-.018.174.722.152,1.019.187,5.512,1.015,1.7.315v.045l.6.127v-.061l8.859,1.632-.026.3.637.135.028-.317,9.375,1.727-.051.568.675.144.053-.581,9.95,1.832-.075.854.722.152.075-.873,10.57,1.947-.1,1.158.764.161.1-1.177,11.251,2.072-.122,1.479.814.174.122-1.5.232.042,11.772,2.168-.148,1.825-.014.174-.145,1.806h.884l.133-1.622.013-.174.15-1.849,2.14.394.741.139.377.069v-.581l.025-.034Zm-3.231-11.25-12.012-1.874.778-9.425,12.023,1.577ZM2023.242,247.34l-.748,8.858-10.687,1.328.739-8.612Zm-10.645.969.737-8.591,10.7-1.836-.745,8.838Zm-17.9,82.944.741-8.526,10,.533-.755,8.766Zm9.936,1.389-.755,8.789L1993.9,340.4l.744-8.547Zm-9.142-10.513.742-8.505,10.009.276-.751,8.744Zm.793-9.1.741-8.484,10.021.022-.75,8.725Zm.794-9.079.737-8.465,10.029-.233-.747,8.7Zm.789-9.059.737-8.444,10.038-.485-.747,8.682Zm.787-9.038.736-8.425,10.049-.736-.743,8.658Zm.789-9.016.731-8.4,10.058-.985-.741,8.637Zm.786-8.993.72-8.385,10.068-1.235-.741,8.617Zm-.687.069-9.491.947.72-8.15,9.5-1.164Zm-.05.589-.733,8.388-9.479.711.722-8.168Zm-.784,8.979-.734,8.408-9.471.474.72-8.187Zm-.786,9-.736,8.428-9.463.236.722-8.207Zm-.789,9.021-.734,8.45-9.452-.005.72-8.226Zm-.789,9.043-.737,8.469-9.443-.245.721-8.24Zm-.789,9.064-.742,8.489-9.432-.485.733-8.263Zm-.794,9.086-.742,8.51-9.422-.729.734-8.283Zm-.795,9.113-.744,8.53-9.413-.969.736-8.3Zm-.8,9.131-.747,8.551-9.4-1.219.737-8.321Zm.684.071,9.977,1.049-.755,8.812-9.971-1.293Zm10.7,1.126,10.6,1.113-.767,9.084-10.589-1.371Zm.053-.621.753-8.806,10.609.839-.764,9.064Zm.808-9.424.755-8.785,10.619.567-.763,9.038Zm11.326,1.517,9.014.713,2.282.181-.775,9.354-1.509-.155-9.775-1.011Zm9.014.056-8.956-.693.767-9.058,8.189.436,3.109.166-.772,9.33Zm-8.909-10.427-10.62-.548.75-8.763,10.636.291Zm-9.812-9.926.748-8.74,10.636.022-.759,8.993Zm.8-9.353.75-8.725,10.648-.247-.756,8.971Zm.8-9.333.744-8.7,10.658-.516-.754,8.949Zm.8-9.306.742-8.675,10.669-.782-.753,8.926Zm.792-9.285.743-8.654,10.678-1.047-.753,8.9Zm.8-9.262.742-8.632,10.687-1.312-.75,8.879Zm.064-9.148-10.068,1.251.721-8.364,10.075-1.482Zm-10.755,1.335-9.5,1.182.722-8.131,9.512-1.4Zm-10.149,1.26-8.981,1.116.711-7.91,8.987-1.322Zm-.05.571-.722,8.134-8.969.894.712-7.928Zm-.772,8.706-.722,8.154-8.961.669.72-7.943Zm-.772,8.725-.721,8.172-8.95.447.72-7.962Zm-.776,8.746-.722,8.191-8.942.222.722-7.98Zm-.776,8.768-.721,8.21h-8.931l.72-8Zm-.78,8.787-.722,8.228-8.921-.232.722-8.017Zm-.781,8.807-.731,8.247-8.912-.459.721-8.035Zm-.785,8.829-.729,8.267-8.9-.69.722-8.052Zm-.784,8.849-.734,8.287-8.89-.92.72-8.071Zm-.786,8.871-.737,8.305-8.88-1.15.722-8.09Zm-.788,8.89-.739,8.326-8.87-1.383.721-8.11Zm.642.085,9.4,1.234-.747,8.572-9.395-1.463Zm10.08,1.324,9.97,1.31-.759,8.832-9.961-1.551Zm10.69,1.4,10.592,1.39-.77,9.112-10.58-1.648Zm11.358,1.49,10.65,1.4.622.082-.622,7.511-.158,1.893-11.262-1.756Zm10.65.733-10.595-1.372.767-9.1,9.828,1.033,1.453.153-.776,9.377Zm13.521,1.751L2027.254,354l.776-9.4,12.031,1.26Zm1.622-20.039-.781,9.667-12.032-1.244.775-9.374Zm-11.977-11.658-3.162-.163-8.139-.42.761-9.036,7.378.2,3.932.11Zm.823-9.958-3.985-.1-7.325-.193.761-9.016,6.564.013,4.756.012Zm.824-9.933h-11.32l.759-8.988,5.752-.134,5.576-.128Zm.822-9.906-5.631.141-5.7.141.753-8.967,4.947-.239,6.395-.308Zm.816-9.88-6.446.321-4.892.244.751-8.944,4.147-.3,7.211-.526Zm.817-9.855-7.264.542-4.084.308.75-8.918,3.333-.327,8.023-.787Zm.814-9.829-8.074.8-3.281.327.748-8.9,2.524-.31,8.834-1.084Zm.811-9.8-8.886,1.1-2.48.308.747-8.874,1.73-.255,9.643-1.42Zm.811-9.778-9.7,1.443-1.678.248.747-8.853.932-.161,10.457-1.791Zm-10.028-14.3.055-.64.141-1.671,5.1-1,3.876-.758,2.419-.474-.753,9.09-10.5,1.818-.88.151Zm-11.6,3.5.307-3.566,2.942-.575,7.772-1.52-.13,1.52-.074.872-.541,6.418-10.706,1.852Zm-10.933,3.3.414-4.75,10.1-1.974-.313,3.645-.421,4.909-10.085,1.745Zm-.36,4.163,10.086-1.73-.737,8.576-10.075,1.5Zm-10.208,1.745,9.521-1.632-.721,8.33-9.509,1.413Zm-9.648,1.653,9-1.542-.722,8.1-8.989,1.337Zm-9.135,1.566,4.659-.8,3.86-.663-.708,7.877-4.091.608-4.422.657Zm-.748,8.223,4.4-.647,4.1-.6-.708,7.894-4.336.54-4.166.517Zm-.75,8.24,4.147-.507,4.349-.534-.709,7.912-4.581.456-3.914.388Zm-.751,8.26,3.9-.382,4.6-.451-.722,7.93-4.82.36-3.66.276Zm-.755,8.277,3.644-.267,4.837-.353-.721,7.949-5.064.253-3.406.171Zm-.756,8.295,3.392-.163,5.08-.246-.722,7.967-5.3.131-3.156.08Zm-.756,8.314,3.142-.073,5.321-.123-.722,7.985h-8.453Zm-.758,8.332,2.885.006,5.559.013-.72,8-5.786-.151-2.658-.07Zm-.758,8.351,2.641.073,5.8.16-.722,8.021-6.019-.311-2.413-.124Zm-.764,8.369,2.4.127,6.035.322-.72,8.038-6.257-.485-2.164-.167Zm-.764,8.387,2.148.171,6.273.5-.72,8.056-6.491-.67-1.918-.193Zm-.764,8.407,1.9.2,6.509.684-.721,8.075-6.728-.872-1.673-.216Zm-.769,8.424,1.659.218,6.744.886-.722,8.094-6.964-1.086-1.428-.222Zm6.9,17.879-7.2-1.313-1.183-.216.181-1.992.016-.174.523-5.739,1.414.223,6.975,1.1-.554,6.184-.017.174Zm9.465,1.727-8.879-1.611.157-1.736.014-.173.561-6.217,8.87,1.4-.593,6.689-.014.174Zm10.02,1.829-9.376-1.712.129-1.466.017-.173.595-6.722,9.39,1.479-.629,7.221-.014.174Zm10.636,1.939-9.95-1.815.1-1.179.016-.174.633-7.257,9.958,1.571-.667,7.785-.017.173Zm11.288,2.06-10.572-1.929.078-.872.014-.174.67-7.823,10.581,1.668-.706,8.386-.015.173Zm12.02,2.193-11.253-2.054.047-.552.014-.174.708-8.426,11.265,1.776-.747,9.024-.016.173Zm.991.181-.18-.032.017-.208.014-.174.142-1.727.606-7.341,12.013,1.895-.787,9.706v.039l-4.751-.867Z" transform="translate(-1496.039 -221.4)" fill="#fff"/>
    <path id="Trazado_12578" data-name="Trazado 12578" d="M2139.717,224.73l1.709-.59,7.21-2.488h1.16v-.235H1604.217v.232h1.141l7.223,2.5,1.874.644h.012l6.23,2.151h-16.482v.35h17.495l10.074,3.476,3.523,1.215H1619.39l.805.312h16.016l12.13,4.186H1631.3l-1.663-.53,5.7,2.205h0l7.4,2.365h-1.289l.647.251h1.426l10.62,3.394h-3.279l.585.227h451.134l.583-.227h-3.3l10.619-3.394h1.447l.648-.251h-1.311l7.518-2.4h0l5.707-2.21-1.794.576h-17.047l12.134-4.186h16.034l.806-.312h-15.941l3.523-1.215,10.073-3.477H2149.8v-.349h-16.5l6.42-2.217Zm-14.178-3.075L2111.5,226.95h-19.1l12.893-5.295ZM1695.109,232.3h17.958l8.26,4.186h-17.045Zm7.964,4.186h-17.045l-10.133-4.186h17.95Zm11.249-4.186h17.949l7.292,4.186h-17.045Zm19.213,0h17.95l6.325,4.186h-17.047Zm19.212,0H1770.7l5.357,4.186h-17.049Zm19.213,0h17.958l4.386,4.186h-17.048Zm19.211,0h17.959l3.419,4.186H1795.5Zm19.213,0h17.953l2.451,4.186H1813.74Zm19.213,0h17.95l1.484,4.186h-17.045Zm-.176-.311-.694-1.215-1.982-3.477h19.031l1.229,3.477.431,1.215Zm-1.978-1.215.711,1.215h-18.018l-.974-1.215-2.786-3.477h19.031Zm-19.567,0,.995,1.215H1790.85l-1.255-1.215L1786,227.3h19.031Zm-19.565,0,1.273,1.215h-18.018l-1.538-1.215-4.4-3.477h19.035Zm-19.567,0,1.556,1.215h-18.019l-1.815-1.215-5.2-3.477H1764.3Zm-19.565,0,1.835,1.215h-18.018l-2.1-1.215-6-3.477h19.03Zm-19.566,0,2.118,1.215h-18.017l-2.379-1.215-6.807-3.477h19.032Zm-19.565,0,2.4,1.215h-18.02l-2.66-1.215-7.609-3.477h19.031Zm-19.564,0,2.678,1.215h-18.018l-2.942-1.215-8.414-3.477h19.031Zm-19.566,0,2.96,1.215H1655.86l-3.229-1.215-9.221-3.477h19.031Zm3.715,1.526,10.2,4.186h-17.046l-11.1-4.186Zm2.72,8.224h-16.174l-10.836-3.759h16.988Zm-8.829-3.759h16.985l9.155,3.759h-16.178Zm18.179,0h16.99l8.287,3.759H1695.8Zm18.179,0h16.985l7.418,3.759h-16.174Zm18.18,0h16.985l6.548,3.759H1730.42Zm18.181,0h16.985l5.678,3.759h-16.175Zm18.18,0h16.986l4.81,3.759h-16.177Zm18.18,0h16.989l3.939,3.759h-16.172Zm18.181,0h16.986l3.074,3.759h-16.177Zm18.179,0h16.995l2.2,3.759h-16.174Zm18.18,0h16.988l1.332,3.759h-16.174Zm18.181,0h16.988l.46,3.759h-16.175Zm17.159-9.468h19.031l-.375,3.477L1886,231.99h-18.018l-.131-1.214Zm19.2,9.468h16.986l-1.275,3.759h-16.175Zm18.179,0h16.988l-2.151,3.759h-16.175Zm40.009-4.465h17.951l-4.325,4.186h-17.045Zm-4.611,4.186h-17.045l2.452-4.186h17.951Zm23.824-4.186h17.951l-5.293,4.186h-17.047Zm19.213,0h17.95l-6.26,4.186h-17.048Zm19.212,0h17.951l-7.225,4.186h-17.051Zm19.213,0h17.953l-8.2,4.186h-17.049Zm19.212,0h17.951l-9.164,4.186h-17.046Zm19.213,0h17.948l-10.133,4.184h-17.045Zm.686-.312,2.677-1.214,7.664-3.477H2090.2l-8.41,3.474-2.942,1.215Zm1.393-1.214-2.658,1.214h-18.019l2.4-1.214,6.86-3.477h19.033Zm-19.565,0-2.379,1.214h-18.02l2.118-1.214,6.054-3.477h19.034Zm-19.567,0-2.1,1.214h-18.018l1.835-1.214,5.252-3.477h19.031Zm-19.566,0-1.817,1.214h-18.017l1.553-1.214,4.446-3.477h19.031Zm-19.566,0-1.536,1.214h-18.017l1.272-1.214,3.642-3.477h19.031Zm-19.563,0-1.256,1.214h-18.018l.993-1.214,2.84-3.477h19.031Zm-19.565,0-.974,1.214h-18.02l.712-1.214,2.036-3.477h19.027Zm-19.566,0-.693,1.214h-18.018l.43-1.214,1.23-3.477h19.032Zm-.87,1.526-2.387,4.186h-17.047l1.484-4.186Zm-1.353,4.465h16.987l-3.014,3.759h-16.172Zm18.179,0h16.987l-3.882,3.759h-16.175Zm18.18,0h16.986l-4.751,3.759h-16.172Zm18.18,0h16.986l-5.62,3.759h-16.174Zm18.181,0h16.988l-6.492,3.759h-16.175Zm18.18,0h16.989l-7.361,3.759H2007.4Zm18.181,0h16.989l-8.229,3.759h-16.175Zm18.182,0h16.985l-9.1,3.759h-16.176Zm18.178,0h16.987l-9.966,3.759h-16.174Zm18.18,0h16.985l-10.835,3.759H2076.64Zm-.462-.279h-17.045l10.2-4.186h17.964Zm-6.093-4.5,2.961-1.214,8.466-3.477h19.031l-9.221,3.477-3.228,1.214Zm23.748-10.335-12.812,5.295h-19.107l11.667-5.295Zm-21.671,0L2070.6,226.95h-19.109l10.444-5.295Zm-21.671,0-10.365,5.295h-19.107l9.221-5.295Zm-21.672,0-9.14,5.295h-19.108l7.992-5.295Zm-21.671,0-7.916,5.295h-19.108l6.772-5.295Zm-21.673,0-6.693,5.295H1969.7l5.548-5.295Zm-21.671,0-5.467,5.295h-19.109l4.323-5.295Zm-21.672,0-4.243,5.295H1928.8l3.1-5.295Zm-21.671,0-3.021,5.295h-19.119l1.876-5.295Zm-41.926,0h20.251l-1.8,5.295H1887.9Zm-1.124,9.119.428-3.477h19.022l-1.179,3.477-.414,1.215h-18.02ZM1905.2,232.3l-1.42,4.186h-17.06l.516-4.186Zm-18.063-10.647-.573,5.295h-19.118l-.573-5.295Zm-19.845,14.833h-17.046l-1.419-4.186h17.949Zm-.7-5.712.154,1.215H1848.72l-.414-1.215-1.178-3.477h19.031Zm-1.124-9.119.654,5.295h-19.109l-1.795-5.295Zm-21.671,0,1.875,5.295h-19.107l-3.021-5.295Zm-21.672,0,3.1,5.295h-19.109l-4.241-5.295Zm-21.671,0,4.323,5.295h-19.126l-5.468-5.295Zm-21.672,0,5.551,5.295h-19.109l-6.692-5.295Zm-21.671,0,6.772,5.295h-19.108l-7.915-5.295Zm-21.673,0,7.993,5.295h-19.136l-9.141-5.295Zm-21.671,0,9.223,5.295h-19.138l-10.365-5.295Zm-21.671,0,10.452,5.295h-19.109l-11.589-5.295Zm-21.672,0,11.669,5.295h-19.106l-12.813-5.295Zm-21.671,0,12.892,5.295h-19.106l-14.037-5.295Zm-41.929,0h20.254l14.117,5.295h-19.109Zm26.292,9.119-10.021-3.477h19.032l9.271,3.477,3.239,1.215h-18.02Zm4.4,1.526h17.919l11.163,4.186h-17.048Zm-5.31,4.465h16.987l10.893,3.759H1643.9Zm23.055,7.4-10.568-3.393h16.123l9.837,3.393Zm16.467,0-9.783-3.393h16.123l9.049,3.393Zm16.47,0-9-3.393h16.12l8.265,3.393Zm16.47,0-8.213-3.393h16.12l7.479,3.393Zm16.467,0-7.429-3.393h16.119l6.7,3.393Zm16.467,0-6.644-3.393h16.081l5.911,3.393Zm16.469,0-5.859-3.393h16.12l5.125,3.393Zm16.467,0-5.072-3.393h16.123l4.34,3.393Zm16.469,0-4.291-3.393h16.124l3.554,3.393Zm16.47,0-3.506-3.393h16.082l2.766,3.393Zm16.467,0-2.721-3.393h16.12l1.987,3.393Zm16.467,0-1.937-3.393h16.121l1.2,3.393Zm16.47,0-1.153-3.393h16.12l.418,3.393Zm31.853,0H1869.3l-.366-3.393h16.12Zm.394-3.645H1868.95l-.407-3.759h16.986Zm-16.61-4.038-.453-4.186h17.952l-.453,4.186Zm17.3,7.683.42-3.393h16.121l-1.152,3.393Zm16.469,0,1.2-3.393H1919.6l-1.936,3.393Zm16.471,0,1.986-3.393h16.119l-2.72,3.393Zm16.467,0,2.766-3.393h16.084l-3.506,3.393Zm16.467,0,3.557-3.393h16.12l-4.29,3.393Zm16.469,0,4.34-3.393h16.12l-5.072,3.393Zm16.467,0,5.127-3.393h16.119l-5.859,3.393Zm16.469,0,5.911-3.393h16.079l-6.644,3.393Zm16.469,0,6.694-3.393h16.12l-7.426,3.393Zm16.468,0,7.481-3.393h16.12l-8.214,3.393Zm16.467,0,8.267-3.393h16.12l-9,3.393Zm16.471,0,9.048-3.393h16.079l-9.783,3.393Zm31.852,0h-15.385l9.836-3.393h16.12Zm23.055-7.4-11.7,3.759h-16.218l10.893-3.759Zm-17.376-.279h-17.047l11.163-4.186h17.953Zm16.469-5.712-3.5,1.215h-18.018l3.24-1.215,9.269-3.477h19.031Zm11.028-3.827H2112.84l14.117-5.295h20.251Z" transform="translate(-1604.191 -221.397)" fill="#fff"/>
    <path id="Trazado_12579" data-name="Trazado 12579" d="M1608.505,372.247" transform="translate(-1601.766 -212.773)" fill="#fff"/>
    <path id="Trazado_12580" data-name="Trazado 12580" d="M1687.724,354.855l-4.191.969-1.742.4L1676.3,357.5l-1.7.393-.6.139-8.832,2.046-.639.147-9.358,2.166-.678.156-9.926,2.3-.72.167-10.548,2.439-.764.177-11.229,2.6-.814.19-.36.082-11.625,2.69-.87.2-1.788.413-1.245-1.854-.376-.563-.022-.037.022-.007,2.722-.63.481-.105.869-.2,11.832-2.736.142-.034.814-.187,11.225-2.6.764-.176,10.543-2.439.72-.165,9.916-2.3.678-.157,9.357-2.165.637-.148,8.834-2.044.6-.14,7.114-1.646,1.243-.288.573-.132,2.777-.643Z" transform="translate(-1604.199 -215.874)" fill="url(#linear-gradient)"/>
    <path id="Trazado_12581" data-name="Trazado 12581" d="M2042.641,371.343l-.3.451L2041,373.8l-.964-.223-.872-.2-74.31-17.192-.721-.167-5.013-1.16,1.642-2.456,3.605.834.572.132,8.359,1.934.6.139,8.834,2.046.637.147,9.359,2.165.677.157,9.916,2.3.72.166,10.544,2.439.764.177,11.224,2.6.815.189,7.235,1.673Z" transform="translate(-1497.847 -215.876)" fill="url(#linear-gradient-2)"/>
    <rect id="Rectángulo_5571" data-name="Rectángulo 5571" width="382.983" height="2.472" transform="translate(83.278 137.068)" fill="url(#linear-gradient-3)"/>
    <path id="Trazado_12582" data-name="Trazado 12582" d="M1684.859,362.869h-2.7c-1.292,0-2.38-.513-2.533-1.193a.6.6,0,0,0-.012-.074l-.01-.07-.048-.4-.122-1.024-.077-.607-.055-.463-.7-5.709-.064-.547-.238-1.955-.072-.613-.637-5.229-.064-.548-.362-2.984-.073-.618-.507-4.189-.066-.545-.5-4.117-.075-.624-.369-3.048-.067-.547-.648-5.34-.076-.632-.22-1.806-.066-.546-.809-6.673-.077-.638-.056-.462-.064-.545-.944-7.768-.041-.34-.025-.2-.055-.44-.886-7.321-.067-.545-.163-1.341-.078-.651-.7-5.764-.065-.545-.362-2.995-.078-.657-.5-4.1-.068-.545-.576-4.757-.081-.664-.284-2.322-.064-.544-.8-6.628-.083-.67-.055-.439-.066-.543-.939-7.733-.065-.543-.04-.336-.081-.678-.816-6.713-.064-.542-.046-.363-1.139-.339-1.306-.388-1.442-.427-.623-.186-2.462-.733-1-.3-.684-.206-.612-.182-4.343-1.294-.657-.191-4.67-1.391-.761-.228-4.2-1.249-.7-.208-2.274-.679h0l-6.682-1.991h0l-1.235-.368-.737-.219-9.1-2.712-.943-.281-.781-.232-.783-.234-.329-.1-9.869-2.941.773-.731.257-.244.075-.071.465-.44.346-.329,1.86-1.761.058-.055,2.14.638h.014l3.787,1.131.786.234,1.938.574,1.058.315,7.813,2.328.736.219,1.982.591,3.683,1.1.943.282.136.04,5.454,1.628,7.1,2.115.842.251.36.109.659.191,9.1,2.712.623.185.653.191.761.228,7.21,2.147.59.175,1.879.56.61.182.18.053.016.15.037.3,1.172,9.695.081.677,1.163,9.593.082.67,1.149,9.5.082.663,1.138,9.4.08.657,1.125,9.3.08.65,1.115,9.209.077.643,1.105,9.116.075.638,1.093,9.025.077.631,1.082,8.936.075.624,1.071,8.848.075.618,1.06,8.76.077.613,1.051,8.673.072.607.161,1.322c.1.745-.956,1.394-2.36,1.447C1684.992,362.868,1684.925,362.87,1684.859,362.869Z" transform="translate(-1602.004 -221.036)" fill="#fff"/>
    <path id="Trazado_12583" data-name="Trazado 12583" d="M2037.8,227.355l-11.762,3.5-.945.281-10.93,3.255h-.011l-6.694,2h0l-7.281,2.17-.759.227-9.672,2.883-.611.182-.685.2-1,.3-4.547,1.355-1.307.389-1.112.331-.923,7.618-.082.677-1.163,9.593-.083.67-1.152,9.5-.078.663-1.141,9.4-.081.657-1.129,9.3-.08.651-1.118,9.208-.078.643-1.108,9.115-.077.638-1.094,9.024-.075.632-1.082,8.935-.077.624-1.082,8.847-.075.618-1.061,8.758-.077.613-1.052,8.673-.072.608-.164,1.346c-.1.783-1.368,1.377-2.843,1.327l-2.483-.084c-1.475-.05-2.592-.726-2.5-1.509h0l.132-1.079.071-.608,1.055-8.673.074-.613,1.061-8.758.077-.618,1.082-8.847.073-.624,1.082-8.935.075-.632,1.094-9.024.08-.638,1.106-9.116.08-.643,1.114-9.208.079-.65,1.131-9.3.08-.657,1.141-9.4.08-.663,1.152-9.5.083-.67,1.165-9.593.083-.677,1.177-9.694.036-.3.017-.15.18-.053.611-.183,9.673-2.882.757-.227,11.394-3.4.842-.251,12.686-3.779.944-.282,14.218-4.236,1.06-.316,6.715-2h0l1.952-.582.052.05,2.677,2.534.337.316Z" transform="translate(-1498.227 -221.038)" fill="#fff"/>
    <g id="Grupo_4068" data-name="Grupo 4068" transform="translate(0.025 0.02)">
      <path id="Trazado_12584" data-name="Trazado 12584" d="M1620.118,229.971v150.9h-15.9V221.417l9.13,4.91,1.8.975Z" transform="translate(-1604.216 -221.417)" fill="url(#linear-gradient-4)"/>
      <path id="Trazado_12585" data-name="Trazado 12585" d="M2149.8,221.417l-13.557,9.353H1617.773l-4.23-2.917-1.536-1.066-7.788-5.37Z" transform="translate(-1604.214 -221.417)" fill="url(#linear-gradient-5)"/>
      <path id="Trazado_12586" data-name="Trazado 12586" d="M2018.737,221.417V380.871h-15.908v-150.9Z" transform="translate(-1473.156 -221.417)" fill="url(#linear-gradient-6)"/>
    </g>
  </g>
</svg>
