<svg xmlns="http://www.w3.org/2000/svg" width="20.779" height="20.779" viewBox="0 0 20.779 20.779">
  <g id="Grupo_4094" data-name="Grupo 4094" transform="translate(0)">
    <g id="Grupo_4089" data-name="Grupo 4089">
      <path id="Trazado_12761" data-name="Trazado 12761" d="M1018.35,430.639v-.594h5.343v.594h-5.343Z" transform="translate(-1010.632 -430.045)" fill="#dd1f26" fill-rule="evenodd"/>
      <path id="Trazado_12762" data-name="Trazado 12762" d="M1016.062,431.4v-.594h1.781v.594Z" transform="translate(-1010.125 -430.214)" fill="#dd1f26" fill-rule="evenodd"/>
      <path id="Trazado_12763" data-name="Trazado 12763" d="M1025.216,430.808H1027v.594h-1.781v-.594Z" transform="translate(-1012.154 -430.214)" fill="#dd1f26" fill-rule="evenodd"/>
      <path id="Trazado_12764" data-name="Trazado 12764" d="M1014.536,432.164v-.594h1.187v.594h-1.187Z" transform="translate(-1009.787 -430.383)" fill="#dd1f26" fill-rule="evenodd"/>
      <path id="Trazado_12765" data-name="Trazado 12765" d="M1027.5,431.571h1.187v.594H1027.5v-.594Z" transform="translate(-1012.662 -430.383)" fill="#dd1f26" fill-rule="evenodd"/>
      <path id="Trazado_12766" data-name="Trazado 12766" d="M1013.773,432.927v-.594h.594v.594Z" transform="translate(-1009.618 -430.552)" fill="#dd1f26" fill-rule="evenodd"/>
      <path id="Trazado_12767" data-name="Trazado 12767" d="M1029.03,432.334h.594v.594h-.594v-.594Z" transform="translate(-1013 -430.552)" fill="#dd1f26" fill-rule="evenodd"/>
      <path id="Trazado_12768" data-name="Trazado 12768" d="M1013.011,433.69V433.1h.594v.594Z" transform="translate(-1009.448 -430.722)" fill="#dd1f26" fill-rule="evenodd"/>
      <path id="Trazado_12769" data-name="Trazado 12769" d="M1029.793,433.1h.594v.594h-.594V433.1Z" transform="translate(-1013.169 -430.722)" fill="#dd1f26" fill-rule="evenodd"/>
      <path id="Trazado_12770" data-name="Trazado 12770" d="M1012.248,434.453v-.594h.594v.594Z" transform="translate(-1009.279 -430.891)" fill="#dd1f26" fill-rule="evenodd"/>
      <path id="Trazado_12771" data-name="Trazado 12771" d="M1030.556,433.859h.594v.594h-.594v-.594Z" transform="translate(-1013.338 -430.891)" fill="#dd1f26" fill-rule="evenodd"/>
      <path id="Trazado_12772" data-name="Trazado 12772" d="M1011.485,435.216v-.594h.594v.594Z" transform="translate(-1009.11 -431.06)" fill="#dd1f26" fill-rule="evenodd"/>
      <path id="Trazado_12773" data-name="Trazado 12773" d="M1031.318,434.622h.594v.594h-.594v-.594Z" transform="translate(-1013.507 -431.06)" fill="#dd1f26" fill-rule="evenodd"/>
      <path id="Trazado_12774" data-name="Trazado 12774" d="M1010.722,435.979v-.594h.594v.594Z" transform="translate(-1008.941 -431.229)" fill="#dd1f26" fill-rule="evenodd"/>
      <path id="Trazado_12775" data-name="Trazado 12775" d="M1032.081,435.385h.594v.594h-.594v-.594Z" transform="translate(-1013.677 -431.229)" fill="#dd1f26" fill-rule="evenodd"/>
      <path id="Trazado_12776" data-name="Trazado 12776" d="M1010.553,436.148v1.187h-.594v-1.187Z" transform="translate(-1008.772 -431.398)" fill="#dd1f26" fill-rule="evenodd"/>
      <path id="Trazado_12777" data-name="Trazado 12777" d="M1032.844,436.148h.594v1.187h-.594v-1.187Z" transform="translate(-1013.846 -431.398)" fill="#dd1f26" fill-rule="evenodd"/>
      <path id="Trazado_12778" data-name="Trazado 12778" d="M1009.79,437.673v1.781h-.594v-1.781Z" transform="translate(-1008.603 -431.736)" fill="#dd1f26" fill-rule="evenodd"/>
      <path id="Trazado_12779" data-name="Trazado 12779" d="M1033.607,437.673h.594v1.781h-.594v-1.781Z" transform="translate(-1014.015 -431.736)" fill="#dd1f26" fill-rule="evenodd"/>
      <path id="Trazado_12780" data-name="Trazado 12780" d="M1008.434,439.962h.594v5.343h-.594v-5.343Z" transform="translate(-1008.434 -432.244)" fill="#dd1f26" fill-rule="evenodd"/>
      <path id="Trazado_12781" data-name="Trazado 12781" d="M1034.37,439.962h.594v5.343h-.594v-5.343Z" transform="translate(-1014.184 -432.244)" fill="#dd1f26" fill-rule="evenodd"/>
      <path id="Trazado_12782" data-name="Trazado 12782" d="M1009.2,446.827h.594v1.781h-.594v-1.781Z" transform="translate(-1008.603 -433.766)" fill="#dd1f26" fill-rule="evenodd"/>
      <path id="Trazado_12783" data-name="Trazado 12783" d="M1034.2,446.827v1.781h-.594v-1.781Z" transform="translate(-1014.015 -433.766)" fill="#dd1f26" fill-rule="evenodd"/>
      <path id="Trazado_12784" data-name="Trazado 12784" d="M1009.959,449.116h.594V450.3h-.594v-1.187Z" transform="translate(-1008.772 -434.273)" fill="#dd1f26" fill-rule="evenodd"/>
      <path id="Trazado_12785" data-name="Trazado 12785" d="M1033.438,449.116V450.3h-.594v-1.187Z" transform="translate(-1013.846 -434.273)" fill="#dd1f26" fill-rule="evenodd"/>
      <path id="Trazado_12786" data-name="Trazado 12786" d="M1010.722,450.641h.594v.594h-.594v-.594Z" transform="translate(-1008.941 -434.612)" fill="#dd1f26" fill-rule="evenodd"/>
      <path id="Trazado_12787" data-name="Trazado 12787" d="M1032.081,451.235v-.594h.594v.594Z" transform="translate(-1013.677 -434.612)" fill="#dd1f26" fill-rule="evenodd"/>
      <path id="Trazado_12788" data-name="Trazado 12788" d="M1011.485,451.4h.594V452h-.594V451.4Z" transform="translate(-1009.11 -434.781)" fill="#dd1f26" fill-rule="evenodd"/>
      <path id="Trazado_12789" data-name="Trazado 12789" d="M1031.318,452V451.4h.594V452Z" transform="translate(-1013.507 -434.781)" fill="#dd1f26" fill-rule="evenodd"/>
      <path id="Trazado_12790" data-name="Trazado 12790" d="M1012.248,452.167h.594v.594h-.594v-.594Z" transform="translate(-1009.279 -434.95)" fill="#dd1f26" fill-rule="evenodd"/>
      <path id="Trazado_12791" data-name="Trazado 12791" d="M1030.556,452.761v-.594h.594v.594Z" transform="translate(-1013.338 -434.95)" fill="#dd1f26" fill-rule="evenodd"/>
      <path id="Trazado_12792" data-name="Trazado 12792" d="M1013.011,452.93h.594v.594h-.594v-.594Z" transform="translate(-1009.448 -435.119)" fill="#dd1f26" fill-rule="evenodd"/>
      <path id="Trazado_12793" data-name="Trazado 12793" d="M1029.793,453.523v-.594h.594v.594Z" transform="translate(-1013.169 -435.119)" fill="#dd1f26" fill-rule="evenodd"/>
      <path id="Trazado_12794" data-name="Trazado 12794" d="M1013.773,453.693h.594v.594h-.594v-.594Z" transform="translate(-1009.618 -435.288)" fill="#dd1f26" fill-rule="evenodd"/>
      <path id="Trazado_12795" data-name="Trazado 12795" d="M1029.03,454.286v-.594h.594v.594Z" transform="translate(-1013 -435.288)" fill="#dd1f26" fill-rule="evenodd"/>
      <path id="Trazado_12796" data-name="Trazado 12796" d="M1014.536,454.455h1.187v.594h-1.187v-.594Z" transform="translate(-1009.787 -435.457)" fill="#dd1f26" fill-rule="evenodd"/>
      <path id="Trazado_12797" data-name="Trazado 12797" d="M1027.5,455.049v-.594h1.187v.594H1027.5Z" transform="translate(-1012.662 -435.457)" fill="#dd1f26" fill-rule="evenodd"/>
      <path id="Trazado_12798" data-name="Trazado 12798" d="M1016.062,455.218h1.781v.594h-1.781v-.594Z" transform="translate(-1010.125 -435.626)" fill="#dd1f26" fill-rule="evenodd"/>
      <path id="Trazado_12799" data-name="Trazado 12799" d="M1025.216,455.812v-.594H1027v.594h-1.781Z" transform="translate(-1012.154 -435.626)" fill="#dd1f26" fill-rule="evenodd"/>
      <path id="Trazado_12800" data-name="Trazado 12800" d="M1018.35,456.575v-.594h5.343v.594Z" transform="translate(-1010.632 -435.795)" fill="#dd1f26" fill-rule="evenodd"/>
    </g>
    <g id="Grupo_4090" data-name="Grupo 4090" transform="translate(0.594 7.718)">
      <path id="Trazado_12801" data-name="Trazado 12801" d="M1033.269,439.962h.594v3.562h-.594v-.594h-.594v-.594h-.594v-1.187h.594v-.594h.594v-.594Z" transform="translate(-1014.27 -439.962)" fill="#dd1f26" fill-rule="evenodd"/>
      <path id="Trazado_12802" data-name="Trazado 12802" d="M1025.05,447.507h-1.187v.594h-2.969v1.781h-.594v-2.375h-.594v-.594h-.594v-.594h.594v-.594h2.969v-.594h1.781v-.594h1.187v1.187h-.594v1.781Z" transform="translate(-1011.395 -440.977)" fill="#dd1f26" fill-rule="evenodd"/>
      <path id="Trazado_12803" data-name="Trazado 12803" d="M1009.2,446.658v-.594h1.187v.594h2.375v2.968h-.594v1.187h-.594v-.594h-.594v-.594h-.594v-1.187h-.594v-1.781Z" transform="translate(-1009.196 -441.315)" fill="#dd1f26" fill-rule="evenodd"/>
      <path id="Trazado_12804" data-name="Trazado 12804" d="M1026.741,448.353h.594v.594h-.594v-.594Z" transform="translate(-1013.086 -441.822)" fill="#dd1f26" fill-rule="evenodd"/>
      <path id="Trazado_12805" data-name="Trazado 12805" d="M1027.5,449.116h.594v.594h-.594v-.594Z" transform="translate(-1013.255 -441.991)" fill="#dd1f26" fill-rule="evenodd"/>
      <path id="Trazado_12806" data-name="Trazado 12806" d="M1028.267,449.878h.594v.594h-.594v-.594Z" transform="translate(-1013.425 -442.16)" fill="#dd1f26" fill-rule="evenodd"/>
      <path id="Trazado_12807" data-name="Trazado 12807" d="M1027.5,453.441v-.594h.594V451.66h.594v-1.187h1.781v-.594h1.188v.594h-.594v.594h-.594v.594h-.594v.594h-.594v.594h-.594v.594H1027.5Z" transform="translate(-1013.255 -442.16)" fill="#dd1f26" fill-rule="evenodd"/>
      <path id="Trazado_12808" data-name="Trazado 12808" d="M1019.624,451.4v1.781h.594v1.187h.594v.594h-2.969v-.594h-1.781v-.594h1.187v-.594h1.187v-.594h.594V451.4Z" transform="translate(-1010.719 -442.499)" fill="#dd1f26" fill-rule="evenodd"/>
      <path id="Trazado_12809" data-name="Trazado 12809" d="M1013.011,452.167h.594v.594h-.594v-.594Z" transform="translate(-1010.042 -442.668)" fill="#dd1f26" fill-rule="evenodd"/>
      <path id="Trazado_12810" data-name="Trazado 12810" d="M1013.773,452.93h.594v.594h-.594v-.594Z" transform="translate(-1010.211 -442.837)" fill="#dd1f26" fill-rule="evenodd"/>
      <path id="Trazado_12811" data-name="Trazado 12811" d="M1014.536,453.693h.594v.594h-.594v-.594Z" transform="translate(-1010.38 -443.006)" fill="#dd1f26" fill-rule="evenodd"/>
      <path id="Trazado_12812" data-name="Trazado 12812" d="M1027.335,454.455v.594h-.594v-.594Z" transform="translate(-1013.086 -443.175)" fill="#dd1f26" fill-rule="evenodd"/>
      <path id="Trazado_12813" data-name="Trazado 12813" d="M1024.453,455.812v-.594h.594v.594Z" transform="translate(-1012.579 -443.344)" fill="#dd1f26" fill-rule="evenodd"/>
    </g>
    <g id="Grupo_4091" data-name="Grupo 4091" transform="translate(0.594 0.594)">
      <path id="Trazado_12814" data-name="Trazado 12814" d="M1021.657,430.808h2.375v.594h1.781V432H1027v.594h.594v1.187H1027v.594h-2.968v1.781h-.594v-2.375h-.594v-.594h-.594v-.594h-2.375V432h1.781v-1.187Z" transform="translate(-1011.564 -430.808)" fill="#dd1f26" fill-rule="evenodd"/>
      <path id="Trazado_12815" data-name="Trazado 12815" d="M1014.878,434.115v.594h-1.187v.594h.594v.594h-.594v.594h-.594V435.3h-1.187v.594h-1.187V435.3h.594v-.594h.594v-.594h.594v-.594h.594v-.594h.594v-.594h.594v1.781Z" transform="translate(-1009.535 -431.146)" fill="#dd1f26" fill-rule="evenodd"/>
      <path id="Trazado_12816" data-name="Trazado 12816" d="M1017.587,433.69V433.1h1.781v.594Z" transform="translate(-1011.057 -431.315)" fill="#dd1f26" fill-rule="evenodd"/>
      <path id="Trazado_12817" data-name="Trazado 12817" d="M1016.062,434.453v-.594h1.187v.594h-1.187Z" transform="translate(-1010.719 -431.484)" fill="#dd1f26" fill-rule="evenodd"/>
      <path id="Trazado_12818" data-name="Trazado 12818" d="M1029.03,435.385h.594v.594h-.594v-.594Z" transform="translate(-1013.594 -431.823)" fill="#dd1f26" fill-rule="evenodd"/>
      <path id="Trazado_12819" data-name="Trazado 12819" d="M1029.793,436.148h.594v.594h-.594v-.594Z" transform="translate(-1013.763 -431.992)" fill="#dd1f26" fill-rule="evenodd"/>
      <path id="Trazado_12820" data-name="Trazado 12820" d="M1015.3,436.911h.594v.594h-.594v-.594Z" transform="translate(-1010.549 -432.161)" fill="#dd1f26" fill-rule="evenodd"/>
      <path id="Trazado_12821" data-name="Trazado 12821" d="M1030.556,436.911h.594v.594h-.594v-.594Z" transform="translate(-1013.932 -432.161)" fill="#dd1f26" fill-rule="evenodd"/>
      <path id="Trazado_12822" data-name="Trazado 12822" d="M1013.6,437.673v1.187h-.594v-1.187Z" transform="translate(-1010.042 -432.33)" fill="#dd1f26" fill-rule="evenodd"/>
      <path id="Trazado_12823" data-name="Trazado 12823" d="M1016.062,437.673h.594v.594h-.594v-.594Z" transform="translate(-1010.719 -432.33)" fill="#dd1f26" fill-rule="evenodd"/>
      <path id="Trazado_12824" data-name="Trazado 12824" d="M1022.593,437.673v2.375h.594v.594h.594v.594h.594v.594h.594v1.187h-1.187v.594H1022v.594h-2.969v.594h-1.187V444.2h-1.781v-.594h1.781v-2.375h.594v-1.187h1.188v-.594H1022v-1.781Z" transform="translate(-1010.719 -432.33)" fill="#dd1f26" fill-rule="evenodd"/>
      <path id="Trazado_12825" data-name="Trazado 12825" d="M1031.318,437.673h.594v.594h-.594v-.594Z" transform="translate(-1014.101 -432.33)" fill="#dd1f26" fill-rule="evenodd"/>
      <path id="Trazado_12826" data-name="Trazado 12826" d="M1032.761,437.673v2.375h-.594v.594h-.594v.594h-1.781v-.594h1.187v-1.781h.594v-.594h.594v-.594Z" transform="translate(-1013.763 -432.33)" fill="#dd1f26" fill-rule="evenodd"/>
      <path id="Trazado_12827" data-name="Trazado 12827" d="M1016.825,438.436h.594v.594h-.594v-.594Z" transform="translate(-1010.888 -432.499)" fill="#dd1f26" fill-rule="evenodd"/>
      <path id="Trazado_12828" data-name="Trazado 12828" d="M1012.842,439.2v1.781h-.594V439.2Z" transform="translate(-1009.873 -432.668)" fill="#dd1f26" fill-rule="evenodd"/>
      <path id="Trazado_12829" data-name="Trazado 12829" d="M1017.587,439.2h.594v.594h-.594V439.2Z" transform="translate(-1011.057 -432.668)" fill="#dd1f26" fill-rule="evenodd"/>
      <path id="Trazado_12830" data-name="Trazado 12830" d="M1018.35,439.962h.594v.594h-.594v-.594Z" transform="translate(-1011.226 -432.837)" fill="#dd1f26" fill-rule="evenodd"/>
      <path id="Trazado_12831" data-name="Trazado 12831" d="M1012.079,441.487v1.781h-.594v-1.781Z" transform="translate(-1009.704 -433.176)" fill="#dd1f26" fill-rule="evenodd"/>
      <path id="Trazado_12832" data-name="Trazado 12832" d="M1027.5,442.844v-.594h1.781v.594H1027.5Z" transform="translate(-1013.255 -433.345)" fill="#dd1f26" fill-rule="evenodd"/>
      <path id="Trazado_12833" data-name="Trazado 12833" d="M1009.2,443.776h1.781v.594h.594v.594h.594v.594h2.375v.594h-4.156v-.594H1009.2v-1.781Z" transform="translate(-1009.196 -433.683)" fill="#dd1f26" fill-rule="evenodd"/>
    </g>
    <g id="Grupo_4092" data-name="Grupo 4092" transform="translate(3.562 9.499)">
      <path id="Trazado_12834" data-name="Trazado 12834" d="M1030.3,442.25h.594v.594h.594v.594h.594v.594h.594v1.781h-.594v1.781h-.594v.594H1030.3v.594h-1.781v-.594h-.594v-.594h-.594V447h-.594v-1.781h.594v-1.187h.594v-.594h1.187v-.594h1.187v-.594Z" transform="translate(-1016.055 -442.25)" fill="#c8d6dc" fill-rule="evenodd"/>
      <path id="Trazado_12835" data-name="Trazado 12835" d="M1018.948,450.389h-.594v1.187h-.594v.594h-1.187v.594h-1.781v-.594h-.594v-.594h-.594v-.594h-.594V449.8h.594v-2.968h4.156v.594h.594v.594h.594v2.375Z" transform="translate(-1013.011 -443.265)" fill="#c8d6dc" fill-rule="evenodd"/>
      <path id="Trazado_12836" data-name="Trazado 12836" d="M1025.388,448.353v.594h.594v.594h.594v.594h.594v1.187h-.594v1.187h-.594v.594h-.594v.594h-1.781v.594h-1.781V453.7h-.594v-1.187h-.594v-1.781h.594v-1.781h2.968v-.594h1.187Z" transform="translate(-1014.702 -443.603)" fill="#c8d6dc" fill-rule="evenodd"/>
    </g>
    <g id="Grupo_4093" data-name="Grupo 4093" transform="translate(0.594 0.594)">
      <path id="Trazado_12837" data-name="Trazado 12837" d="M1017.674,430.808h2.969V432h-1.781v.594h-1.781v.594h-1.187v.594h-.594V432h.594V431.4h1.781v-.594Z" transform="translate(-1010.549 -430.808)" fill="#f8fdff" fill-rule="evenodd"/>
      <path id="Trazado_12838" data-name="Trazado 12838" d="M1018.692,433.1h2.375v.594h.594v.594h.594v2.375h-.594v1.781h-2.375v.594H1018.1v-.594h-.594v-.594h-.594v-.594h-.594v-.594h-.594v-.594h-.594v-.594h-.594v-.594h1.187v-.594h1.187v-.594h1.781V433.1Z" transform="translate(-1010.38 -431.315)" fill="#f8fdff" fill-rule="evenodd"/>
      <path id="Trazado_12839" data-name="Trazado 12839" d="M1032,435.64v1.781h-.594v-.594h-.594v-.594h-.594v-.594h-.594v-.594h-.594v-.594h.594v-.594h.594v.594h.594v.594h.594v.594Z" transform="translate(-1013.594 -431.484)" fill="#f8fdff" fill-rule="evenodd"/>
      <path id="Trazado_12840" data-name="Trazado 12840" d="M1028.015,435.385v.594h.594v.594h.594v.594h.594v.594h.594v.594h-.594v1.781h-1.187v.594h-1.781v.594h-.594v-.594h-.594v-.594h-.594v-.594h-.594v-2.375h.594v-1.781h2.969Z" transform="translate(-1012.579 -431.823)" fill="#f8fdff" fill-rule="evenodd"/>
      <path id="Trazado_12841" data-name="Trazado 12841" d="M1012.759,437.335h-.594v1.187h-.594V440.3h-.594v1.781H1009.2v-2.968h.594v-1.781h.594v-.594h1.187v-.594h1.187v1.187Z" transform="translate(-1009.196 -431.992)" fill="#f8fdff" fill-rule="evenodd"/>
      <path id="Trazado_12842" data-name="Trazado 12842" d="M1014.453,436.911v.594h.594v.594h.594v.594h.594v.594h.594v.594h.594v1.187h-.594v2.375h-1.781v.594h-2.375v-.594h-.594v-.594h-.594v-.594h.594v-1.781h.594v-1.781h.594V437.5h.594v-.594Z" transform="translate(-1009.704 -432.161)" fill="#f8fdff" fill-rule="evenodd"/>
      <path id="Trazado_12843" data-name="Trazado 12843" d="M1029.793,442.844v-.594h1.187v.594h-1.187Z" transform="translate(-1013.763 -433.345)" fill="#f8fdff" fill-rule="evenodd"/>
      <path id="Trazado_12844" data-name="Trazado 12844" d="M1027.5,443.013h1.781v.594H1028.1v.594h-.594v-1.187Z" transform="translate(-1013.255 -433.514)" fill="#f8fdff" fill-rule="evenodd"/>
      <path id="Trazado_12845" data-name="Trazado 12845" d="M1016.062,446.658v-.594h1.781v.594Z" transform="translate(-1010.719 -434.19)" fill="#f8fdff" fill-rule="evenodd"/>
    </g>
  </g>
</svg>
