<svg xmlns="http://www.w3.org/2000/svg" width="41.6" height="41.6" viewBox="0 0 41.6 41.6">
  <g id="Grupo_3902" data-name="Grupo 3902" transform="translate(-1034.05 -570.441)">
    <g id="Grupo_3897" data-name="Grupo 3897">
      <path id="Trazado_11269" data-name="Trazado 11269" d="M1049.5,571.629v-1.189h10.7v1.189h-10.7Z" fill-rule="evenodd"/>
      <path id="Trazado_11270" data-name="Trazado 11270" d="M1045.936,572.818v-1.189h3.566v1.189Z" fill-rule="evenodd"/>
      <path id="Trazado_11271" data-name="Trazado 11271" d="M1060.2,571.629h3.566v1.189H1060.2v-1.189Z" fill-rule="evenodd"/>
      <path id="Trazado_11272" data-name="Trazado 11272" d="M1043.559,574.006v-1.189h2.377v1.189h-2.377Z" fill-rule="evenodd"/>
      <path id="Trazado_11273" data-name="Trazado 11273" d="M1063.764,572.818h2.377v1.189h-2.377v-1.189Z" fill-rule="evenodd"/>
      <path id="Trazado_11274" data-name="Trazado 11274" d="M1042.37,575.195v-1.189h1.189v1.189Z" fill-rule="evenodd"/>
      <path id="Trazado_11275" data-name="Trazado 11275" d="M1066.141,574.006h1.188v1.189h-1.188v-1.189Z" fill-rule="evenodd"/>
      <path id="Trazado_11276" data-name="Trazado 11276" d="M1041.181,576.383v-1.189h1.189v1.189Z" fill-rule="evenodd"/>
      <path id="Trazado_11277" data-name="Trazado 11277" d="M1067.33,575.195h1.189v1.189h-1.189v-1.189Z" fill-rule="evenodd"/>
      <path id="Trazado_11278" data-name="Trazado 11278" d="M1039.993,577.572v-1.189h1.189v1.189Z" fill-rule="evenodd"/>
      <path id="Trazado_11279" data-name="Trazado 11279" d="M1068.519,576.383h1.189v1.189h-1.189v-1.189Z" fill-rule="evenodd"/>
      <path id="Trazado_11280" data-name="Trazado 11280" d="M1038.8,578.761v-1.189h1.188v1.189Z" fill-rule="evenodd"/>
      <path id="Trazado_11281" data-name="Trazado 11281" d="M1069.707,577.572h1.189v1.189h-1.189v-1.189Z" fill-rule="evenodd"/>
      <path id="Trazado_11282" data-name="Trazado 11282" d="M1037.616,579.949v-1.189h1.189v1.189Z" fill-rule="evenodd"/>
      <path id="Trazado_11283" data-name="Trazado 11283" d="M1070.9,578.761h1.188v1.189H1070.9v-1.189Z" fill-rule="evenodd"/>
      <path id="Trazado_11284" data-name="Trazado 11284" d="M1037.616,579.949v2.377h-1.189v-2.377Z" fill-rule="evenodd"/>
      <path id="Trazado_11285" data-name="Trazado 11285" d="M1072.084,579.949h1.189v2.377h-1.189v-2.377Z" fill-rule="evenodd"/>
      <path id="Trazado_11286" data-name="Trazado 11286" d="M1036.427,582.326v3.566h-1.189v-3.566Z" fill-rule="evenodd"/>
      <path id="Trazado_11287" data-name="Trazado 11287" d="M1073.273,582.326h1.189v3.566h-1.189v-3.566Z" fill-rule="evenodd"/>
      <path id="Trazado_11288" data-name="Trazado 11288" d="M1034.05,585.892h1.188v10.7h-1.188v-10.7Z" fill-rule="evenodd"/>
      <path id="Trazado_11289" data-name="Trazado 11289" d="M1074.461,585.892h1.189v10.7h-1.189v-10.7Z" fill-rule="evenodd"/>
      <path id="Trazado_11290" data-name="Trazado 11290" d="M1035.239,596.589h1.189v3.566h-1.189v-3.566Z" fill-rule="evenodd"/>
      <path id="Trazado_11291" data-name="Trazado 11291" d="M1074.461,596.589v3.566h-1.189v-3.566Z" fill-rule="evenodd"/>
      <path id="Trazado_11292" data-name="Trazado 11292" d="M1036.427,600.155h1.189v2.377h-1.189v-2.377Z" fill-rule="evenodd"/>
      <path id="Trazado_11293" data-name="Trazado 11293" d="M1073.273,600.155v2.377h-1.189v-2.377Z" fill-rule="evenodd"/>
      <path id="Trazado_11294" data-name="Trazado 11294" d="M1037.616,602.532h1.189v1.189h-1.189v-1.189Z" fill-rule="evenodd"/>
      <path id="Trazado_11295" data-name="Trazado 11295" d="M1070.9,603.721v-1.189h1.188v1.189Z" fill-rule="evenodd"/>
      <path id="Trazado_11296" data-name="Trazado 11296" d="M1038.8,603.721h1.188v1.189H1038.8v-1.189Z" fill-rule="evenodd"/>
      <path id="Trazado_11297" data-name="Trazado 11297" d="M1069.707,604.909v-1.189h1.189v1.189Z" fill-rule="evenodd"/>
      <path id="Trazado_11298" data-name="Trazado 11298" d="M1039.993,604.909h1.189V606.1h-1.189v-1.189Z" fill-rule="evenodd"/>
      <path id="Trazado_11299" data-name="Trazado 11299" d="M1068.519,606.1v-1.189h1.189V606.1Z" fill-rule="evenodd"/>
      <path id="Trazado_11300" data-name="Trazado 11300" d="M1041.181,606.1h1.189v1.189h-1.189V606.1Z" fill-rule="evenodd"/>
      <path id="Trazado_11301" data-name="Trazado 11301" d="M1067.33,607.286V606.1h1.189v1.189Z" fill-rule="evenodd"/>
      <path id="Trazado_11302" data-name="Trazado 11302" d="M1042.37,607.286h1.189v1.189h-1.189v-1.189Z" fill-rule="evenodd"/>
      <path id="Trazado_11303" data-name="Trazado 11303" d="M1066.141,608.475v-1.189h1.188v1.189Z" fill-rule="evenodd"/>
      <path id="Trazado_11304" data-name="Trazado 11304" d="M1043.559,608.475h2.377v1.189h-2.377v-1.189Z" fill-rule="evenodd"/>
      <path id="Trazado_11305" data-name="Trazado 11305" d="M1063.764,609.663v-1.189h2.377v1.189h-2.377Z" fill-rule="evenodd"/>
      <path id="Trazado_11306" data-name="Trazado 11306" d="M1045.936,609.663h3.566v1.189h-3.566v-1.189Z" fill-rule="evenodd"/>
      <path id="Trazado_11307" data-name="Trazado 11307" d="M1060.2,610.852v-1.189h3.566v1.189H1060.2Z" fill-rule="evenodd"/>
      <path id="Trazado_11308" data-name="Trazado 11308" d="M1049.5,612.041v-1.189h10.7v1.189Z" fill-rule="evenodd"/>
    </g>
    <g id="Grupo_3898" data-name="Grupo 3898">
      <path id="Trazado_11309" data-name="Trazado 11309" d="M1073.273,585.892h1.189v7.131h-1.189v-1.189h-1.189v-1.189H1070.9v-2.377h1.188v-1.189h1.189v-1.189Z" fill="#262730" fill-rule="evenodd"/>
      <path id="Trazado_11310" data-name="Trazado 11310" d="M1062.576,598.966H1060.2v1.189h-5.943v3.566h-1.189v-4.754h-1.189v-1.189h-1.189v-1.189h1.189V595.4h5.943v-1.189h3.566v-1.189h2.377V595.4h-1.189v3.566Z" fill="#262730" fill-rule="evenodd"/>
      <path id="Trazado_11311" data-name="Trazado 11311" d="M1035.239,596.589V595.4h2.377v1.189h4.754v5.943h-1.189v2.377h-1.189v-1.189H1038.8v-1.189h-1.189v-2.377h-1.189v-3.566Z" fill="#262730" fill-rule="evenodd"/>
      <path id="Trazado_11312" data-name="Trazado 11312" d="M1062.576,598.966h1.189v1.189h-1.189v-1.189Z" fill="#262730" fill-rule="evenodd"/>
      <path id="Trazado_11313" data-name="Trazado 11313" d="M1063.764,600.155h1.189v1.189h-1.189v-1.189Z" fill="#262730" fill-rule="evenodd"/>
      <path id="Trazado_11314" data-name="Trazado 11314" d="M1064.953,601.343h1.189v1.189h-1.189v-1.189Z" fill="#262730" fill-rule="evenodd"/>
      <path id="Trazado_11315" data-name="Trazado 11315" d="M1063.764,608.475v-1.189h1.189v-2.377h1.189v-2.377h3.566v-1.189h2.377v1.189H1070.9v1.189h-1.189v1.189h-1.189V606.1h-1.189v1.189h-1.188v1.189h-2.377Z" fill="#262730" fill-rule="evenodd"/>
      <path id="Trazado_11316" data-name="Trazado 11316" d="M1053.067,603.721v3.566h1.189v2.377h1.189v1.189H1049.5v-1.189h-3.566v-1.189h2.377v-1.189h2.377V606.1h1.189v-2.377Z" fill="#262730" fill-rule="evenodd"/>
      <path id="Trazado_11317" data-name="Trazado 11317" d="M1041.181,604.909h1.189V606.1h-1.189v-1.189Z" fill="#262730" fill-rule="evenodd"/>
      <path id="Trazado_11318" data-name="Trazado 11318" d="M1042.37,606.1h1.189v1.189h-1.189V606.1Z" fill="#262730" fill-rule="evenodd"/>
      <path id="Trazado_11319" data-name="Trazado 11319" d="M1043.559,607.286h1.189v1.189h-1.189v-1.189Z" fill="#262730" fill-rule="evenodd"/>
      <path id="Trazado_11320" data-name="Trazado 11320" d="M1063.764,608.475v1.189h-1.189v-1.189Z" fill="#262730" fill-rule="evenodd"/>
      <path id="Trazado_11321" data-name="Trazado 11321" d="M1059.01,610.852v-1.189h1.189v1.189Z" fill="#262730" fill-rule="evenodd"/>
    </g>
    <g id="Grupo_3899" data-name="Grupo 3899">
      <path id="Trazado_11322" data-name="Trazado 11322" d="M1055.444,571.629h4.754v1.189h3.566v1.189h2.377v1.189h1.188v2.377h-1.188v1.189H1060.2v3.566h-1.189v-4.754h-1.189v-1.189h-1.189v-1.189h-4.754v-1.189h3.566v-2.377Z" fill="#494949" fill-rule="evenodd"/>
      <path id="Trazado_11323" data-name="Trazado 11323" d="M1045.936,577.572v1.189h-2.377v1.189h1.189v1.189h-1.189v1.189h-1.189v-2.377h-2.377v1.189h-2.377v-1.189h1.189v-1.189h1.188v-1.189h1.189v-1.189h1.189v-1.189h1.189v-1.189h1.189v3.566Z" fill="#494949" fill-rule="evenodd"/>
      <path id="Trazado_11324" data-name="Trazado 11324" d="M1048.313,576.383v-1.189h3.566v1.189Z" fill="#494949" fill-rule="evenodd"/>
      <path id="Trazado_11325" data-name="Trazado 11325" d="M1045.936,577.572v-1.189h2.377v1.189h-2.377Z" fill="#494949" fill-rule="evenodd"/>
      <path id="Trazado_11326" data-name="Trazado 11326" d="M1066.141,578.761h1.188v1.189h-1.188v-1.189Z" fill="#494949" fill-rule="evenodd"/>
      <path id="Trazado_11327" data-name="Trazado 11327" d="M1067.33,579.949h1.189v1.189h-1.189v-1.189Z" fill="#494949" fill-rule="evenodd"/>
      <path id="Trazado_11328" data-name="Trazado 11328" d="M1044.747,581.138h1.188v1.189h-1.188v-1.189Z" fill="#494949" fill-rule="evenodd"/>
      <path id="Trazado_11329" data-name="Trazado 11329" d="M1068.519,581.138h1.189v1.189h-1.189v-1.189Z" fill="#494949" fill-rule="evenodd"/>
      <path id="Trazado_11330" data-name="Trazado 11330" d="M1042.37,582.326V584.7h-1.189v-2.377Z" fill="#494949" fill-rule="evenodd"/>
      <path id="Trazado_11331" data-name="Trazado 11331" d="M1045.936,582.326h1.189v1.189h-1.189v-1.189Z" fill="#494949" fill-rule="evenodd"/>
      <path id="Trazado_11332" data-name="Trazado 11332" d="M1059.01,582.326v4.754h1.189v1.189h1.188v1.189h1.189v1.189h1.189v2.377h-2.377v1.189h-3.566V595.4h-5.943v1.189H1049.5V595.4h-3.566v-1.189h3.566v-4.754h1.188v-2.377h2.377v-1.189h4.754v-3.566Z" fill="#494949" fill-rule="evenodd"/>
      <path id="Trazado_11333" data-name="Trazado 11333" d="M1069.707,582.326h1.189v1.189h-1.189v-1.189Z" fill="#494949" fill-rule="evenodd"/>
      <path id="Trazado_11334" data-name="Trazado 11334" d="M1073.273,582.326v4.754h-1.189v1.189H1070.9v1.189h-3.566v-1.189h2.377V584.7h1.189v-1.189h1.188v-1.189Z" fill="#494949" fill-rule="evenodd"/>
      <path id="Trazado_11335" data-name="Trazado 11335" d="M1047.124,583.515h1.189V584.7h-1.189v-1.189Z" fill="#494949" fill-rule="evenodd"/>
      <path id="Trazado_11336" data-name="Trazado 11336" d="M1041.181,584.7v3.566h-1.189V584.7Z" fill="#494949" fill-rule="evenodd"/>
      <path id="Trazado_11337" data-name="Trazado 11337" d="M1048.313,584.7h1.189v1.189h-1.189V584.7Z" fill="#494949" fill-rule="evenodd"/>
      <path id="Trazado_11338" data-name="Trazado 11338" d="M1049.5,585.892h1.188v1.189H1049.5v-1.189Z" fill="#494949" fill-rule="evenodd"/>
      <path id="Trazado_11339" data-name="Trazado 11339" d="M1039.993,588.269v3.566H1038.8v-3.566Z" fill="#494949" fill-rule="evenodd"/>
      <path id="Trazado_11340" data-name="Trazado 11340" d="M1063.764,590.646v-1.189h3.566v1.189h-3.566Z" fill="#494949" fill-rule="evenodd"/>
      <path id="Trazado_11341" data-name="Trazado 11341" d="M1035.239,591.835h3.566v1.189h1.188v1.189h1.189V595.4h4.754v1.189h-8.32V595.4h-2.377v-3.566Z" fill="#494949" fill-rule="evenodd"/>
    </g>
    <g id="Grupo_3900" data-name="Grupo 3900">
      <path id="Trazado_11342" data-name="Trazado 11342" d="M1069.707,589.458h1.189v1.189h1.188v1.189h1.189v1.189h1.189v3.566h-1.189v3.566h-1.189v1.189h-2.377v1.189h-3.566v-1.189h-1.189v-1.189h-1.189v-1.189h-1.189V595.4h1.189v-2.377h1.189v-1.189h2.377v-1.189h2.377v-1.189Z" fill="#c8d6dc" fill-rule="evenodd"/>
      <path id="Trazado_11343" data-name="Trazado 11343" d="M1053.067,603.721h-1.189V606.1h-1.189v1.189h-2.377v1.189h-3.566v-1.189h-1.189V606.1h-1.189v-1.189h-1.189v-2.377h1.189v-5.943h8.32v1.189h1.189v1.189h1.189v4.754Z" fill="#c8d6dc" fill-rule="evenodd"/>
      <path id="Trazado_11344" data-name="Trazado 11344" d="M1062.576,598.966v1.189h1.189v1.189h1.189v1.189h1.189v2.377h-1.189v2.377h-1.189v1.189h-1.189v1.189h-3.566v1.189h-3.566v-1.189h-1.189v-2.377h-1.189v-3.566h1.189v-3.566h5.943v-1.189h2.377Z" fill="#c8d6dc" fill-rule="evenodd"/>
    </g>
    <g id="Grupo_3901" data-name="Grupo 3901">
      <path id="Trazado_11345" data-name="Trazado 11345" d="M1049.5,571.629h5.943v2.377h-3.566v1.189h-3.566v1.189h-2.377v1.189h-1.188v-3.566h1.188v-1.189h3.566v-1.189Z" fill="#f8fdff" fill-rule="evenodd"/>
      <path id="Trazado_11346" data-name="Trazado 11346" d="M1051.879,575.195h4.754v1.189h1.189v1.189h1.189v4.754h-1.189v3.566h-4.754v1.189h-2.377v-1.189H1049.5V584.7h-1.189v-1.189h-1.189v-1.189h-1.189v-1.189h-1.188v-1.189h-1.189v-1.189h2.377v-1.189h2.377v-1.189h3.566v-1.189Z" fill="#f8fdff" fill-rule="evenodd"/>
      <path id="Trazado_11347" data-name="Trazado 11347" d="M1072.084,579.949v3.566H1070.9v-1.189h-1.189v-1.189h-1.189v-1.189h-1.189v-1.189h-1.188v-1.189h1.188v-1.189h1.189v1.189h1.189v1.189h1.189v1.189Z" fill="#f8fdff" fill-rule="evenodd"/>
      <path id="Trazado_11348" data-name="Trazado 11348" d="M1066.141,578.761v1.189h1.188v1.189h1.189v1.189h1.189v1.189h1.189V584.7h-1.189v3.566h-2.377v1.189h-3.566v1.189h-1.189v-1.189h-1.189v-1.189H1060.2v-1.189h-1.189v-4.754h1.189v-3.566h5.943Z" fill="#f8fdff" fill-rule="evenodd"/>
      <path id="Trazado_11349" data-name="Trazado 11349" d="M1042.37,582.326h-1.189V584.7h-1.189v3.566H1038.8v3.566h-3.566v-5.943h1.189v-3.566h1.189v-1.189h2.377v-1.189h2.377v2.377Z" fill="#f8fdff" fill-rule="evenodd"/>
      <path id="Trazado_11350" data-name="Trazado 11350" d="M1044.747,581.138v1.189h1.188v1.189h1.189V584.7h1.189v1.189h1.189v1.189h1.188v2.377H1049.5v4.754h-3.566V595.4h-4.754v-1.189h-1.189v-1.189H1038.8v-1.189h1.188v-3.566h1.189V584.7h1.189v-2.377h1.189v-1.189Z" fill="#f8fdff" fill-rule="evenodd"/>
      <path id="Trazado_11351" data-name="Trazado 11351" d="M1067.33,590.646v-1.189h2.377v1.189h-2.377Z" fill="#f8fdff" fill-rule="evenodd"/>
      <path id="Trazado_11352" data-name="Trazado 11352" d="M1063.764,590.646h3.566v1.189h-2.377v1.189h-1.189v-2.377Z" fill="#f8fdff" fill-rule="evenodd"/>
      <path id="Trazado_11353" data-name="Trazado 11353" d="M1045.936,596.589V595.4h3.566v1.189Z" fill="#f8fdff" fill-rule="evenodd"/>
    </g>
  </g>
</svg>
