<svg xmlns="http://www.w3.org/2000/svg" width="182.042" height="42.574" viewBox="0 0 182.042 42.574">
  <g id="Grupo_3823" data-name="Grupo 3823" transform="translate(-700.416 -731.896)">
    <g id="Grupo_3822" data-name="Grupo 3822">
      <g id="Grupo_3821" data-name="Grupo 3821">
        <rect id="Rectángulo_3573" data-name="Rectángulo 3573" width="3.873" height="4.73" transform="translate(704.29 736.626)" fill="#1e5701"/>
        <rect id="Rectángulo_3574" data-name="Rectángulo 3574" width="166.549" height="4.73" transform="translate(708.163 731.896)" fill="#1e5701"/>
        <rect id="Rectángulo_3575" data-name="Rectángulo 3575" width="3.873" height="4.73" transform="translate(708.163 769.739) rotate(180)" fill="#1e5701"/>
        <rect id="Rectángulo_3576" data-name="Rectángulo 3576" width="166.549" height="4.73" transform="translate(708.163 769.739)" fill="#1e5701"/>
        <rect id="Rectángulo_3577" data-name="Rectángulo 3577" width="3.873" height="23.652" transform="translate(700.416 741.357)" fill="#1e5701"/>
        <rect id="Rectángulo_3578" data-name="Rectángulo 3578" width="3.873" height="4.73" transform="translate(874.712 765.009)" fill="#1e5701"/>
        <rect id="Rectángulo_3579" data-name="Rectángulo 3579" width="3.873" height="4.73" transform="translate(874.712 736.626)" fill="#1e5701"/>
        <rect id="Rectángulo_3580" data-name="Rectángulo 3580" width="3.873" height="23.652" transform="translate(878.585 741.357)" fill="#1e5701"/>
      </g>
      <rect id="Rectángulo_3581" data-name="Rectángulo 3581" width="3.873" height="23.652" transform="translate(708.163 741.357)" fill="#fff"/>
      <path id="Trazado_10831" data-name="Trazado 10831" d="M712.036,741.357v0Z" fill="#fff"/>
      <rect id="Rectángulo_3582" data-name="Rectángulo 3582" width="3.873" height="23.652" transform="translate(870.839 741.357)" fill="#fff"/>
      <path id="Trazado_10832" data-name="Trazado 10832" d="M874.712,741.357v0Z" fill="#fff"/>
      <rect id="Rectángulo_3583" data-name="Rectángulo 3583" width="3.873" height="23.652" transform="translate(712.036 741.357)" fill="#fff"/>
      <rect id="Rectángulo_3584" data-name="Rectángulo 3584" width="3.873" height="28.382" transform="translate(715.909 736.626)" fill="#fff"/>
      <rect id="Rectángulo_3585" data-name="Rectángulo 3585" width="3.873" height="28.382" transform="translate(719.783 736.626)" fill="#fff"/>
      <rect id="Rectángulo_3586" data-name="Rectángulo 3586" width="3.873" height="28.382" transform="translate(723.656 736.626)" fill="#fff"/>
      <rect id="Rectángulo_3587" data-name="Rectángulo 3587" width="3.873" height="28.382" transform="translate(727.529 736.626)" fill="#fff"/>
      <rect id="Rectángulo_3588" data-name="Rectángulo 3588" width="3.873" height="28.382" transform="translate(731.402 736.626)" fill="#fff"/>
      <rect id="Rectángulo_3589" data-name="Rectángulo 3589" width="3.873" height="28.382" transform="translate(735.276 736.626)" fill="#fff"/>
      <rect id="Rectángulo_3590" data-name="Rectángulo 3590" width="3.873" height="28.382" transform="translate(739.149 736.626)" fill="#fff"/>
      <rect id="Rectángulo_3591" data-name="Rectángulo 3591" width="3.873" height="28.382" transform="translate(743.022 736.626)" fill="#fff"/>
      <rect id="Rectángulo_3592" data-name="Rectángulo 3592" width="3.873" height="28.382" transform="translate(746.895 736.626)" fill="#fff"/>
      <rect id="Rectángulo_3593" data-name="Rectángulo 3593" width="3.873" height="28.382" transform="translate(750.768 736.626)" fill="#fff"/>
      <rect id="Rectángulo_3594" data-name="Rectángulo 3594" width="3.873" height="28.382" transform="translate(754.642 736.626)" fill="#fff"/>
      <rect id="Rectángulo_3595" data-name="Rectángulo 3595" width="3.873" height="28.382" transform="translate(758.515 736.626)" fill="#fff"/>
      <rect id="Rectángulo_3596" data-name="Rectángulo 3596" width="3.873" height="28.382" transform="translate(762.388 736.626)" fill="#fff"/>
      <rect id="Rectángulo_3597" data-name="Rectángulo 3597" width="3.873" height="28.382" transform="translate(766.261 736.626)" fill="#fff"/>
      <rect id="Rectángulo_3598" data-name="Rectángulo 3598" width="3.873" height="28.382" transform="translate(770.135 736.626)" fill="#fff"/>
      <rect id="Rectángulo_3599" data-name="Rectángulo 3599" width="3.873" height="28.382" transform="translate(774.008 736.626)" fill="#fff"/>
      <rect id="Rectángulo_3600" data-name="Rectángulo 3600" width="3.873" height="28.382" transform="translate(777.881 736.626)" fill="#fff"/>
      <rect id="Rectángulo_3601" data-name="Rectángulo 3601" width="3.873" height="28.382" transform="translate(781.754 736.626)" fill="#fff"/>
      <rect id="Rectángulo_3602" data-name="Rectángulo 3602" width="81.338" height="28.382" transform="translate(785.628 736.626)" fill="#fff"/>
      <rect id="Rectángulo_3603" data-name="Rectángulo 3603" width="3.873" height="23.652" transform="translate(866.966 741.357)" fill="#fff"/>
      <rect id="Rectángulo_3604" data-name="Rectángulo 3604" width="3.873" height="14.191" transform="translate(704.29 746.087)" fill="#fff"/>
      <rect id="Rectángulo_3605" data-name="Rectángulo 3605" width="3.873" height="14.191" transform="translate(874.712 746.087)" fill="#fff"/>
    </g>
    <rect id="Rectángulo_3606" data-name="Rectángulo 3606" width="3.873" height="4.73" transform="translate(708.163 765.008) rotate(180)" fill="#fff"/>
    <rect id="Rectángulo_3607" data-name="Rectángulo 3607" width="3.873" height="4.73" transform="translate(708.163 746.087) rotate(180)" fill="#c6c4c4"/>
    <rect id="Rectángulo_3608" data-name="Rectángulo 3608" width="3.873" height="4.73" transform="translate(878.585 746.087) rotate(180)" fill="#fff"/>
    <rect id="Rectángulo_3609" data-name="Rectángulo 3609" width="3.873" height="4.73" transform="translate(874.712 765.008) rotate(180)" fill="#fff"/>
    <rect id="Rectángulo_3610" data-name="Rectángulo 3610" width="3.873" height="4.73" transform="translate(878.585 760.278) rotate(180)" fill="#fff"/>
    <rect id="Rectángulo_3611" data-name="Rectángulo 3611" width="166.549" height="4.73" transform="translate(708.163 736.626)" fill="#fff"/>
    <rect id="Rectángulo_3612" data-name="Rectángulo 3612" width="7.747" height="4.73" transform="translate(715.909 741.357) rotate(180)" fill="#c6c4c4"/>
    <rect id="Rectángulo_3613" data-name="Rectángulo 3613" width="166.549" height="4.73" transform="translate(708.163 765.009)" fill="#fff"/>
    <rect id="Rectángulo_3614" data-name="Rectángulo 3614" width="3.873" height="4.73" transform="translate(878.585 765.008) rotate(180)" fill="#fff"/>
  </g>
</svg>
