<svg id="Grupo_17949" data-name="Grupo 17949" xmlns="http://www.w3.org/2000/svg" width="60.662" height="20.996" viewBox="0 0 60.662 20.996">
  <g id="Grupo_4076" data-name="Grupo 4076" transform="translate(0)">
    <g id="Grupo_4075" data-name="Grupo 4075" transform="translate(0)">
      <g id="Grupo_4074" data-name="Grupo 4074">
        <g id="Grupo_4073" data-name="Grupo 4073">
          <rect id="Rectángulo_5573" data-name="Rectángulo 5573" width="1.91" height="2.333" transform="translate(1.91 2.333)" fill="#15132a"/>
          <rect id="Rectángulo_5574" data-name="Rectángulo 5574" width="53.022" height="2.333" transform="translate(3.82)" fill="#15132a"/>
          <rect id="Rectángulo_5575" data-name="Rectángulo 5575" width="1.91" height="2.333" transform="translate(1.91 16.331)" fill="#15132a"/>
          <rect id="Rectángulo_5576" data-name="Rectángulo 5576" width="53.022" height="2.333" transform="translate(3.82 18.663)" fill="#15132a"/>
          <rect id="Rectángulo_5577" data-name="Rectángulo 5577" width="1.91" height="11.665" transform="translate(0 4.666)" fill="#15132a"/>
          <rect id="Rectángulo_5578" data-name="Rectángulo 5578" width="1.91" height="2.333" transform="translate(56.842 16.331)" fill="#15132a"/>
          <rect id="Rectángulo_5579" data-name="Rectángulo 5579" width="1.91" height="2.333" transform="translate(56.842 2.333)" fill="#15132a"/>
          <rect id="Rectángulo_5580" data-name="Rectángulo 5580" width="1.91" height="11.665" transform="translate(58.752 4.666)" fill="#15132a"/>
        </g>
        <rect id="Rectángulo_5581" data-name="Rectángulo 5581" width="1.91" height="11.665" transform="translate(3.82 4.666)" fill="#383838"/>
        <path id="Trazado_12589" data-name="Trazado 12589" d="M942.4,432.021v0Z" transform="translate(-936.668 -427.355)" fill="#383838"/>
        <rect id="Rectángulo_5582" data-name="Rectángulo 5582" width="1.91" height="11.665" transform="translate(54.932 4.666)" fill="#383838"/>
        <path id="Trazado_12590" data-name="Trazado 12590" d="M1105.075,432.021v0Z" transform="translate(-1048.233 -427.355)" fill="#383838"/>
        <rect id="Rectángulo_5583" data-name="Rectángulo 5583" width="1.91" height="11.664" transform="translate(5.731 4.666)" fill="#383838"/>
        <rect id="Rectángulo_5584" data-name="Rectángulo 5584" width="1.91" height="13.997" transform="translate(7.641 2.333)" fill="#383838"/>
        <rect id="Rectángulo_5585" data-name="Rectángulo 5585" width="1.91" height="13.997" transform="translate(9.551 2.333)" fill="#383838"/>
        <rect id="Rectángulo_5586" data-name="Rectángulo 5586" width="1.91" height="13.998" transform="translate(11.461 2.333)" fill="#383838"/>
        <rect id="Rectángulo_5587" data-name="Rectángulo 5587" width="1.91" height="13.998" transform="translate(13.371 2.333)" fill="#383838"/>
        <rect id="Rectángulo_5588" data-name="Rectángulo 5588" width="1.91" height="13.998" transform="translate(15.282 2.333)" fill="#383838"/>
        <rect id="Rectángulo_5589" data-name="Rectángulo 5589" width="1.91" height="13.998" transform="translate(11.495 2.333)" fill="#383838"/>
        <rect id="Rectángulo_5590" data-name="Rectángulo 5590" width="1.91" height="13.998" transform="translate(12.772 2.333)" fill="#383838"/>
        <rect id="Rectángulo_5591" data-name="Rectángulo 5591" width="1.91" height="13.998" transform="translate(14.049 2.333)" fill="#383838"/>
        <rect id="Rectángulo_5592" data-name="Rectángulo 5592" width="1.91" height="13.998" transform="translate(15.327 2.333)" fill="#383838"/>
        <rect id="Rectángulo_5593" data-name="Rectángulo 5593" width="1.91" height="13.998" transform="translate(16.604 2.333)" fill="#383838"/>
        <rect id="Rectángulo_5594" data-name="Rectángulo 5594" width="1.91" height="13.998" transform="translate(17.881 2.333)" fill="#383838"/>
        <rect id="Rectángulo_5595" data-name="Rectángulo 5595" width="1.91" height="13.998" transform="translate(19.158 2.333)" fill="#383838"/>
        <rect id="Rectángulo_5596" data-name="Rectángulo 5596" width="1.91" height="13.998" transform="translate(20.436 2.333)" fill="#383838"/>
        <rect id="Rectángulo_5597" data-name="Rectángulo 5597" width="1.91" height="13.998" transform="translate(21.713 2.333)" fill="#383838"/>
        <rect id="Rectángulo_5598" data-name="Rectángulo 5598" width="1.91" height="13.998" transform="translate(22.99 2.333)" fill="#383838"/>
        <rect id="Rectángulo_5599" data-name="Rectángulo 5599" width="1.91" height="13.998" transform="translate(24.267 2.333)" fill="#383838"/>
        <rect id="Rectángulo_5600" data-name="Rectángulo 5600" width="1.91" height="13.998" transform="translate(25.544 2.333)" fill="#383838"/>
        <rect id="Rectángulo_5601" data-name="Rectángulo 5601" width="1.91" height="13.998" transform="translate(26.822 2.333)" fill="#383838"/>
        <rect id="Rectángulo_5602" data-name="Rectángulo 5602" width="40.114" height="13.998" transform="translate(12.907 2.333)" fill="#383838"/>
        <rect id="Rectángulo_5603" data-name="Rectángulo 5603" width="1.91" height="11.665" transform="translate(53.022 4.666)" fill="#383838"/>
        <rect id="Rectángulo_5604" data-name="Rectángulo 5604" width="1.91" height="6.999" transform="translate(1.91 6.999)" fill="#383838"/>
        <rect id="Rectángulo_5605" data-name="Rectángulo 5605" width="1.91" height="6.999" transform="translate(56.842 6.999)" fill="#383838"/>
      </g>
      <rect id="Rectángulo_5606" data-name="Rectángulo 5606" width="1.91" height="2.333" transform="translate(1.91 13.998)" fill="#383838"/>
      <rect id="Rectángulo_5607" data-name="Rectángulo 5607" width="1.91" height="2.333" transform="translate(1.91 4.666)" fill="#383838"/>
      <rect id="Rectángulo_5608" data-name="Rectángulo 5608" width="1.91" height="2.333" transform="translate(56.842 4.666)" fill="#383838"/>
      <rect id="Rectángulo_5609" data-name="Rectángulo 5609" width="1.91" height="2.333" transform="translate(54.932 13.998)" fill="#383838"/>
      <rect id="Rectángulo_5610" data-name="Rectángulo 5610" width="1.91" height="2.333" transform="translate(56.842 11.665)" fill="#383838"/>
      <rect id="Rectángulo_5611" data-name="Rectángulo 5611" width="53.022" height="2.333" transform="translate(3.82 2.333)" fill="#383838"/>
      <rect id="Rectángulo_5612" data-name="Rectángulo 5612" width="3.82" height="2.333" transform="translate(3.82 2.333)" fill="#383838"/>
      <rect id="Rectángulo_5613" data-name="Rectángulo 5613" width="53.022" height="2.333" transform="translate(3.82 16.331)" fill="#383838"/>
      <rect id="Rectángulo_5614" data-name="Rectángulo 5614" width="1.91" height="2.333" transform="translate(56.842 13.998)" fill="#383838"/>
    </g>
  </g>
  <g id="Grupo_4167" data-name="Grupo 4167" transform="translate(-5 3.435)">
    <g id="Componente_11_74" data-name="Componente 11 – 74" transform="translate(11.944 0.479)">
      <path id="Trazado_13115" data-name="Trazado 13115" d="M1090,435.389V434.26h-.376v-.752h-.376v-.376h-.376v-.376h-.376v-.376h-.376V432h-.376v-.376h-.376v-.376h-.752v-.376h-1.129V430.5H1082.1v.376h-1.129v.376h-.752v.376h-.376V432h-.376v.376h-.376v.376h-.376v.376h-.376v.376h-.376v.752h-.376v1.129h-.376v3.386h.376V439.9h.376v.752h.376v.376h.376v.376h.376v.376h.376v.376h.376v.376h.376v.376h.752v.376h1.129v.376h3.386v-.376h1.129v-.376h.752v-.376h.376v-.376h.376v-.376h.376v-.376h.376v-.376h.376v-.376h.376V439.9H1090v-1.129h.376v-3.386Z" transform="translate(-1077.208 -430.498)" fill="#f8fdff" stroke="#000" stroke-miterlimit="10" stroke-width="1" fill-rule="evenodd"/>
      <g id="Grupo_4165" data-name="Grupo 4165" transform="translate(0)">
        <g id="Grupo_4077" data-name="Grupo 4077" transform="translate(0)">
          <path id="Trazado_12591" data-name="Trazado 12591" d="M949.611,430.874V430.5H953v.376h-3.386Z" transform="translate(-944.721 -430.498)" fill="#007025" fill-rule="evenodd"/>
          <path id="Trazado_12592" data-name="Trazado 12592" d="M947.323,431.637v-.376h1.129v.376Z" transform="translate(-943.561 -430.885)" fill="#007025" fill-rule="evenodd"/>
          <path id="Trazado_12593" data-name="Trazado 12593" d="M956.477,431.261h1.129v.376h-1.129v-.376Z" transform="translate(-948.2 -430.885)" fill="#007025" fill-rule="evenodd"/>
          <path id="Trazado_12594" data-name="Trazado 12594" d="M945.8,432.4v-.376h.752v.376H945.8Z" transform="translate(-942.787 -431.271)" fill="#007025" fill-rule="evenodd"/>
          <path id="Trazado_12595" data-name="Trazado 12595" d="M958.765,432.024h.752v.376h-.752v-.376Z" transform="translate(-949.36 -431.271)" fill="#007025" fill-rule="evenodd"/>
          <path id="Trazado_12596" data-name="Trazado 12596" d="M945.034,433.163v-.376h.376v.376Z" transform="translate(-942.401 -431.658)" fill="#007025" fill-rule="evenodd"/>
          <path id="Trazado_12597" data-name="Trazado 12597" d="M960.291,432.786h.376v.376h-.376v-.376Z" transform="translate(-950.133 -431.658)" fill="#007025" fill-rule="evenodd"/>
          <path id="Trazado_12598" data-name="Trazado 12598" d="M944.271,433.925v-.376h.376v.376Z" transform="translate(-942.014 -432.044)" fill="#007025" fill-rule="evenodd"/>
          <path id="Trazado_12599" data-name="Trazado 12599" d="M961.054,433.549h.376v.376h-.376v-.376Z" transform="translate(-950.52 -432.044)" fill="#007025" fill-rule="evenodd"/>
          <path id="Trazado_12600" data-name="Trazado 12600" d="M943.509,434.688v-.376h.376v.376Z" transform="translate(-941.628 -432.431)" fill="#007025" fill-rule="evenodd"/>
          <path id="Trazado_12601" data-name="Trazado 12601" d="M961.816,434.312h.376v.376h-.376v-.376Z" transform="translate(-950.906 -432.431)" fill="#007025" fill-rule="evenodd"/>
          <path id="Trazado_12602" data-name="Trazado 12602" d="M942.746,435.451v-.376h.376v.376Z" transform="translate(-941.241 -432.818)" fill="#007025" fill-rule="evenodd"/>
          <path id="Trazado_12603" data-name="Trazado 12603" d="M962.579,435.075h.376v.376h-.376v-.376Z" transform="translate(-951.293 -432.818)" fill="#007025" fill-rule="evenodd"/>
          <path id="Trazado_12604" data-name="Trazado 12604" d="M941.983,436.214v-.376h.376v.376Z" transform="translate(-940.854 -433.204)" fill="#007025" fill-rule="evenodd"/>
          <path id="Trazado_12605" data-name="Trazado 12605" d="M963.342,435.838h.376v.376h-.376v-.376Z" transform="translate(-951.68 -433.204)" fill="#007025" fill-rule="evenodd"/>
          <path id="Trazado_12606" data-name="Trazado 12606" d="M941.6,436.6v.752h-.376V436.6Z" transform="translate(-940.468 -433.591)" fill="#007025" fill-rule="evenodd"/>
          <path id="Trazado_12607" data-name="Trazado 12607" d="M964.1,436.6h.376v.752H964.1V436.6Z" transform="translate(-952.066 -433.591)" fill="#007025" fill-rule="evenodd"/>
          <path id="Trazado_12608" data-name="Trazado 12608" d="M940.833,438.126v1.129h-.376v-1.129Z" transform="translate(-940.081 -434.364)" fill="#007025" fill-rule="evenodd"/>
          <path id="Trazado_12609" data-name="Trazado 12609" d="M964.868,438.126h.376v1.129h-.376v-1.129Z" transform="translate(-952.453 -434.364)" fill="#007025" fill-rule="evenodd"/>
          <path id="Trazado_12610" data-name="Trazado 12610" d="M939.694,440.415h.376V443.8h-.376v-3.386Z" transform="translate(-939.694 -435.524)" fill="#007025" fill-rule="evenodd"/>
          <path id="Trazado_12611" data-name="Trazado 12611" d="M965.63,440.415h.376V443.8h-.376v-3.386Z" transform="translate(-952.839 -435.524)" fill="#007025" fill-rule="evenodd"/>
          <path id="Trazado_12612" data-name="Trazado 12612" d="M940.457,447.28h.376v1.129h-.376V447.28Z" transform="translate(-940.081 -439.003)" fill="#007025" fill-rule="evenodd"/>
          <path id="Trazado_12613" data-name="Trazado 12613" d="M965.244,447.28v1.129h-.376V447.28Z" transform="translate(-952.453 -439.003)" fill="#007025" fill-rule="evenodd"/>
          <path id="Trazado_12614" data-name="Trazado 12614" d="M941.22,449.569h.376v.752h-.376v-.752Z" transform="translate(-940.468 -440.163)" fill="#007025" fill-rule="evenodd"/>
          <path id="Trazado_12615" data-name="Trazado 12615" d="M964.481,449.569v.752H964.1v-.752Z" transform="translate(-952.066 -440.163)" fill="#007025" fill-rule="evenodd"/>
          <path id="Trazado_12616" data-name="Trazado 12616" d="M941.983,451.094h.376v.376h-.376v-.376Z" transform="translate(-940.854 -440.937)" fill="#007025" fill-rule="evenodd"/>
          <path id="Trazado_12617" data-name="Trazado 12617" d="M963.342,451.47v-.376h.376v.376Z" transform="translate(-951.68 -440.937)" fill="#007025" fill-rule="evenodd"/>
          <path id="Trazado_12618" data-name="Trazado 12618" d="M942.746,451.857h.376v.376h-.376v-.376Z" transform="translate(-941.241 -441.323)" fill="#007025" fill-rule="evenodd"/>
          <path id="Trazado_12619" data-name="Trazado 12619" d="M962.579,452.233v-.376h.376v.376Z" transform="translate(-951.293 -441.323)" fill="#007025" fill-rule="evenodd"/>
          <path id="Trazado_12620" data-name="Trazado 12620" d="M943.509,452.62h.376V453h-.376v-.376Z" transform="translate(-941.628 -441.71)" fill="#007025" fill-rule="evenodd"/>
          <path id="Trazado_12621" data-name="Trazado 12621" d="M961.816,453v-.376h.376V453Z" transform="translate(-950.906 -441.71)" fill="#007025" fill-rule="evenodd"/>
          <path id="Trazado_12622" data-name="Trazado 12622" d="M944.271,453.383h.376v.376h-.376v-.376Z" transform="translate(-942.014 -442.096)" fill="#007025" fill-rule="evenodd"/>
          <path id="Trazado_12623" data-name="Trazado 12623" d="M961.054,453.759v-.376h.376v.376Z" transform="translate(-950.52 -442.096)" fill="#007025" fill-rule="evenodd"/>
          <path id="Trazado_12624" data-name="Trazado 12624" d="M945.034,454.145h.376v.376h-.376v-.376Z" transform="translate(-942.401 -442.483)" fill="#007025" fill-rule="evenodd"/>
          <path id="Trazado_12625" data-name="Trazado 12625" d="M960.291,454.522v-.376h.376v.376Z" transform="translate(-950.133 -442.483)" fill="#007025" fill-rule="evenodd"/>
          <path id="Trazado_12626" data-name="Trazado 12626" d="M945.8,454.908h.752v.376H945.8v-.376Z" transform="translate(-942.787 -442.87)" fill="#007025" fill-rule="evenodd"/>
          <path id="Trazado_12627" data-name="Trazado 12627" d="M958.765,455.285v-.376h.752v.376h-.752Z" transform="translate(-949.36 -442.87)" fill="#007025" fill-rule="evenodd"/>
          <path id="Trazado_12628" data-name="Trazado 12628" d="M947.323,455.671h1.129v.376h-1.129v-.376Z" transform="translate(-943.561 -443.256)" fill="#007025" fill-rule="evenodd"/>
          <path id="Trazado_12629" data-name="Trazado 12629" d="M956.477,456.047v-.376h1.129v.376h-1.129Z" transform="translate(-948.2 -443.256)" fill="#007025" fill-rule="evenodd"/>
          <path id="Trazado_12630" data-name="Trazado 12630" d="M949.611,456.81v-.376H953v.376Z" transform="translate(-944.721 -443.643)" fill="#007025" fill-rule="evenodd"/>
        </g>
        <g id="Grupo_4078" data-name="Grupo 4078" transform="translate(0.376 4.891)">
          <path id="Trazado_12631" data-name="Trazado 12631" d="M964.094,440.415h.376v2.257h-.376V442.3h-.376v-.376h-.376v-.752h.376v-.376h.376v-.376Z" transform="translate(-952.056 -440.415)" fill="#007025" fill-rule="evenodd"/>
          <path id="Trazado_12632" data-name="Trazado 12632" d="M954.136,446.873h-.752v.376H951.5v1.129h-.376v-1.5h-.376V446.5h-.376v-.376h.376v-.376h1.881v-.376h1.129v-.376h.753v.752h-.376v1.129Z" transform="translate(-945.483 -442.734)" fill="#007025" fill-rule="evenodd"/>
          <path id="Trazado_12633" data-name="Trazado 12633" d="M940.457,446.893v-.376h.752v.376h1.5v1.881h-.376v.752h-.376v-.376h-.376v-.376h-.376v-.752h-.376v-1.129Z" transform="translate(-940.457 -443.508)" fill="#007025" fill-rule="evenodd"/>
          <path id="Trazado_12634" data-name="Trazado 12634" d="M958,448.806h.376v.376H958v-.376Z" transform="translate(-949.349 -444.668)" fill="#007025" fill-rule="evenodd"/>
          <path id="Trazado_12635" data-name="Trazado 12635" d="M958.765,449.569h.376v.376h-.376v-.376Z" transform="translate(-949.736 -445.054)" fill="#007025" fill-rule="evenodd"/>
          <path id="Trazado_12636" data-name="Trazado 12636" d="M959.528,450.331h.376v.376h-.376v-.376Z" transform="translate(-950.123 -445.441)" fill="#007025" fill-rule="evenodd"/>
          <path id="Trazado_12637" data-name="Trazado 12637" d="M958.765,452.589v-.376h.376v-.752h.376v-.752h1.129v-.376h.753v.376h-.376v.376h-.376v.376h-.376v.376h-.376v.376h-.376v.376h-.752Z" transform="translate(-949.736 -445.441)" fill="#007025" fill-rule="evenodd"/>
          <path id="Trazado_12638" data-name="Trazado 12638" d="M949.58,451.857v1.129h.376v.752h.376v.376h-1.881v-.376h-1.129v-.376h.752v-.376h.752v-.376h.376v-.752Z" transform="translate(-943.937 -446.214)" fill="#007025" fill-rule="evenodd"/>
          <path id="Trazado_12639" data-name="Trazado 12639" d="M944.271,452.62h.376V453h-.376v-.376Z" transform="translate(-942.39 -446.601)" fill="#007025" fill-rule="evenodd"/>
          <path id="Trazado_12640" data-name="Trazado 12640" d="M945.034,453.383h.376v.376h-.376v-.376Z" transform="translate(-942.777 -446.987)" fill="#007025" fill-rule="evenodd"/>
          <path id="Trazado_12641" data-name="Trazado 12641" d="M945.8,454.145h.376v.376H945.8v-.376Z" transform="translate(-943.164 -447.374)" fill="#007025" fill-rule="evenodd"/>
          <path id="Trazado_12642" data-name="Trazado 12642" d="M958.378,454.908v.376H958v-.376Z" transform="translate(-949.349 -447.76)" fill="#007025" fill-rule="evenodd"/>
          <path id="Trazado_12643" data-name="Trazado 12643" d="M955.714,456.047v-.376h.376v.376Z" transform="translate(-948.19 -448.147)" fill="#007025" fill-rule="evenodd"/>
        </g>
        <g id="Grupo_4079" data-name="Grupo 4079" transform="translate(0.376 0.376)">
          <path id="Trazado_12644" data-name="Trazado 12644" d="M952.266,431.261h1.5v.376H954.9v.376h.752v.376h.376v.752h-.376v.376H953.77v1.129h-.376v-1.5h-.376v-.376h-.376v-.376h-1.5v-.376h1.129v-.752Z" transform="translate(-945.87 -431.261)" fill="#007025" fill-rule="evenodd"/>
          <path id="Trazado_12645" data-name="Trazado 12645" d="M944.616,433.915v.376h-.752v.376h.376v.376h-.376v.376h-.376v-.752h-.752v.376h-.752v-.376h.376v-.376h.376v-.376h.376v-.376h.376v-.376h.376v-.376h.376v1.129Z" transform="translate(-941.231 -432.034)" fill="#007025" fill-rule="evenodd"/>
          <path id="Trazado_12646" data-name="Trazado 12646" d="M948.848,433.925v-.376h1.129v.376Z" transform="translate(-944.71 -432.421)" fill="#007025" fill-rule="evenodd"/>
          <path id="Trazado_12647" data-name="Trazado 12647" d="M947.323,434.688v-.376h.752v.376h-.752Z" transform="translate(-943.937 -432.807)" fill="#007025" fill-rule="evenodd"/>
          <path id="Trazado_12648" data-name="Trazado 12648" d="M960.291,435.838h.376v.376h-.376v-.376Z" transform="translate(-950.509 -433.581)" fill="#007025" fill-rule="evenodd"/>
          <path id="Trazado_12649" data-name="Trazado 12649" d="M961.054,436.6h.376v.376h-.376V436.6Z" transform="translate(-950.896 -433.967)" fill="#007025" fill-rule="evenodd"/>
          <path id="Trazado_12650" data-name="Trazado 12650" d="M946.56,437.363h.376v.376h-.376v-.376Z" transform="translate(-943.55 -434.354)" fill="#007025" fill-rule="evenodd"/>
          <path id="Trazado_12651" data-name="Trazado 12651" d="M961.816,437.363h.376v.376h-.376v-.376Z" transform="translate(-951.283 -434.354)" fill="#007025" fill-rule="evenodd"/>
          <path id="Trazado_12652" data-name="Trazado 12652" d="M944.648,438.126v.752h-.376v-.752Z" transform="translate(-942.39 -434.74)" fill="#007025" fill-rule="evenodd"/>
          <path id="Trazado_12653" data-name="Trazado 12653" d="M947.323,438.126h.376v.376h-.376v-.376Z" transform="translate(-943.937 -434.74)" fill="#007025" fill-rule="evenodd"/>
          <path id="Trazado_12654" data-name="Trazado 12654" d="M951.461,438.126v1.5h.376v.376h.376v.376h.376v.376h.376v.752h-.752v.376h-1.129v.376H949.2v.376h-.752v-.376h-1.129v-.376h1.129v-1.5h.376v-.752h.752v-.376h1.5v-1.129Z" transform="translate(-943.937 -434.74)" fill="#007025" fill-rule="evenodd"/>
          <path id="Trazado_12655" data-name="Trazado 12655" d="M962.579,438.126h.376v.376h-.376v-.376Z" transform="translate(-951.669 -434.74)" fill="#007025" fill-rule="evenodd"/>
          <path id="Trazado_12656" data-name="Trazado 12656" d="M962.935,438.126v1.5h-.376v.376h-.376v.376h-1.129v-.376h.752v-1.129h.376V438.5h.376v-.376Z" transform="translate(-950.896 -434.74)" fill="#007025" fill-rule="evenodd"/>
          <path id="Trazado_12657" data-name="Trazado 12657" d="M948.085,438.889h.376v.376h-.376v-.376Z" transform="translate(-944.323 -435.127)" fill="#007025" fill-rule="evenodd"/>
          <path id="Trazado_12658" data-name="Trazado 12658" d="M943.885,439.652v1.129h-.376v-1.129Z" transform="translate(-942.004 -435.514)" fill="#007025" fill-rule="evenodd"/>
          <path id="Trazado_12659" data-name="Trazado 12659" d="M948.848,439.652h.376v.376h-.376v-.376Z" transform="translate(-944.71 -435.514)" fill="#007025" fill-rule="evenodd"/>
          <path id="Trazado_12660" data-name="Trazado 12660" d="M949.611,440.415h.376v.376h-.376v-.376Z" transform="translate(-945.097 -435.9)" fill="#007025" fill-rule="evenodd"/>
          <path id="Trazado_12661" data-name="Trazado 12661" d="M943.122,441.94v1.129h-.376V441.94Z" transform="translate(-941.617 -436.673)" fill="#007025" fill-rule="evenodd"/>
          <path id="Trazado_12662" data-name="Trazado 12662" d="M958.765,443.079V442.7h1.129v.376h-1.129Z" transform="translate(-949.736 -437.06)" fill="#007025" fill-rule="evenodd"/>
          <path id="Trazado_12663" data-name="Trazado 12663" d="M940.457,444.229h1.129v.376h.376v.376h.376v.376h1.5v.376H941.21v-.376h-.752v-1.129Z" transform="translate(-940.457 -437.833)" fill="#007025" fill-rule="evenodd"/>
        </g>
        <g id="Grupo_4080" data-name="Grupo 4080" transform="translate(2.257 6.019)">
          <path id="Trazado_12664" data-name="Trazado 12664" d="M960.259,442.7h.376v.376h.376v.376h.376v.376h.376v1.129h-.376v1.129h-.376v.376h-.753v.376h-1.128v-.376h-.376v-.376h-.376v-.376H958v-1.129h.376v-.753h.376v-.376h.752v-.376h.752V442.7Z" transform="translate(-951.231 -442.703)" fill="#c8d6dc" fill-rule="evenodd"/>
          <path id="Trazado_12665" data-name="Trazado 12665" d="M948.034,449.537h-.376v.752h-.376v.376h-.752v.376H945.4v-.376h-.376v-.376h-.376v-.376h-.376v-.752h.376V447.28h2.633v.376h.376v.376h.376v1.5Z" transform="translate(-944.271 -445.023)" fill="#c8d6dc" fill-rule="evenodd"/>
          <path id="Trazado_12666" data-name="Trazado 12666" d="M954.909,448.806v.376h.376v.376h.376v.376h.376v.752h-.376v.752h-.376v.376h-.376v.376h-1.129v.376h-1.129v-.376h-.376v-.752H951.9v-1.129h.376v-1.129h1.881v-.376h.752Z" transform="translate(-948.138 -445.796)" fill="#c8d6dc" fill-rule="evenodd"/>
        </g>
        <g id="Grupo_4081" data-name="Grupo 4081" transform="translate(0.376 0.376)">
          <path id="Trazado_12667" data-name="Trazado 12667" d="M948.065,431.261h1.881v.752h-1.129v.376h-1.129v.376h-.753v.376h-.376v-1.129h.376v-.376h1.129v-.376Z" transform="translate(-943.55 -431.261)" fill="#f8fdff" fill-rule="evenodd"/>
          <path id="Trazado_12668" data-name="Trazado 12668" d="M948.431,433.549h1.5v.376h.376v.376h.376v1.5h-.376v1.129h-1.5v.376h-.752v-.376h-.376v-.376H947.3v-.376h-.376v-.376h-.376v-.376h-.376v-.376H945.8v-.376h.752V434.3h.752v-.376h1.129v-.376Z" transform="translate(-943.164 -432.421)" fill="#f8fdff" fill-rule="evenodd"/>
          <path id="Trazado_12669" data-name="Trazado 12669" d="M962.172,435.441v1.129H961.8v-.376h-.376v-.376h-.376v-.376h-.376v-.376h-.376v-.376h.376v-.376h.376v.376h.376v.376h.376v.376Z" transform="translate(-950.509 -432.807)" fill="#f8fdff" fill-rule="evenodd"/>
          <path id="Trazado_12670" data-name="Trazado 12670" d="M957.971,435.838v.376h.376v.376h.376v.376h.376v.376h.376v.376H959.1v1.129h-.752v.376h-1.129v.376h-.376v-.376h-.376v-.376h-.376v-.376h-.376v-1.5h.376v-1.129h1.881Z" transform="translate(-948.19 -433.581)" fill="#f8fdff" fill-rule="evenodd"/>
          <path id="Trazado_12671" data-name="Trazado 12671" d="M942.715,437.353h-.376v.752h-.376v1.129h-.376v1.129h-1.129v-1.881h.376v-1.129h.376v-.376h.752V436.6h.753v.752Z" transform="translate(-940.457 -433.967)" fill="#f8fdff" fill-rule="evenodd"/>
          <path id="Trazado_12672" data-name="Trazado 12672" d="M944.627,437.363v.376H945v.376h.376v.376h.376v.376h.376v.376h.376V440h-.376v1.5H945v.376h-1.5V441.5h-.376v-.376h-.376v-.376h.376v-1.129h.376v-1.129h.376v-.752h.376v-.376Z" transform="translate(-941.617 -434.354)" fill="#f8fdff" fill-rule="evenodd"/>
          <path id="Trazado_12673" data-name="Trazado 12673" d="M961.054,443.079V442.7h.752v.376h-.752Z" transform="translate(-950.896 -437.06)" fill="#f8fdff" fill-rule="evenodd"/>
          <path id="Trazado_12674" data-name="Trazado 12674" d="M958.765,443.466h1.129v.376h-.752v.376h-.376v-.752Z" transform="translate(-949.736 -437.447)" fill="#f8fdff" fill-rule="evenodd"/>
          <path id="Trazado_12675" data-name="Trazado 12675" d="M947.323,446.893v-.376h1.129v.376Z" transform="translate(-943.937 -438.993)" fill="#f8fdff" fill-rule="evenodd"/>
        </g>
      </g>
    </g>
    <g id="Componente_11_75" data-name="Componente 11 – 75" transform="translate(28.747 0.479)">
      <path id="Trazado_13115-2" data-name="Trazado 13115" d="M1090,435.389V434.26h-.376v-.752h-.376v-.376h-.376v-.376h-.376v-.376h-.376V432h-.376v-.376h-.376v-.376h-.752v-.376h-1.129V430.5H1082.1v.376h-1.129v.376h-.752v.376h-.376V432h-.376v.376h-.376v.376h-.376v.376h-.376v.376h-.376v.752h-.376v1.129h-.376v3.386h.376V439.9h.376v.752h.376v.376h.376v.376h.376v.376h.376v.376h.376v.376h.376v.376h.752v.376h1.129v.376h3.386v-.376h1.129v-.376h.752v-.376h.376v-.376h.376v-.376h.376v-.376h.376v-.376h.376v-.376h.376V439.9H1090v-1.129h.376v-3.386Z" transform="translate(-1077.208 -430.498)" fill="#f8fdff" stroke="#000" stroke-miterlimit="10" stroke-width="1" fill-rule="evenodd"/>
      <g id="Grupo_4165-2" data-name="Grupo 4165" transform="translate(0)">
        <g id="Grupo_4077-2" data-name="Grupo 4077" transform="translate(0)">
          <path id="Trazado_12591-2" data-name="Trazado 12591" d="M949.611,430.874V430.5H953v.376h-3.386Z" transform="translate(-944.721 -430.498)" fill="#007025" fill-rule="evenodd"/>
          <path id="Trazado_12592-2" data-name="Trazado 12592" d="M947.323,431.637v-.376h1.129v.376Z" transform="translate(-943.561 -430.885)" fill="#007025" fill-rule="evenodd"/>
          <path id="Trazado_12593-2" data-name="Trazado 12593" d="M956.477,431.261h1.129v.376h-1.129v-.376Z" transform="translate(-948.2 -430.885)" fill="#007025" fill-rule="evenodd"/>
          <path id="Trazado_12594-2" data-name="Trazado 12594" d="M945.8,432.4v-.376h.752v.376H945.8Z" transform="translate(-942.787 -431.271)" fill="#007025" fill-rule="evenodd"/>
          <path id="Trazado_12595-2" data-name="Trazado 12595" d="M958.765,432.024h.752v.376h-.752v-.376Z" transform="translate(-949.36 -431.271)" fill="#007025" fill-rule="evenodd"/>
          <path id="Trazado_12596-2" data-name="Trazado 12596" d="M945.034,433.163v-.376h.376v.376Z" transform="translate(-942.401 -431.658)" fill="#007025" fill-rule="evenodd"/>
          <path id="Trazado_12597-2" data-name="Trazado 12597" d="M960.291,432.786h.376v.376h-.376v-.376Z" transform="translate(-950.133 -431.658)" fill="#007025" fill-rule="evenodd"/>
          <path id="Trazado_12598-2" data-name="Trazado 12598" d="M944.271,433.925v-.376h.376v.376Z" transform="translate(-942.014 -432.044)" fill="#007025" fill-rule="evenodd"/>
          <path id="Trazado_12599-2" data-name="Trazado 12599" d="M961.054,433.549h.376v.376h-.376v-.376Z" transform="translate(-950.52 -432.044)" fill="#007025" fill-rule="evenodd"/>
          <path id="Trazado_12600-2" data-name="Trazado 12600" d="M943.509,434.688v-.376h.376v.376Z" transform="translate(-941.628 -432.431)" fill="#007025" fill-rule="evenodd"/>
          <path id="Trazado_12601-2" data-name="Trazado 12601" d="M961.816,434.312h.376v.376h-.376v-.376Z" transform="translate(-950.906 -432.431)" fill="#007025" fill-rule="evenodd"/>
          <path id="Trazado_12602-2" data-name="Trazado 12602" d="M942.746,435.451v-.376h.376v.376Z" transform="translate(-941.241 -432.818)" fill="#007025" fill-rule="evenodd"/>
          <path id="Trazado_12603-2" data-name="Trazado 12603" d="M962.579,435.075h.376v.376h-.376v-.376Z" transform="translate(-951.293 -432.818)" fill="#007025" fill-rule="evenodd"/>
          <path id="Trazado_12604-2" data-name="Trazado 12604" d="M941.983,436.214v-.376h.376v.376Z" transform="translate(-940.854 -433.204)" fill="#007025" fill-rule="evenodd"/>
          <path id="Trazado_12605-2" data-name="Trazado 12605" d="M963.342,435.838h.376v.376h-.376v-.376Z" transform="translate(-951.68 -433.204)" fill="#007025" fill-rule="evenodd"/>
          <path id="Trazado_12606-2" data-name="Trazado 12606" d="M941.6,436.6v.752h-.376V436.6Z" transform="translate(-940.468 -433.591)" fill="#007025" fill-rule="evenodd"/>
          <path id="Trazado_12607-2" data-name="Trazado 12607" d="M964.1,436.6h.376v.752H964.1V436.6Z" transform="translate(-952.066 -433.591)" fill="#007025" fill-rule="evenodd"/>
          <path id="Trazado_12608-2" data-name="Trazado 12608" d="M940.833,438.126v1.129h-.376v-1.129Z" transform="translate(-940.081 -434.364)" fill="#007025" fill-rule="evenodd"/>
          <path id="Trazado_12609-2" data-name="Trazado 12609" d="M964.868,438.126h.376v1.129h-.376v-1.129Z" transform="translate(-952.453 -434.364)" fill="#007025" fill-rule="evenodd"/>
          <path id="Trazado_12610-2" data-name="Trazado 12610" d="M939.694,440.415h.376V443.8h-.376v-3.386Z" transform="translate(-939.694 -435.524)" fill="#007025" fill-rule="evenodd"/>
          <path id="Trazado_12611-2" data-name="Trazado 12611" d="M965.63,440.415h.376V443.8h-.376v-3.386Z" transform="translate(-952.839 -435.524)" fill="#007025" fill-rule="evenodd"/>
          <path id="Trazado_12612-2" data-name="Trazado 12612" d="M940.457,447.28h.376v1.129h-.376V447.28Z" transform="translate(-940.081 -439.003)" fill="#007025" fill-rule="evenodd"/>
          <path id="Trazado_12613-2" data-name="Trazado 12613" d="M965.244,447.28v1.129h-.376V447.28Z" transform="translate(-952.453 -439.003)" fill="#007025" fill-rule="evenodd"/>
          <path id="Trazado_12614-2" data-name="Trazado 12614" d="M941.22,449.569h.376v.752h-.376v-.752Z" transform="translate(-940.468 -440.163)" fill="#007025" fill-rule="evenodd"/>
          <path id="Trazado_12615-2" data-name="Trazado 12615" d="M964.481,449.569v.752H964.1v-.752Z" transform="translate(-952.066 -440.163)" fill="#007025" fill-rule="evenodd"/>
          <path id="Trazado_12616-2" data-name="Trazado 12616" d="M941.983,451.094h.376v.376h-.376v-.376Z" transform="translate(-940.854 -440.937)" fill="#007025" fill-rule="evenodd"/>
          <path id="Trazado_12617-2" data-name="Trazado 12617" d="M963.342,451.47v-.376h.376v.376Z" transform="translate(-951.68 -440.937)" fill="#007025" fill-rule="evenodd"/>
          <path id="Trazado_12618-2" data-name="Trazado 12618" d="M942.746,451.857h.376v.376h-.376v-.376Z" transform="translate(-941.241 -441.323)" fill="#007025" fill-rule="evenodd"/>
          <path id="Trazado_12619-2" data-name="Trazado 12619" d="M962.579,452.233v-.376h.376v.376Z" transform="translate(-951.293 -441.323)" fill="#007025" fill-rule="evenodd"/>
          <path id="Trazado_12620-2" data-name="Trazado 12620" d="M943.509,452.62h.376V453h-.376v-.376Z" transform="translate(-941.628 -441.71)" fill="#007025" fill-rule="evenodd"/>
          <path id="Trazado_12621-2" data-name="Trazado 12621" d="M961.816,453v-.376h.376V453Z" transform="translate(-950.906 -441.71)" fill="#007025" fill-rule="evenodd"/>
          <path id="Trazado_12622-2" data-name="Trazado 12622" d="M944.271,453.383h.376v.376h-.376v-.376Z" transform="translate(-942.014 -442.096)" fill="#007025" fill-rule="evenodd"/>
          <path id="Trazado_12623-2" data-name="Trazado 12623" d="M961.054,453.759v-.376h.376v.376Z" transform="translate(-950.52 -442.096)" fill="#007025" fill-rule="evenodd"/>
          <path id="Trazado_12624-2" data-name="Trazado 12624" d="M945.034,454.145h.376v.376h-.376v-.376Z" transform="translate(-942.401 -442.483)" fill="#007025" fill-rule="evenodd"/>
          <path id="Trazado_12625-2" data-name="Trazado 12625" d="M960.291,454.522v-.376h.376v.376Z" transform="translate(-950.133 -442.483)" fill="#007025" fill-rule="evenodd"/>
          <path id="Trazado_12626-2" data-name="Trazado 12626" d="M945.8,454.908h.752v.376H945.8v-.376Z" transform="translate(-942.787 -442.87)" fill="#007025" fill-rule="evenodd"/>
          <path id="Trazado_12627-2" data-name="Trazado 12627" d="M958.765,455.285v-.376h.752v.376h-.752Z" transform="translate(-949.36 -442.87)" fill="#007025" fill-rule="evenodd"/>
          <path id="Trazado_12628-2" data-name="Trazado 12628" d="M947.323,455.671h1.129v.376h-1.129v-.376Z" transform="translate(-943.561 -443.256)" fill="#007025" fill-rule="evenodd"/>
          <path id="Trazado_12629-2" data-name="Trazado 12629" d="M956.477,456.047v-.376h1.129v.376h-1.129Z" transform="translate(-948.2 -443.256)" fill="#007025" fill-rule="evenodd"/>
          <path id="Trazado_12630-2" data-name="Trazado 12630" d="M949.611,456.81v-.376H953v.376Z" transform="translate(-944.721 -443.643)" fill="#007025" fill-rule="evenodd"/>
        </g>
        <g id="Grupo_4078-2" data-name="Grupo 4078" transform="translate(0.376 4.891)">
          <path id="Trazado_12631-2" data-name="Trazado 12631" d="M964.094,440.415h.376v2.257h-.376V442.3h-.376v-.376h-.376v-.752h.376v-.376h.376v-.376Z" transform="translate(-952.056 -440.415)" fill="#007025" fill-rule="evenodd"/>
          <path id="Trazado_12632-2" data-name="Trazado 12632" d="M954.136,446.873h-.752v.376H951.5v1.129h-.376v-1.5h-.376V446.5h-.376v-.376h.376v-.376h1.881v-.376h1.129v-.376h.753v.752h-.376v1.129Z" transform="translate(-945.483 -442.734)" fill="#007025" fill-rule="evenodd"/>
          <path id="Trazado_12633-2" data-name="Trazado 12633" d="M940.457,446.893v-.376h.752v.376h1.5v1.881h-.376v.752h-.376v-.376h-.376v-.376h-.376v-.752h-.376v-1.129Z" transform="translate(-940.457 -443.508)" fill="#007025" fill-rule="evenodd"/>
          <path id="Trazado_12634-2" data-name="Trazado 12634" d="M958,448.806h.376v.376H958v-.376Z" transform="translate(-949.349 -444.668)" fill="#007025" fill-rule="evenodd"/>
          <path id="Trazado_12635-2" data-name="Trazado 12635" d="M958.765,449.569h.376v.376h-.376v-.376Z" transform="translate(-949.736 -445.054)" fill="#007025" fill-rule="evenodd"/>
          <path id="Trazado_12636-2" data-name="Trazado 12636" d="M959.528,450.331h.376v.376h-.376v-.376Z" transform="translate(-950.123 -445.441)" fill="#007025" fill-rule="evenodd"/>
          <path id="Trazado_12637-2" data-name="Trazado 12637" d="M958.765,452.589v-.376h.376v-.752h.376v-.752h1.129v-.376h.753v.376h-.376v.376h-.376v.376h-.376v.376h-.376v.376h-.376v.376h-.752Z" transform="translate(-949.736 -445.441)" fill="#007025" fill-rule="evenodd"/>
          <path id="Trazado_12638-2" data-name="Trazado 12638" d="M949.58,451.857v1.129h.376v.752h.376v.376h-1.881v-.376h-1.129v-.376h.752v-.376h.752v-.376h.376v-.752Z" transform="translate(-943.937 -446.214)" fill="#007025" fill-rule="evenodd"/>
          <path id="Trazado_12639-2" data-name="Trazado 12639" d="M944.271,452.62h.376V453h-.376v-.376Z" transform="translate(-942.39 -446.601)" fill="#007025" fill-rule="evenodd"/>
          <path id="Trazado_12640-2" data-name="Trazado 12640" d="M945.034,453.383h.376v.376h-.376v-.376Z" transform="translate(-942.777 -446.987)" fill="#007025" fill-rule="evenodd"/>
          <path id="Trazado_12641-2" data-name="Trazado 12641" d="M945.8,454.145h.376v.376H945.8v-.376Z" transform="translate(-943.164 -447.374)" fill="#007025" fill-rule="evenodd"/>
          <path id="Trazado_12642-2" data-name="Trazado 12642" d="M958.378,454.908v.376H958v-.376Z" transform="translate(-949.349 -447.76)" fill="#007025" fill-rule="evenodd"/>
          <path id="Trazado_12643-2" data-name="Trazado 12643" d="M955.714,456.047v-.376h.376v.376Z" transform="translate(-948.19 -448.147)" fill="#007025" fill-rule="evenodd"/>
        </g>
        <g id="Grupo_4079-2" data-name="Grupo 4079" transform="translate(0.376 0.376)">
          <path id="Trazado_12644-2" data-name="Trazado 12644" d="M952.266,431.261h1.5v.376H954.9v.376h.752v.376h.376v.752h-.376v.376H953.77v1.129h-.376v-1.5h-.376v-.376h-.376v-.376h-1.5v-.376h1.129v-.752Z" transform="translate(-945.87 -431.261)" fill="#007025" fill-rule="evenodd"/>
          <path id="Trazado_12645-2" data-name="Trazado 12645" d="M944.616,433.915v.376h-.752v.376h.376v.376h-.376v.376h-.376v-.752h-.752v.376h-.752v-.376h.376v-.376h.376v-.376h.376v-.376h.376v-.376h.376v-.376h.376v1.129Z" transform="translate(-941.231 -432.034)" fill="#007025" fill-rule="evenodd"/>
          <path id="Trazado_12646-2" data-name="Trazado 12646" d="M948.848,433.925v-.376h1.129v.376Z" transform="translate(-944.71 -432.421)" fill="#007025" fill-rule="evenodd"/>
          <path id="Trazado_12647-2" data-name="Trazado 12647" d="M947.323,434.688v-.376h.752v.376h-.752Z" transform="translate(-943.937 -432.807)" fill="#007025" fill-rule="evenodd"/>
          <path id="Trazado_12648-2" data-name="Trazado 12648" d="M960.291,435.838h.376v.376h-.376v-.376Z" transform="translate(-950.509 -433.581)" fill="#007025" fill-rule="evenodd"/>
          <path id="Trazado_12649-2" data-name="Trazado 12649" d="M961.054,436.6h.376v.376h-.376V436.6Z" transform="translate(-950.896 -433.967)" fill="#007025" fill-rule="evenodd"/>
          <path id="Trazado_12650-2" data-name="Trazado 12650" d="M946.56,437.363h.376v.376h-.376v-.376Z" transform="translate(-943.55 -434.354)" fill="#007025" fill-rule="evenodd"/>
          <path id="Trazado_12651-2" data-name="Trazado 12651" d="M961.816,437.363h.376v.376h-.376v-.376Z" transform="translate(-951.283 -434.354)" fill="#007025" fill-rule="evenodd"/>
          <path id="Trazado_12652-2" data-name="Trazado 12652" d="M944.648,438.126v.752h-.376v-.752Z" transform="translate(-942.39 -434.74)" fill="#007025" fill-rule="evenodd"/>
          <path id="Trazado_12653-2" data-name="Trazado 12653" d="M947.323,438.126h.376v.376h-.376v-.376Z" transform="translate(-943.937 -434.74)" fill="#007025" fill-rule="evenodd"/>
          <path id="Trazado_12654-2" data-name="Trazado 12654" d="M951.461,438.126v1.5h.376v.376h.376v.376h.376v.376h.376v.752h-.752v.376h-1.129v.376H949.2v.376h-.752v-.376h-1.129v-.376h1.129v-1.5h.376v-.752h.752v-.376h1.5v-1.129Z" transform="translate(-943.937 -434.74)" fill="#007025" fill-rule="evenodd"/>
          <path id="Trazado_12655-2" data-name="Trazado 12655" d="M962.579,438.126h.376v.376h-.376v-.376Z" transform="translate(-951.669 -434.74)" fill="#007025" fill-rule="evenodd"/>
          <path id="Trazado_12656-2" data-name="Trazado 12656" d="M962.935,438.126v1.5h-.376v.376h-.376v.376h-1.129v-.376h.752v-1.129h.376V438.5h.376v-.376Z" transform="translate(-950.896 -434.74)" fill="#007025" fill-rule="evenodd"/>
          <path id="Trazado_12657-2" data-name="Trazado 12657" d="M948.085,438.889h.376v.376h-.376v-.376Z" transform="translate(-944.323 -435.127)" fill="#007025" fill-rule="evenodd"/>
          <path id="Trazado_12658-2" data-name="Trazado 12658" d="M943.885,439.652v1.129h-.376v-1.129Z" transform="translate(-942.004 -435.514)" fill="#007025" fill-rule="evenodd"/>
          <path id="Trazado_12659-2" data-name="Trazado 12659" d="M948.848,439.652h.376v.376h-.376v-.376Z" transform="translate(-944.71 -435.514)" fill="#007025" fill-rule="evenodd"/>
          <path id="Trazado_12660-2" data-name="Trazado 12660" d="M949.611,440.415h.376v.376h-.376v-.376Z" transform="translate(-945.097 -435.9)" fill="#007025" fill-rule="evenodd"/>
          <path id="Trazado_12661-2" data-name="Trazado 12661" d="M943.122,441.94v1.129h-.376V441.94Z" transform="translate(-941.617 -436.673)" fill="#007025" fill-rule="evenodd"/>
          <path id="Trazado_12662-2" data-name="Trazado 12662" d="M958.765,443.079V442.7h1.129v.376h-1.129Z" transform="translate(-949.736 -437.06)" fill="#007025" fill-rule="evenodd"/>
          <path id="Trazado_12663-2" data-name="Trazado 12663" d="M940.457,444.229h1.129v.376h.376v.376h.376v.376h1.5v.376H941.21v-.376h-.752v-1.129Z" transform="translate(-940.457 -437.833)" fill="#007025" fill-rule="evenodd"/>
        </g>
        <g id="Grupo_4080-2" data-name="Grupo 4080" transform="translate(2.257 6.019)">
          <path id="Trazado_12664-2" data-name="Trazado 12664" d="M960.259,442.7h.376v.376h.376v.376h.376v.376h.376v1.129h-.376v1.129h-.376v.376h-.753v.376h-1.128v-.376h-.376v-.376h-.376v-.376H958v-1.129h.376v-.753h.376v-.376h.752v-.376h.752V442.7Z" transform="translate(-951.231 -442.703)" fill="#c8d6dc" fill-rule="evenodd"/>
          <path id="Trazado_12665-2" data-name="Trazado 12665" d="M948.034,449.537h-.376v.752h-.376v.376h-.752v.376H945.4v-.376h-.376v-.376h-.376v-.376h-.376v-.752h.376V447.28h2.633v.376h.376v.376h.376v1.5Z" transform="translate(-944.271 -445.023)" fill="#c8d6dc" fill-rule="evenodd"/>
          <path id="Trazado_12666-2" data-name="Trazado 12666" d="M954.909,448.806v.376h.376v.376h.376v.376h.376v.752h-.376v.752h-.376v.376h-.376v.376h-1.129v.376h-1.129v-.376h-.376v-.752H951.9v-1.129h.376v-1.129h1.881v-.376h.752Z" transform="translate(-948.138 -445.796)" fill="#c8d6dc" fill-rule="evenodd"/>
        </g>
        <g id="Grupo_4081-2" data-name="Grupo 4081" transform="translate(0.376 0.376)">
          <path id="Trazado_12667-2" data-name="Trazado 12667" d="M948.065,431.261h1.881v.752h-1.129v.376h-1.129v.376h-.753v.376h-.376v-1.129h.376v-.376h1.129v-.376Z" transform="translate(-943.55 -431.261)" fill="#f8fdff" fill-rule="evenodd"/>
          <path id="Trazado_12668-2" data-name="Trazado 12668" d="M948.431,433.549h1.5v.376h.376v.376h.376v1.5h-.376v1.129h-1.5v.376h-.752v-.376h-.376v-.376H947.3v-.376h-.376v-.376h-.376v-.376h-.376v-.376H945.8v-.376h.752V434.3h.752v-.376h1.129v-.376Z" transform="translate(-943.164 -432.421)" fill="#f8fdff" fill-rule="evenodd"/>
          <path id="Trazado_12669-2" data-name="Trazado 12669" d="M962.172,435.441v1.129H961.8v-.376h-.376v-.376h-.376v-.376h-.376v-.376h-.376v-.376h.376v-.376h.376v.376h.376v.376h.376v.376Z" transform="translate(-950.509 -432.807)" fill="#f8fdff" fill-rule="evenodd"/>
          <path id="Trazado_12670-2" data-name="Trazado 12670" d="M957.971,435.838v.376h.376v.376h.376v.376h.376v.376h.376v.376H959.1v1.129h-.752v.376h-1.129v.376h-.376v-.376h-.376v-.376h-.376v-.376h-.376v-1.5h.376v-1.129h1.881Z" transform="translate(-948.19 -433.581)" fill="#f8fdff" fill-rule="evenodd"/>
          <path id="Trazado_12671-2" data-name="Trazado 12671" d="M942.715,437.353h-.376v.752h-.376v1.129h-.376v1.129h-1.129v-1.881h.376v-1.129h.376v-.376h.752V436.6h.753v.752Z" transform="translate(-940.457 -433.967)" fill="#f8fdff" fill-rule="evenodd"/>
          <path id="Trazado_12672-2" data-name="Trazado 12672" d="M944.627,437.363v.376H945v.376h.376v.376h.376v.376h.376v.376h.376V440h-.376v1.5H945v.376h-1.5V441.5h-.376v-.376h-.376v-.376h.376v-1.129h.376v-1.129h.376v-.752h.376v-.376Z" transform="translate(-941.617 -434.354)" fill="#f8fdff" fill-rule="evenodd"/>
          <path id="Trazado_12673-2" data-name="Trazado 12673" d="M961.054,443.079V442.7h.752v.376h-.752Z" transform="translate(-950.896 -437.06)" fill="#f8fdff" fill-rule="evenodd"/>
          <path id="Trazado_12674-2" data-name="Trazado 12674" d="M958.765,443.466h1.129v.376h-.752v.376h-.376v-.752Z" transform="translate(-949.736 -437.447)" fill="#f8fdff" fill-rule="evenodd"/>
          <path id="Trazado_12675-2" data-name="Trazado 12675" d="M947.323,446.893v-.376h1.129v.376Z" transform="translate(-943.937 -438.993)" fill="#f8fdff" fill-rule="evenodd"/>
        </g>
      </g>
    </g>
    <g id="Componente_11_76" data-name="Componente 11 – 76" transform="translate(45.55 0.479)">
      <path id="Trazado_13115-3" data-name="Trazado 13115" d="M1090,435.389V434.26h-.376v-.752h-.376v-.376h-.376v-.376h-.376v-.376h-.376V432h-.376v-.376h-.376v-.376h-.752v-.376h-1.129V430.5H1082.1v.376h-1.129v.376h-.752v.376h-.376V432h-.376v.376h-.376v.376h-.376v.376h-.376v.376h-.376v.752h-.376v1.129h-.376v3.386h.376V439.9h.376v.752h.376v.376h.376v.376h.376v.376h.376v.376h.376v.376h.376v.376h.752v.376h1.129v.376h3.386v-.376h1.129v-.376h.752v-.376h.376v-.376h.376v-.376h.376v-.376h.376v-.376h.376v-.376h.376V439.9H1090v-1.129h.376v-3.386Z" transform="translate(-1077.208 -430.498)" fill="#f8fdff" stroke="#000" stroke-miterlimit="10" stroke-width="1" fill-rule="evenodd"/>
    </g>
  </g>
</svg>
