<svg id="Grupo_4155" data-name="Grupo 4155" xmlns="http://www.w3.org/2000/svg" width="60.662" height="20.996" viewBox="0 0 60.662 20.996">
  <g id="Grupo_4076" data-name="Grupo 4076" transform="translate(0)">
    <g id="Grupo_4075" data-name="Grupo 4075" transform="translate(0)">
      <g id="Grupo_4074" data-name="Grupo 4074">
        <g id="Grupo_4073" data-name="Grupo 4073">
          <rect id="Rectángulo_5573" data-name="Rectángulo 5573" width="1.91" height="2.333" transform="translate(1.91 2.333)" fill="#15132a"/>
          <rect id="Rectángulo_5574" data-name="Rectángulo 5574" width="53.022" height="2.333" transform="translate(3.82)" fill="#15132a"/>
          <rect id="Rectángulo_5575" data-name="Rectángulo 5575" width="1.91" height="2.333" transform="translate(1.91 16.331)" fill="#15132a"/>
          <rect id="Rectángulo_5576" data-name="Rectángulo 5576" width="53.022" height="2.333" transform="translate(3.82 18.663)" fill="#15132a"/>
          <rect id="Rectángulo_5577" data-name="Rectángulo 5577" width="1.91" height="11.665" transform="translate(0 4.666)" fill="#15132a"/>
          <rect id="Rectángulo_5578" data-name="Rectángulo 5578" width="1.91" height="2.333" transform="translate(56.842 16.331)" fill="#15132a"/>
          <rect id="Rectángulo_5579" data-name="Rectángulo 5579" width="1.91" height="2.333" transform="translate(56.842 2.333)" fill="#15132a"/>
          <rect id="Rectángulo_5580" data-name="Rectángulo 5580" width="1.91" height="11.665" transform="translate(58.752 4.666)" fill="#15132a"/>
        </g>
        <rect id="Rectángulo_5581" data-name="Rectángulo 5581" width="1.91" height="11.665" transform="translate(3.82 4.666)" fill="#383838"/>
        <path id="Trazado_12589" data-name="Trazado 12589" d="M942.4,432.021v0Z" transform="translate(-936.668 -427.355)" fill="#383838"/>
        <rect id="Rectángulo_5582" data-name="Rectángulo 5582" width="1.91" height="11.665" transform="translate(54.932 4.666)" fill="#383838"/>
        <path id="Trazado_12590" data-name="Trazado 12590" d="M1105.075,432.021v0Z" transform="translate(-1048.233 -427.355)" fill="#383838"/>
        <rect id="Rectángulo_5583" data-name="Rectángulo 5583" width="1.91" height="11.664" transform="translate(5.731 4.666)" fill="#383838"/>
        <rect id="Rectángulo_5584" data-name="Rectángulo 5584" width="1.91" height="13.997" transform="translate(7.641 2.333)" fill="#383838"/>
        <rect id="Rectángulo_5585" data-name="Rectángulo 5585" width="1.91" height="13.997" transform="translate(9.551 2.333)" fill="#383838"/>
        <rect id="Rectángulo_5586" data-name="Rectángulo 5586" width="1.91" height="13.998" transform="translate(11.461 2.333)" fill="#383838"/>
        <rect id="Rectángulo_5587" data-name="Rectángulo 5587" width="1.91" height="13.998" transform="translate(13.371 2.333)" fill="#383838"/>
        <rect id="Rectángulo_5588" data-name="Rectángulo 5588" width="1.91" height="13.998" transform="translate(15.282 2.333)" fill="#383838"/>
        <rect id="Rectángulo_5589" data-name="Rectángulo 5589" width="1.91" height="13.998" transform="translate(11.495 2.333)" fill="#383838"/>
        <rect id="Rectángulo_5590" data-name="Rectángulo 5590" width="1.91" height="13.998" transform="translate(12.772 2.333)" fill="#383838"/>
        <rect id="Rectángulo_5591" data-name="Rectángulo 5591" width="1.91" height="13.998" transform="translate(14.049 2.333)" fill="#383838"/>
        <rect id="Rectángulo_5592" data-name="Rectángulo 5592" width="1.91" height="13.998" transform="translate(15.327 2.333)" fill="#383838"/>
        <rect id="Rectángulo_5593" data-name="Rectángulo 5593" width="1.91" height="13.998" transform="translate(16.604 2.333)" fill="#383838"/>
        <rect id="Rectángulo_5594" data-name="Rectángulo 5594" width="1.91" height="13.998" transform="translate(17.881 2.333)" fill="#383838"/>
        <rect id="Rectángulo_5595" data-name="Rectángulo 5595" width="1.91" height="13.998" transform="translate(19.158 2.333)" fill="#383838"/>
        <rect id="Rectángulo_5596" data-name="Rectángulo 5596" width="1.91" height="13.998" transform="translate(20.436 2.333)" fill="#383838"/>
        <rect id="Rectángulo_5597" data-name="Rectángulo 5597" width="1.91" height="13.998" transform="translate(21.713 2.333)" fill="#383838"/>
        <rect id="Rectángulo_5598" data-name="Rectángulo 5598" width="1.91" height="13.998" transform="translate(22.99 2.333)" fill="#383838"/>
        <rect id="Rectángulo_5599" data-name="Rectángulo 5599" width="1.91" height="13.998" transform="translate(24.267 2.333)" fill="#383838"/>
        <rect id="Rectángulo_5600" data-name="Rectángulo 5600" width="1.91" height="13.998" transform="translate(25.544 2.333)" fill="#383838"/>
        <rect id="Rectángulo_5601" data-name="Rectángulo 5601" width="1.91" height="13.998" transform="translate(26.822 2.333)" fill="#383838"/>
        <rect id="Rectángulo_5602" data-name="Rectángulo 5602" width="40.114" height="13.998" transform="translate(12.907 2.333)" fill="#383838"/>
        <rect id="Rectángulo_5603" data-name="Rectángulo 5603" width="1.91" height="11.665" transform="translate(53.022 4.666)" fill="#383838"/>
        <rect id="Rectángulo_5604" data-name="Rectángulo 5604" width="1.91" height="6.999" transform="translate(1.91 6.999)" fill="#383838"/>
        <rect id="Rectángulo_5605" data-name="Rectángulo 5605" width="1.91" height="6.999" transform="translate(56.842 6.999)" fill="#383838"/>
      </g>
      <rect id="Rectángulo_5606" data-name="Rectángulo 5606" width="1.91" height="2.333" transform="translate(1.91 13.998)" fill="#383838"/>
      <rect id="Rectángulo_5607" data-name="Rectángulo 5607" width="1.91" height="2.333" transform="translate(1.91 4.666)" fill="#383838"/>
      <rect id="Rectángulo_5608" data-name="Rectángulo 5608" width="1.91" height="2.333" transform="translate(56.842 4.666)" fill="#383838"/>
      <rect id="Rectángulo_5609" data-name="Rectángulo 5609" width="1.91" height="2.333" transform="translate(54.932 13.998)" fill="#383838"/>
      <rect id="Rectángulo_5610" data-name="Rectángulo 5610" width="1.91" height="2.333" transform="translate(56.842 11.665)" fill="#383838"/>
      <rect id="Rectángulo_5611" data-name="Rectángulo 5611" width="53.022" height="2.333" transform="translate(3.82 2.333)" fill="#383838"/>
      <rect id="Rectángulo_5612" data-name="Rectángulo 5612" width="3.82" height="2.333" transform="translate(3.82 2.333)" fill="#383838"/>
      <rect id="Rectángulo_5613" data-name="Rectángulo 5613" width="53.022" height="2.333" transform="translate(3.82 16.331)" fill="#383838"/>
      <rect id="Rectángulo_5614" data-name="Rectángulo 5614" width="1.91" height="2.333" transform="translate(56.842 13.998)" fill="#383838"/>
    </g>
  </g>
  <g id="Componente_11_50" data-name="Componente 11 – 50" transform="translate(6.945 3.915)">
    <path id="Trazado_13115" data-name="Trazado 13115" d="M1090,435.389V434.26h-.376v-.752h-.376v-.376h-.376v-.376h-.376v-.376h-.376V432h-.376v-.376h-.376v-.376h-.752v-.376h-1.129V430.5H1082.1v.376h-1.129v.376h-.752v.376h-.376V432h-.376v.376h-.376v.376h-.376v.376h-.376v.376h-.376v.752h-.376v1.129h-.376v3.386h.376V439.9h.376v.752h.376v.376h.376v.376h.376v.376h.376v.376h.376v.376h.376v.376h.752v.376h1.129v.376h3.386v-.376h1.129v-.376h.752v-.376h.376v-.376h.376v-.376h.376v-.376h.376v-.376h.376v-.376h.376V439.9H1090v-1.129h.376v-3.386Z" transform="translate(-1077.208 -430.498)" fill="#f8fdff" stroke="#000" stroke-miterlimit="10" stroke-width="1" fill-rule="evenodd"/>
  </g>
  <g id="Componente_11_51" data-name="Componente 11 – 51" transform="translate(23.747 3.915)">
    <path id="Trazado_13115-2" data-name="Trazado 13115" d="M1090,435.389V434.26h-.376v-.752h-.376v-.376h-.376v-.376h-.376v-.376h-.376V432h-.376v-.376h-.376v-.376h-.752v-.376h-1.129V430.5H1082.1v.376h-1.129v.376h-.752v.376h-.376V432h-.376v.376h-.376v.376h-.376v.376h-.376v.376h-.376v.752h-.376v1.129h-.376v3.386h.376V439.9h.376v.752h.376v.376h.376v.376h.376v.376h.376v.376h.376v.376h.376v.376h.752v.376h1.129v.376h3.386v-.376h1.129v-.376h.752v-.376h.376v-.376h.376v-.376h.376v-.376h.376v-.376h.376v-.376h.376V439.9H1090v-1.129h.376v-3.386Z" transform="translate(-1077.208 -430.498)" fill="#f8fdff" stroke="#000" stroke-miterlimit="10" stroke-width="1" fill-rule="evenodd"/>
  </g>
  <g id="Componente_11_52" data-name="Componente 11 – 52" transform="translate(40.55 3.915)">
    <path id="Trazado_13115-3" data-name="Trazado 13115" d="M1090,435.389V434.26h-.376v-.752h-.376v-.376h-.376v-.376h-.376v-.376h-.376V432h-.376v-.376h-.376v-.376h-.752v-.376h-1.129V430.5H1082.1v.376h-1.129v.376h-.752v.376h-.376V432h-.376v.376h-.376v.376h-.376v.376h-.376v.376h-.376v.752h-.376v1.129h-.376v3.386h.376V439.9h.376v.752h.376v.376h.376v.376h.376v.376h.376v.376h.376v.376h.376v.376h.752v.376h1.129v.376h3.386v-.376h1.129v-.376h.752v-.376h.376v-.376h.376v-.376h.376v-.376h.376v-.376h.376v-.376h.376V439.9H1090v-1.129h.376v-3.386Z" transform="translate(-1077.208 -430.498)" fill="#f8fdff" stroke="#000" stroke-miterlimit="10" stroke-width="1" fill-rule="evenodd"/>
  </g>
</svg>
