<svg xmlns="http://www.w3.org/2000/svg" width="224.942" height="32.964" viewBox="0 0 224.942 32.964">
  <g id="Grupo_3903" data-name="Grupo 3903" transform="translate(0 -4.681)">
    <g id="Grupo_3896" data-name="Grupo 3896" transform="translate(0 7.37)">
      <g id="Grupo_3895" data-name="Grupo 3895">
        <g id="Grupo_3894" data-name="Grupo 3894" transform="translate(0 3.941)">
          <g id="Grupo_3892" data-name="Grupo 3892" transform="translate(3.941)">
            <rect id="Rectángulo_5043" data-name="Rectángulo 5043" width="3.941" height="3.941" transform="translate(3.941 3.941) rotate(180)" fill="#15132a"/>
            <rect id="Rectángulo_5044" data-name="Rectángulo 5044" width="3.941" height="3.941" transform="translate(3.941 19.705) rotate(180)" fill="#15132a"/>
          </g>
          <g id="Grupo_3893" data-name="Grupo 3893" transform="translate(0 0)">
            <rect id="Rectángulo_5045" data-name="Rectángulo 5045" width="3.941" height="11.823" transform="translate(221.001 3.941)" fill="#15132a"/>
            <rect id="Rectángulo_5046" data-name="Rectángulo 5046" width="3.941" height="11.823" transform="translate(0 3.941)" fill="#15132a"/>
            <rect id="Rectángulo_5047" data-name="Rectángulo 5047" width="3.941" height="3.941" transform="translate(217.06 15.764)" fill="#15132a"/>
            <rect id="Rectángulo_5048" data-name="Rectángulo 5048" width="3.941" height="3.941" transform="translate(217.06)" fill="#15132a"/>
          </g>
          <rect id="Rectángulo_5049" data-name="Rectángulo 5049" width="3.941" height="11.823" transform="translate(3.941 3.941)" fill="#1e5701"/>
          <rect id="Rectángulo_5050" data-name="Rectángulo 5050" width="3.941" height="11.823" transform="translate(217.06 3.941)" fill="#494949"/>
          <path id="Trazado_11268" data-name="Trazado 11268" d="M1057.407,581.558v0Z" transform="translate(-1049.525 -581.557)" fill="#007025"/>
          <rect id="Rectángulo_5051" data-name="Rectángulo 5051" width="3.941" height="23.646" transform="translate(7.882 0)" fill="#494949"/>
          <rect id="Rectángulo_5052" data-name="Rectángulo 5052" width="3.941" height="23.646" transform="translate(11.823 0)" fill="#494949"/>
          <rect id="Rectángulo_5053" data-name="Rectángulo 5053" width="3.941" height="23.646" transform="translate(15.764 0)" fill="#494949"/>
          <rect id="Rectángulo_5054" data-name="Rectángulo 5054" width="3.941" height="23.646" transform="translate(19.705 0)" fill="#494949"/>
          <rect id="Rectángulo_5055" data-name="Rectángulo 5055" width="3.941" height="23.646" transform="translate(44.666 0)" fill="#494949"/>
          <rect id="Rectángulo_5056" data-name="Rectángulo 5056" width="3.941" height="23.646" transform="translate(45.5 0)" fill="#494949"/>
          <rect id="Rectángulo_5057" data-name="Rectángulo 5057" width="3.941" height="23.646" transform="translate(52 0)" fill="#494949"/>
          <rect id="Rectángulo_5059" data-name="Rectángulo 5059" width="3.941" height="23.646" transform="translate(65 0)" fill="#494949"/>
          <rect id="Rectángulo_5060" data-name="Rectángulo 5060" width="3.941" height="23.646" transform="translate(71.5 0)" fill="#494949"/>
          <rect id="Rectángulo_5061" data-name="Rectángulo 5061" width="3.941" height="23.646" transform="translate(78 0)" fill="#494949"/>
          <rect id="Rectángulo_5062" data-name="Rectángulo 5062" width="3.941" height="23.646" transform="translate(84.5 0)" fill="#494949"/>
          <rect id="Rectángulo_5063" data-name="Rectángulo 5063" width="3.941" height="23.646" transform="translate(91 0)" fill="#494949"/>
          <rect id="Rectángulo_5064" data-name="Rectángulo 5064" width="3.941" height="23.646" transform="translate(97.5 0)" fill="#494949"/>
          <rect id="Rectángulo_5065" data-name="Rectángulo 5065" width="3.941" height="23.646" transform="translate(104 0)" fill="#494949"/>
          <rect id="Rectángulo_5066" data-name="Rectángulo 5066" width="3.941" height="23.646" transform="translate(110.5 0)" fill="#494949"/>
          <rect id="Rectángulo_5067" data-name="Rectángulo 5067" width="3.941" height="23.646" transform="translate(117 0)" fill="#494949"/>
          <rect id="Rectángulo_5068" data-name="Rectángulo 5068" width="184.4" height="23.646" transform="translate(28.718 0)" fill="#494949"/>
          <rect id="Rectángulo_5069" data-name="Rectángulo 5069" width="3.941" height="23.646" transform="translate(130 0)" fill="#494949"/>
          <rect id="Rectángulo_5070" data-name="Rectángulo 5070" width="27.587" height="23.646" transform="translate(148.016 0)" fill="#494949"/>
          <rect id="Rectángulo_5071" data-name="Rectángulo 5071" width="3.941" height="23.646" transform="translate(176.335 0)" fill="#494949"/>
          <rect id="Rectángulo_5072" data-name="Rectángulo 5072" width="3.941" height="23.646" transform="translate(201.296 0)" fill="#494949"/>
          <rect id="Rectángulo_5073" data-name="Rectángulo 5073" width="3.941" height="23.646" transform="translate(205.237 0)" fill="#494949"/>
          <rect id="Rectángulo_5074" data-name="Rectángulo 5074" width="3.941" height="23.646" transform="translate(209.178 0)" fill="#494949"/>
          <rect id="Rectángulo_5075" data-name="Rectángulo 5075" width="3.941" height="19.705" transform="translate(213.119 0)" fill="#494949"/>
        </g>
        <rect id="Rectángulo_5077" data-name="Rectángulo 5077" width="209.178" height="3.941" transform="translate(7.882 19.705)" fill="#494949"/>
        <rect id="Rectángulo_5078" data-name="Rectángulo 5078" width="209.178" height="3.941" transform="translate(7.882 3.941)" fill="#494949"/>
        <rect id="Rectángulo_5079" data-name="Rectángulo 5079" width="205.237" height="3.941" transform="translate(11.823)" fill="#15132a"/>
        <rect id="Rectángulo_6496" data-name="Rectángulo 6496" width="92.382" height="23.646" transform="translate(7.882 3.941)" fill="#1e5701"/>
        <rect id="Rectángulo_6497" data-name="Rectángulo 6497" width="209.178" height="3.941" transform="translate(7.882 23.646)" fill="#15132a"/>
      </g>
    </g>
    <g id="Grupo_3902" data-name="Grupo 3902" transform="translate(84.737 4.681)">
      <g id="Grupo_3897" data-name="Grupo 3897">
        <path id="Trazado_11269" data-name="Trazado 11269" d="M1049.5,571.382v-.942h8.477v.942H1049.5Z" transform="translate(-1037.258 -570.441)" fill-rule="evenodd"/>
        <path id="Trazado_11270" data-name="Trazado 11270" d="M1045.936,572.571v-.942h2.826v.942Z" transform="translate(-1036.517 -570.687)" fill-rule="evenodd"/>
        <path id="Trazado_11271" data-name="Trazado 11271" d="M1060.2,571.629h2.825v.942H1060.2v-.942Z" transform="translate(-1039.478 -570.687)" fill-rule="evenodd"/>
        <path id="Trazado_11272" data-name="Trazado 11272" d="M1043.559,573.76v-.942h1.884v.942h-1.884Z" transform="translate(-1036.024 -570.934)" fill-rule="evenodd"/>
        <path id="Trazado_11273" data-name="Trazado 11273" d="M1063.764,572.818h1.883v.942h-1.883v-.942Z" transform="translate(-1040.218 -570.934)" fill-rule="evenodd"/>
        <path id="Trazado_11274" data-name="Trazado 11274" d="M1042.37,574.948v-.942h.942v.942Z" transform="translate(-1035.777 -571.181)" fill-rule="evenodd"/>
        <path id="Trazado_11275" data-name="Trazado 11275" d="M1066.141,574.006h.942v.942h-.942v-.942Z" transform="translate(-1040.712 -571.181)" fill-rule="evenodd"/>
        <path id="Trazado_11276" data-name="Trazado 11276" d="M1041.181,576.137v-.942h.942v.942Z" transform="translate(-1035.53 -571.428)" fill-rule="evenodd"/>
        <path id="Trazado_11277" data-name="Trazado 11277" d="M1067.33,575.195h.942v.942h-.942v-.942Z" transform="translate(-1040.958 -571.428)" fill-rule="evenodd"/>
        <path id="Trazado_11278" data-name="Trazado 11278" d="M1039.993,577.325v-.942h.942v.942Z" transform="translate(-1035.284 -571.674)" fill-rule="evenodd"/>
        <path id="Trazado_11279" data-name="Trazado 11279" d="M1068.519,576.383h.942v.942h-.942v-.942Z" transform="translate(-1041.205 -571.674)" fill-rule="evenodd"/>
        <path id="Trazado_11280" data-name="Trazado 11280" d="M1038.8,578.514v-.942h.942v.942Z" transform="translate(-1035.037 -571.921)" fill-rule="evenodd"/>
        <path id="Trazado_11281" data-name="Trazado 11281" d="M1069.707,577.572h.942v.942h-.942v-.942Z" transform="translate(-1041.452 -571.921)" fill-rule="evenodd"/>
        <path id="Trazado_11282" data-name="Trazado 11282" d="M1037.616,579.7v-.942h.942v.942Z" transform="translate(-1034.79 -572.168)" fill-rule="evenodd"/>
        <path id="Trazado_11283" data-name="Trazado 11283" d="M1070.9,578.761h.942v.942h-.942v-.942Z" transform="translate(-1041.699 -572.168)" fill-rule="evenodd"/>
        <path id="Trazado_11284" data-name="Trazado 11284" d="M1037.369,579.949v1.884h-.942v-1.884Z" transform="translate(-1034.543 -572.415)" fill-rule="evenodd"/>
        <path id="Trazado_11285" data-name="Trazado 11285" d="M1072.084,579.949h.942v1.884h-.942v-1.884Z" transform="translate(-1041.945 -572.415)" fill-rule="evenodd"/>
        <path id="Trazado_11286" data-name="Trazado 11286" d="M1036.18,582.326v2.826h-.942v-2.826Z" transform="translate(-1034.297 -572.908)" fill-rule="evenodd"/>
        <path id="Trazado_11287" data-name="Trazado 11287" d="M1073.273,582.326h.942v2.826h-.942v-2.826Z" transform="translate(-1042.192 -572.908)" fill-rule="evenodd"/>
        <path id="Trazado_11288" data-name="Trazado 11288" d="M1034.05,585.892h.942v8.477h-.942v-8.477Z" transform="translate(-1034.05 -573.648)" fill-rule="evenodd"/>
        <path id="Trazado_11289" data-name="Trazado 11289" d="M1074.461,585.892h.942v8.477h-.942v-8.477Z" transform="translate(-1042.439 -573.648)" fill-rule="evenodd"/>
        <path id="Trazado_11290" data-name="Trazado 11290" d="M1035.239,596.589h.942v2.826h-.942v-2.826Z" transform="translate(-1034.297 -575.869)" fill-rule="evenodd"/>
        <path id="Trazado_11291" data-name="Trazado 11291" d="M1074.215,596.589v2.826h-.942v-2.826Z" transform="translate(-1042.192 -575.869)" fill-rule="evenodd"/>
        <path id="Trazado_11292" data-name="Trazado 11292" d="M1036.427,600.155h.942v1.884h-.942v-1.884Z" transform="translate(-1034.543 -576.609)" fill-rule="evenodd"/>
        <path id="Trazado_11293" data-name="Trazado 11293" d="M1073.026,600.155v1.884h-.942v-1.884Z" transform="translate(-1041.945 -576.609)" fill-rule="evenodd"/>
        <path id="Trazado_11294" data-name="Trazado 11294" d="M1037.616,602.532h.942v.942h-.942v-.942Z" transform="translate(-1034.79 -577.102)" fill-rule="evenodd"/>
        <path id="Trazado_11295" data-name="Trazado 11295" d="M1070.9,603.474v-.942h.942v.942Z" transform="translate(-1041.699 -577.102)" fill-rule="evenodd"/>
        <path id="Trazado_11296" data-name="Trazado 11296" d="M1038.8,603.721h.942v.942h-.942v-.942Z" transform="translate(-1035.037 -577.349)" fill-rule="evenodd"/>
        <path id="Trazado_11297" data-name="Trazado 11297" d="M1069.707,604.662v-.942h.942v.942Z" transform="translate(-1041.452 -577.349)" fill-rule="evenodd"/>
        <path id="Trazado_11298" data-name="Trazado 11298" d="M1039.993,604.909h.942v.942h-.942v-.942Z" transform="translate(-1035.284 -577.596)" fill-rule="evenodd"/>
        <path id="Trazado_11299" data-name="Trazado 11299" d="M1068.519,605.851v-.942h.942v.942Z" transform="translate(-1041.205 -577.596)" fill-rule="evenodd"/>
        <path id="Trazado_11300" data-name="Trazado 11300" d="M1041.181,606.1h.942v.942h-.942V606.1Z" transform="translate(-1035.53 -577.842)" fill-rule="evenodd"/>
        <path id="Trazado_11301" data-name="Trazado 11301" d="M1067.33,607.04V606.1h.942v.942Z" transform="translate(-1040.958 -577.842)" fill-rule="evenodd"/>
        <path id="Trazado_11302" data-name="Trazado 11302" d="M1042.37,607.286h.942v.942h-.942v-.942Z" transform="translate(-1035.777 -578.089)" fill-rule="evenodd"/>
        <path id="Trazado_11303" data-name="Trazado 11303" d="M1066.141,608.228v-.942h.942v.942Z" transform="translate(-1040.712 -578.089)" fill-rule="evenodd"/>
        <path id="Trazado_11304" data-name="Trazado 11304" d="M1043.559,608.475h1.884v.942h-1.884v-.942Z" transform="translate(-1036.024 -578.336)" fill-rule="evenodd"/>
        <path id="Trazado_11305" data-name="Trazado 11305" d="M1063.764,609.417v-.942h1.883v.942h-1.883Z" transform="translate(-1040.218 -578.336)" fill-rule="evenodd"/>
        <path id="Trazado_11306" data-name="Trazado 11306" d="M1045.936,609.663h2.826v.942h-2.826v-.942Z" transform="translate(-1036.517 -578.583)" fill-rule="evenodd"/>
        <path id="Trazado_11307" data-name="Trazado 11307" d="M1060.2,610.605v-.942h2.825v.942H1060.2Z" transform="translate(-1039.478 -578.583)" fill-rule="evenodd"/>
        <path id="Trazado_11308" data-name="Trazado 11308" d="M1049.5,611.794v-.942h8.477v.942Z" transform="translate(-1037.258 -578.829)" fill-rule="evenodd"/>
      </g>
      <g id="Grupo_3898" data-name="Grupo 3898" transform="translate(0.942 12.244)">
        <path id="Trazado_11309" data-name="Trazado 11309" d="M1072.779,585.892h.942v5.651h-.942V590.6h-.942v-.942h-.942v-1.884h.942v-.942h.942v-.942Z" transform="translate(-1042.64 -585.892)" fill="#262730" fill-rule="evenodd"/>
        <path id="Trazado_11310" data-name="Trazado 11310" d="M1060.108,597.733h-1.884v.942h-4.709V601.5h-.942v-3.767h-.942v-.942h-.942v-.942h.942v-.942h4.709v-.942h2.826v-.942h1.884v1.884h-.942v2.826Z" transform="translate(-1038.446 -587.372)" fill="#262730" fill-rule="evenodd"/>
        <path id="Trazado_11311" data-name="Trazado 11311" d="M1035.239,596.342V595.4h1.884v.942h3.768v4.709h-.942v1.884h-.942v-.942h-.942v-.942h-.942v-1.884h-.942v-2.826Z" transform="translate(-1035.239 -587.866)" fill="#262730" fill-rule="evenodd"/>
        <path id="Trazado_11312" data-name="Trazado 11312" d="M1062.576,598.966h.942v.942h-.942v-.942Z" transform="translate(-1040.913 -588.606)" fill="#262730" fill-rule="evenodd"/>
        <path id="Trazado_11313" data-name="Trazado 11313" d="M1063.764,600.155h.942v.942h-.942v-.942Z" transform="translate(-1041.16 -588.853)" fill="#262730" fill-rule="evenodd"/>
        <path id="Trazado_11314" data-name="Trazado 11314" d="M1064.953,601.344h.942v.942h-.942v-.942Z" transform="translate(-1041.407 -589.1)" fill="#262730" fill-rule="evenodd"/>
        <path id="Trazado_11315" data-name="Trazado 11315" d="M1063.764,606.995v-.942h.942v-1.884h.942v-1.884h2.826v-.942h1.883v.942h-.941v.942h-.942v.942h-.942v.942h-.942v.942h-.942v.942h-1.883Z" transform="translate(-1041.16 -589.1)" fill="#262730" fill-rule="evenodd"/>
        <path id="Trazado_11316" data-name="Trazado 11316" d="M1051.587,603.721v2.826h.942v1.884h.942v.942h-4.709v-.942h-2.826v-.942h1.884v-.942h1.884V605.6h.942v-1.884Z" transform="translate(-1037.459 -589.593)" fill="#262730" fill-rule="evenodd"/>
        <path id="Trazado_11317" data-name="Trazado 11317" d="M1041.181,604.909h.942v.942h-.942v-.942Z" transform="translate(-1036.472 -589.84)" fill="#262730" fill-rule="evenodd"/>
        <path id="Trazado_11318" data-name="Trazado 11318" d="M1042.37,606.1h.942v.942h-.942V606.1Z" transform="translate(-1036.719 -590.086)" fill="#262730" fill-rule="evenodd"/>
        <path id="Trazado_11319" data-name="Trazado 11319" d="M1043.559,607.286h.942v.942h-.942v-.942Z" transform="translate(-1036.966 -590.333)" fill="#262730" fill-rule="evenodd"/>
        <path id="Trazado_11320" data-name="Trazado 11320" d="M1063.518,608.475v.942h-.942v-.942Z" transform="translate(-1040.913 -590.58)" fill="#262730" fill-rule="evenodd"/>
        <path id="Trazado_11321" data-name="Trazado 11321" d="M1059.01,610.605v-.942h.942v.942Z" transform="translate(-1040.173 -590.827)" fill="#262730" fill-rule="evenodd"/>
      </g>
      <g id="Grupo_3899" data-name="Grupo 3899" transform="translate(0.942 0.942)">
        <path id="Trazado_11322" data-name="Trazado 11322" d="M1054.7,571.629h3.767v.942h2.826v.942h1.884v.942h.942v1.884h-.942v.942h-4.709v2.826h-.942v-3.767h-.942V575.4h-.942v-.942h-3.767v-.942h2.826v-1.884Z" transform="translate(-1038.693 -571.629)" fill="#494949" fill-rule="evenodd"/>
        <path id="Trazado_11323" data-name="Trazado 11323" d="M1044.209,576.832v.942h-1.884v.942h.942v.942h-.942v.942h-.942v-1.884H1039.5v.942h-1.884v-.942h.942v-.942h.942v-.942h.942v-.942h.942v-.942h.942v-.942h.942v2.826Z" transform="translate(-1035.732 -572.123)" fill="#494949" fill-rule="evenodd"/>
        <path id="Trazado_11324" data-name="Trazado 11324" d="M1048.313,576.137v-.942h2.825v.942Z" transform="translate(-1037.953 -572.369)" fill="#494949" fill-rule="evenodd"/>
        <path id="Trazado_11325" data-name="Trazado 11325" d="M1045.936,577.325v-.942h1.884v.942h-1.884Z" transform="translate(-1037.459 -572.616)" fill="#494949" fill-rule="evenodd"/>
        <path id="Trazado_11326" data-name="Trazado 11326" d="M1066.141,578.761h.942v.942h-.942v-.942Z" transform="translate(-1041.654 -573.109)" fill="#494949" fill-rule="evenodd"/>
        <path id="Trazado_11327" data-name="Trazado 11327" d="M1067.33,579.949h.942v.942h-.942v-.942Z" transform="translate(-1041.9 -573.356)" fill="#494949" fill-rule="evenodd"/>
        <path id="Trazado_11328" data-name="Trazado 11328" d="M1044.747,581.138h.942v.942h-.942v-.942Z" transform="translate(-1037.212 -573.603)" fill="#494949" fill-rule="evenodd"/>
        <path id="Trazado_11329" data-name="Trazado 11329" d="M1068.519,581.138h.942v.942h-.942v-.942Z" transform="translate(-1042.147 -573.603)" fill="#494949" fill-rule="evenodd"/>
        <path id="Trazado_11330" data-name="Trazado 11330" d="M1042.123,582.326v1.884h-.942v-1.884Z" transform="translate(-1036.472 -573.85)" fill="#494949" fill-rule="evenodd"/>
        <path id="Trazado_11331" data-name="Trazado 11331" d="M1045.936,582.326h.942v.942h-.942v-.942Z" transform="translate(-1037.459 -573.85)" fill="#494949" fill-rule="evenodd"/>
        <path id="Trazado_11332" data-name="Trazado 11332" d="M1056.3,582.326v3.767h.942v.942h.942v.942h.942v.942h.942V590.8h-1.884v.942h-2.826v.942h-4.709v.942h-1.884v-.942h-2.826v-.942h2.826v-3.767h.942v-1.884h1.884v-.942h3.767v-2.826Z" transform="translate(-1037.459 -573.85)" fill="#494949" fill-rule="evenodd"/>
        <path id="Trazado_11333" data-name="Trazado 11333" d="M1069.707,582.326h.942v.942h-.942v-.942Z" transform="translate(-1042.394 -573.85)" fill="#494949" fill-rule="evenodd"/>
        <path id="Trazado_11334" data-name="Trazado 11334" d="M1072.039,582.326v3.767h-.942v.942h-.942v.942h-2.826v-.942h1.884V584.21h.942v-.942h.942v-.942Z" transform="translate(-1041.9 -573.85)" fill="#494949" fill-rule="evenodd"/>
        <path id="Trazado_11335" data-name="Trazado 11335" d="M1047.124,583.515h.942v.942h-.942v-.942Z" transform="translate(-1037.706 -574.096)" fill="#494949" fill-rule="evenodd"/>
        <path id="Trazado_11336" data-name="Trazado 11336" d="M1040.935,584.7v2.826h-.942V584.7Z" transform="translate(-1036.225 -574.343)" fill="#494949" fill-rule="evenodd"/>
        <path id="Trazado_11337" data-name="Trazado 11337" d="M1048.313,584.7h.942v.942h-.942V584.7Z" transform="translate(-1037.953 -574.343)" fill="#494949" fill-rule="evenodd"/>
        <path id="Trazado_11338" data-name="Trazado 11338" d="M1049.5,585.892h.942v.942h-.942v-.942Z" transform="translate(-1038.199 -574.59)" fill="#494949" fill-rule="evenodd"/>
        <path id="Trazado_11339" data-name="Trazado 11339" d="M1039.746,588.269v2.826h-.942v-2.826Z" transform="translate(-1035.979 -575.083)" fill="#494949" fill-rule="evenodd"/>
        <path id="Trazado_11340" data-name="Trazado 11340" d="M1063.764,590.4v-.942h2.825v.942h-2.825Z" transform="translate(-1041.16 -575.33)" fill="#494949" fill-rule="evenodd"/>
        <path id="Trazado_11341" data-name="Trazado 11341" d="M1035.239,591.835h2.826v.942h.942v.942h.942v.942h3.767v.942h-6.593v-.942h-1.884v-2.826Z" transform="translate(-1035.239 -575.824)" fill="#494949" fill-rule="evenodd"/>
      </g>
      <g id="Grupo_3900" data-name="Grupo 3900" transform="translate(5.651 15.069)">
        <path id="Trazado_11342" data-name="Trazado 11342" d="M1068.227,589.458h.942v.942h.941v.942h.942v.942h.942v2.826h-.942v2.826h-.942v.942h-1.883v.942H1065.4v-.942h-.942v-.942h-.942v-.942h-.942v-2.826h.942v-1.884h.942v-.942h1.884V590.4h1.884v-.942Z" transform="translate(-1045.622 -589.458)" fill="#c8d6dc" fill-rule="evenodd"/>
        <path id="Trazado_11343" data-name="Trazado 11343" d="M1050.6,602.24h-.942v1.884h-.942v.942h-1.884v.942h-2.825v-.942h-.942v-.942h-.942v-.942h-.942V601.3h.942v-4.709h6.593v.942h.942v.942h.942v3.767Z" transform="translate(-1041.181 -590.938)" fill="#c8d6dc" fill-rule="evenodd"/>
        <path id="Trazado_11344" data-name="Trazado 11344" d="M1060.6,598.966v.942h.942v.942h.942v.942h.942v1.884h-.942v1.884h-.942v.942h-.942v.942h-2.826v.942h-2.825v-.942h-.942v-1.884h-.942v-2.826h.942v-2.826h4.709v-.942h1.884Z" transform="translate(-1043.649 -591.432)" fill="#c8d6dc" fill-rule="evenodd"/>
      </g>
      <g id="Grupo_3901" data-name="Grupo 3901" transform="translate(0.942 0.942)">
        <path id="Trazado_11345" data-name="Trazado 11345" d="M1048.515,571.629h4.709v1.884H1050.4v.942h-2.825v.942h-1.884v.942h-.942v-2.825h.942v-.942h2.825v-.942Z" transform="translate(-1037.212 -571.629)" fill="#f8fdff" fill-rule="evenodd"/>
        <path id="Trazado_11346" data-name="Trazado 11346" d="M1050.152,575.195h3.767v.942h.942v.942h.942v3.767h-.942v2.826h-3.767v.942h-1.884v-.942h-.942v-.942h-.942v-.942h-.942v-.942h-.942V579.9h-.942v-.942h-.942v-.942h1.884v-.942h1.884v-.942h2.826v-.942Z" transform="translate(-1036.966 -572.369)" fill="#f8fdff" fill-rule="evenodd"/>
        <path id="Trazado_11347" data-name="Trazado 11347" d="M1070.851,579.209v2.826h-.942v-.942h-.942v-.942h-.942v-.942h-.942v-.942h-.942v-.942h.942v-.942h.942v.942h.942v.942h.942v.942Z" transform="translate(-1041.654 -572.616)" fill="#f8fdff" fill-rule="evenodd"/>
        <path id="Trazado_11348" data-name="Trazado 11348" d="M1064.661,578.761v.942h.942v.942h.942v.942h.942v.942h.942v.942h-.942V586.3H1065.6v.942h-2.825v.942h-.942v-.942h-.942V586.3h-.942v-.942h-.942v-3.767h.942v-2.826h4.709Z" transform="translate(-1040.173 -573.109)" fill="#f8fdff" fill-rule="evenodd"/>
        <path id="Trazado_11349" data-name="Trazado 11349" d="M1040.89,581.833h-.942v1.884h-.942v2.825h-.942v2.826h-2.826v-4.709h.942v-2.826h.942v-.942h1.884v-.942h1.884v1.884Z" transform="translate(-1035.239 -573.356)" fill="#f8fdff" fill-rule="evenodd"/>
        <path id="Trazado_11350" data-name="Trazado 11350" d="M1043.514,581.138v.942h.942v.942h.942v.942h.942v.942h.942v.942h.942v1.884h-.942V591.5h-2.826v.942h-3.767V591.5h-.942v-.942h-.942v-.942h.942v-2.826h.942v-2.826h.942V582.08h.942v-.942Z" transform="translate(-1035.979 -573.603)" fill="#f8fdff" fill-rule="evenodd"/>
        <path id="Trazado_11351" data-name="Trazado 11351" d="M1067.33,590.4v-.942h1.884v.942h-1.884Z" transform="translate(-1041.9 -575.33)" fill="#f8fdff" fill-rule="evenodd"/>
        <path id="Trazado_11352" data-name="Trazado 11352" d="M1063.764,590.646h2.825v.942h-1.884v.942h-.942v-1.884Z" transform="translate(-1041.16 -575.577)" fill="#f8fdff" fill-rule="evenodd"/>
        <path id="Trazado_11353" data-name="Trazado 11353" d="M1045.936,596.342V595.4h2.826v.942Z" transform="translate(-1037.459 -576.564)" fill="#f8fdff" fill-rule="evenodd"/>
      </g>
    </g>
  </g>
</svg>
