<svg xmlns="http://www.w3.org/2000/svg" width="60.413" height="42.574" viewBox="0 0 60.413 42.574">
  <g id="Grupo_4320" data-name="Grupo 4320" transform="translate(-772.609 -12.093)">
    <g id="Grupo_4314" data-name="Grupo 4314" transform="translate(441.63 -292.68)">
      <g id="Grupo_3825" data-name="Grupo 3825" transform="translate(330.979 304.773)">
        <g id="Grupo_3815" data-name="Grupo 3815">
          <g id="Grupo_3814" data-name="Grupo 3814">
            <g id="Grupo_3813" data-name="Grupo 3813">
              <rect id="Rectángulo_3489" data-name="Rectángulo 3489" width="2.403" height="4.73" transform="translate(2.402 4.73)" fill="#1e5701"/>
              <rect id="Rectángulo_3490" data-name="Rectángulo 3490" width="50.803" height="4.73" transform="translate(4.805)" fill="#1e5701"/>
              <rect id="Rectángulo_3491" data-name="Rectángulo 3491" width="2.403" height="4.73" transform="translate(4.805 37.843) rotate(180)" fill="#1e5701"/>
              <rect id="Rectángulo_3492" data-name="Rectángulo 3492" width="50.803" height="4.73" transform="translate(4.805 37.843)" fill="#1e5701"/>
              <rect id="Rectángulo_3493" data-name="Rectángulo 3493" width="2.402" height="23.652" transform="translate(0 9.461)" fill="#1e5701"/>
              <rect id="Rectángulo_3494" data-name="Rectángulo 3494" width="2.402" height="4.73" transform="translate(55.608 33.113)" fill="#1e5701"/>
              <rect id="Rectángulo_3495" data-name="Rectángulo 3495" width="2.402" height="4.73" transform="translate(55.608 4.73)" fill="#1e5701"/>
              <rect id="Rectángulo_3496" data-name="Rectángulo 3496" width="2.403" height="23.652" transform="translate(58.01 9.461)" fill="#1e5701"/>
            </g>
            <rect id="Rectángulo_3497" data-name="Rectángulo 3497" width="2.402" height="23.652" transform="translate(4.805 9.461)" fill="#007025"/>
            <path id="Trazado_10827" data-name="Trazado 10827" d="M713.052,633.331v0Z" transform="translate(-705.844 -623.87)" fill="#007025"/>
            <rect id="Rectángulo_3498" data-name="Rectángulo 3498" width="2.403" height="23.652" transform="translate(53.205 9.461)" fill="#007025"/>
            <path id="Trazado_10828" data-name="Trazado 10828" d="M875.728,633.331v0Z" transform="translate(-820.12 -623.87)" fill="#007025"/>
            <rect id="Rectángulo_3499" data-name="Rectángulo 3499" width="2.403" height="23.652" transform="translate(7.207 9.461)" fill="#007025"/>
            <rect id="Rectángulo_3500" data-name="Rectángulo 3500" width="2.402" height="28.382" transform="translate(9.61 4.73)" fill="#007025"/>
            <rect id="Rectángulo_3501" data-name="Rectángulo 3501" width="2.402" height="28.382" transform="translate(12.012 4.73)" fill="#007025"/>
            <rect id="Rectángulo_3502" data-name="Rectángulo 3502" width="2.403" height="28.382" transform="translate(14.415 4.73)" fill="#007025"/>
            <rect id="Rectángulo_3503" data-name="Rectángulo 3503" width="2.402" height="28.382" transform="translate(16.817 4.73)" fill="#007025"/>
            <rect id="Rectángulo_3504" data-name="Rectángulo 3504" width="2.403" height="28.382" transform="translate(19.22 4.73)" fill="#007025"/>
            <rect id="Rectángulo_3505" data-name="Rectángulo 3505" width="2.402" height="28.382" transform="translate(11.35 4.73)" fill="#007025"/>
            <rect id="Rectángulo_3506" data-name="Rectángulo 3506" width="2.402" height="28.382" transform="translate(12.611 4.73)" fill="#007025"/>
            <rect id="Rectángulo_3507" data-name="Rectángulo 3507" width="2.403" height="28.382" transform="translate(13.872 4.73)" fill="#007025"/>
            <rect id="Rectángulo_3508" data-name="Rectángulo 3508" width="2.402" height="28.382" transform="translate(15.133 4.73)" fill="#007025"/>
            <rect id="Rectángulo_3509" data-name="Rectángulo 3509" width="2.403" height="28.382" transform="translate(16.394 4.73)" fill="#007025"/>
            <rect id="Rectángulo_3510" data-name="Rectángulo 3510" width="2.402" height="28.382" transform="translate(17.655 4.73)" fill="#007025"/>
            <rect id="Rectángulo_3511" data-name="Rectángulo 3511" width="2.402" height="28.382" transform="translate(18.916 4.73)" fill="#007025"/>
            <rect id="Rectángulo_3512" data-name="Rectángulo 3512" width="2.403" height="28.382" transform="translate(20.177 4.73)" fill="#007025"/>
            <rect id="Rectángulo_3513" data-name="Rectángulo 3513" width="2.402" height="28.382" transform="translate(21.439 4.73)" fill="#007025"/>
            <rect id="Rectángulo_3514" data-name="Rectángulo 3514" width="2.402" height="28.382" transform="translate(22.7 4.73)" fill="#007025"/>
            <rect id="Rectángulo_3515" data-name="Rectángulo 3515" width="2.403" height="28.382" transform="translate(23.961 4.73)" fill="#007025"/>
            <rect id="Rectángulo_3516" data-name="Rectángulo 3516" width="2.402" height="28.382" transform="translate(25.222 4.73)" fill="#007025"/>
            <rect id="Rectángulo_3517" data-name="Rectángulo 3517" width="2.403" height="28.382" transform="translate(26.483 4.73)" fill="#007025"/>
            <rect id="Rectángulo_3518" data-name="Rectángulo 3518" width="50.452" height="28.382" transform="translate(0.351 4.73)" fill="#007025"/>
            <rect id="Rectángulo_3519" data-name="Rectángulo 3519" width="2.402" height="23.652" transform="translate(50.803 9.461)" fill="#007025"/>
            <rect id="Rectángulo_3520" data-name="Rectángulo 3520" width="2.403" height="14.191" transform="translate(2.402 14.191)" fill="#007025"/>
            <rect id="Rectángulo_3521" data-name="Rectángulo 3521" width="2.402" height="14.191" transform="translate(55.608 14.191)" fill="#007025"/>
          </g>
          <rect id="Rectángulo_3522" data-name="Rectángulo 3522" width="2.403" height="4.73" transform="translate(4.805 33.113) rotate(180)" fill="#007025"/>
          <rect id="Rectángulo_3523" data-name="Rectángulo 3523" width="2.403" height="4.73" transform="translate(4.805 14.191) rotate(180)" fill="#fff"/>
          <rect id="Rectángulo_3524" data-name="Rectángulo 3524" width="2.402" height="4.73" transform="translate(58.01 14.191) rotate(180)" fill="#7cbb5d"/>
          <rect id="Rectángulo_3525" data-name="Rectángulo 3525" width="2.403" height="4.73" transform="translate(55.608 33.113) rotate(180)" fill="#7cbb5d"/>
          <rect id="Rectángulo_3526" data-name="Rectángulo 3526" width="2.402" height="4.73" transform="translate(58.01 28.382) rotate(180)" fill="#7cbb5d"/>
          <rect id="Rectángulo_3527" data-name="Rectángulo 3527" width="50.803" height="4.73" transform="translate(4.805 4.73)" fill="#7cbb5d"/>
          <rect id="Rectángulo_3528" data-name="Rectángulo 3528" width="4.805" height="4.73" transform="translate(9.61 9.461) rotate(180)" fill="#fff"/>
          <rect id="Rectángulo_3529" data-name="Rectángulo 3529" width="50.803" height="4.73" transform="translate(4.805 33.113)" fill="#007025"/>
          <rect id="Rectángulo_3530" data-name="Rectángulo 3530" width="2.402" height="4.73" transform="translate(58.01 33.113) rotate(180)" fill="#007025"/>
        </g>
      </g>
    </g>
    <g id="Grupo_4315" data-name="Grupo 4315" transform="translate(6.718 -22)">
      <path id="Trazado_9100" data-name="Trazado 9100" d="M16.009,16.081a.915.915,0,0,0-.972.11L6.1,23.338H1.837A1.84,1.84,0,0,0,0,25.174V32.52a1.838,1.838,0,0,0,1.837,1.837H6.1L15.036,41.5a.92.92,0,0,0,.973.108.916.916,0,0,0,.52-.826V16.91A.921.921,0,0,0,16.009,16.081Z" transform="translate(782.323 26.533)" fill="#fff"/>
      <path id="Trazado_9101" data-name="Trazado 9101" d="M343.315,122.517a.919.919,0,1,0-1.291,1.308,7.325,7.325,0,0,1,0,10.373.917.917,0,1,0,1.291,1.3,9.16,9.16,0,0,0,0-12.984Z" transform="translate(460.185 -73.631)" fill="#fff"/>
      <path id="Trazado_9102" data-name="Trazado 9102" d="M388.433,77.391a.919.919,0,0,0-1.295,1.3,10.958,10.958,0,0,1,0,15.554.919.919,0,0,0,1.295,1.3,12.8,12.8,0,0,0,0-18.161Z" transform="translate(417.658 -31.093)" fill="#fff"/>
    </g>
  </g>
</svg>
