<svg xmlns="http://www.w3.org/2000/svg" width="182.042" height="42.574" viewBox="0 0 182.042 42.574">
  <g id="Grupo_3825" data-name="Grupo 3825" transform="translate(-701.432 -623.87)">
    <g id="Grupo_3815" data-name="Grupo 3815">
      <g id="Grupo_3814" data-name="Grupo 3814">
        <g id="Grupo_3813" data-name="Grupo 3813">
          <rect id="Rectángulo_3489" data-name="Rectángulo 3489" width="3.873" height="4.73" transform="translate(705.305 628.601)" fill="#1e5701"/>
          <rect id="Rectángulo_3490" data-name="Rectángulo 3490" width="166.549" height="4.73" transform="translate(709.179 623.87)" fill="#1e5701"/>
          <rect id="Rectángulo_3491" data-name="Rectángulo 3491" width="3.873" height="4.73" transform="translate(709.179 661.713) rotate(180)" fill="#1e5701"/>
          <rect id="Rectángulo_3492" data-name="Rectángulo 3492" width="166.549" height="4.73" transform="translate(709.179 661.713)" fill="#1e5701"/>
          <rect id="Rectángulo_3493" data-name="Rectángulo 3493" width="3.873" height="23.652" transform="translate(701.432 633.331)" fill="#1e5701"/>
          <rect id="Rectángulo_3494" data-name="Rectángulo 3494" width="3.873" height="4.73" transform="translate(875.728 656.983)" fill="#1e5701"/>
          <rect id="Rectángulo_3495" data-name="Rectángulo 3495" width="3.873" height="4.73" transform="translate(875.728 628.601)" fill="#1e5701"/>
          <rect id="Rectángulo_3496" data-name="Rectángulo 3496" width="3.873" height="23.652" transform="translate(879.601 633.331)" fill="#1e5701"/>
        </g>
        <rect id="Rectángulo_3497" data-name="Rectángulo 3497" width="3.873" height="23.652" transform="translate(709.179 633.331)" fill="#007025"/>
        <path id="Trazado_10827" data-name="Trazado 10827" d="M713.052,633.331v0Z" fill="#007025"/>
        <rect id="Rectángulo_3498" data-name="Rectángulo 3498" width="3.873" height="23.652" transform="translate(871.855 633.331)" fill="#007025"/>
        <path id="Trazado_10828" data-name="Trazado 10828" d="M875.728,633.331v0Z" fill="#007025"/>
        <rect id="Rectángulo_3499" data-name="Rectángulo 3499" width="3.873" height="23.652" transform="translate(713.052 633.331)" fill="#007025"/>
        <rect id="Rectángulo_3500" data-name="Rectángulo 3500" width="3.873" height="28.382" transform="translate(716.925 628.601)" fill="#007025"/>
        <rect id="Rectángulo_3501" data-name="Rectángulo 3501" width="3.873" height="28.382" transform="translate(720.798 628.601)" fill="#007025"/>
        <rect id="Rectángulo_3502" data-name="Rectángulo 3502" width="3.873" height="28.382" transform="translate(724.671 628.601)" fill="#007025"/>
        <rect id="Rectángulo_3503" data-name="Rectángulo 3503" width="3.873" height="28.382" transform="translate(728.545 628.601)" fill="#007025"/>
        <rect id="Rectángulo_3504" data-name="Rectángulo 3504" width="3.873" height="28.382" transform="translate(732.418 628.601)" fill="#007025"/>
        <rect id="Rectángulo_3505" data-name="Rectángulo 3505" width="3.873" height="28.382" transform="translate(736.291 628.601)" fill="#007025"/>
        <rect id="Rectángulo_3506" data-name="Rectángulo 3506" width="3.873" height="28.382" transform="translate(740.164 628.601)" fill="#007025"/>
        <rect id="Rectángulo_3507" data-name="Rectángulo 3507" width="3.873" height="28.382" transform="translate(744.038 628.601)" fill="#007025"/>
        <rect id="Rectángulo_3508" data-name="Rectángulo 3508" width="3.873" height="28.382" transform="translate(747.911 628.601)" fill="#007025"/>
        <rect id="Rectángulo_3509" data-name="Rectángulo 3509" width="3.873" height="28.382" transform="translate(751.784 628.601)" fill="#007025"/>
        <rect id="Rectángulo_3510" data-name="Rectángulo 3510" width="3.873" height="28.382" transform="translate(755.657 628.601)" fill="#007025"/>
        <rect id="Rectángulo_3511" data-name="Rectángulo 3511" width="3.873" height="28.382" transform="translate(759.531 628.601)" fill="#007025"/>
        <rect id="Rectángulo_3512" data-name="Rectángulo 3512" width="3.873" height="28.382" transform="translate(763.404 628.601)" fill="#007025"/>
        <rect id="Rectángulo_3513" data-name="Rectángulo 3513" width="3.873" height="28.382" transform="translate(767.277 628.601)" fill="#007025"/>
        <rect id="Rectángulo_3514" data-name="Rectángulo 3514" width="3.873" height="28.382" transform="translate(771.15 628.601)" fill="#007025"/>
        <rect id="Rectángulo_3515" data-name="Rectángulo 3515" width="3.873" height="28.382" transform="translate(775.024 628.601)" fill="#007025"/>
        <rect id="Rectángulo_3516" data-name="Rectángulo 3516" width="3.873" height="28.382" transform="translate(778.897 628.601)" fill="#007025"/>
        <rect id="Rectángulo_3517" data-name="Rectángulo 3517" width="3.873" height="28.382" transform="translate(782.77 628.601)" fill="#007025"/>
        <rect id="Rectángulo_3518" data-name="Rectángulo 3518" width="81.338" height="28.382" transform="translate(786.643 628.601)" fill="#007025"/>
        <rect id="Rectángulo_3519" data-name="Rectángulo 3519" width="3.873" height="23.652" transform="translate(867.981 633.331)" fill="#007025"/>
        <rect id="Rectángulo_3520" data-name="Rectángulo 3520" width="3.873" height="14.191" transform="translate(705.305 638.061)" fill="#007025"/>
        <rect id="Rectángulo_3521" data-name="Rectángulo 3521" width="3.873" height="14.191" transform="translate(875.728 638.061)" fill="#007025"/>
      </g>
      <rect id="Rectángulo_3522" data-name="Rectángulo 3522" width="3.873" height="4.73" transform="translate(709.179 656.983) rotate(180)" fill="#007025"/>
      <rect id="Rectángulo_3523" data-name="Rectángulo 3523" width="3.873" height="4.73" transform="translate(709.179 638.061) rotate(180)" fill="#fff"/>
      <rect id="Rectángulo_3524" data-name="Rectángulo 3524" width="3.873" height="4.73" transform="translate(879.601 638.061) rotate(180)" fill="#7cbb5d"/>
      <rect id="Rectángulo_3525" data-name="Rectángulo 3525" width="3.873" height="4.73" transform="translate(875.728 656.983) rotate(180)" fill="#7cbb5d"/>
      <rect id="Rectángulo_3526" data-name="Rectángulo 3526" width="3.873" height="4.73" transform="translate(879.601 652.253) rotate(180)" fill="#7cbb5d"/>
      <rect id="Rectángulo_3527" data-name="Rectángulo 3527" width="166.549" height="4.73" transform="translate(709.179 628.601)" fill="#7cbb5d"/>
      <rect id="Rectángulo_3528" data-name="Rectángulo 3528" width="7.747" height="4.73" transform="translate(716.925 633.331) rotate(180)" fill="#fff"/>
      <rect id="Rectángulo_3529" data-name="Rectángulo 3529" width="166.549" height="4.73" transform="translate(709.179 656.983)" fill="#007025"/>
      <rect id="Rectángulo_3530" data-name="Rectángulo 3530" width="3.873" height="4.73" transform="translate(879.601 656.983) rotate(180)" fill="#007025"/>
    </g>
  </g>
</svg>
