<svg xmlns="http://www.w3.org/2000/svg" width="182.042" height="42.574" viewBox="0 0 182.042 42.574">
  <g id="Grupo_3839" data-name="Grupo 3839" transform="translate(-903.953 -676.226)">
    <g id="Grupo_3841" data-name="Grupo 3841">
      <g id="Grupo_3840" data-name="Grupo 3840">
        <g id="Grupo_3839-2" data-name="Grupo 3839">
          <rect id="Rectángulo_4707" data-name="Rectángulo 4707" width="3.873" height="4.73" transform="translate(907.826 680.957)" fill="#15132a"/>
          <rect id="Rectángulo_4708" data-name="Rectángulo 4708" width="166.549" height="4.73" transform="translate(911.7 676.226)" fill="#15132a"/>
          <rect id="Rectángulo_4709" data-name="Rectángulo 4709" width="3.873" height="4.73" transform="translate(911.7 714.07) rotate(180)" fill="#15132a"/>
          <rect id="Rectángulo_4710" data-name="Rectángulo 4710" width="166.549" height="4.73" transform="translate(911.7 714.07)" fill="#15132a"/>
          <rect id="Rectángulo_4711" data-name="Rectángulo 4711" width="3.873" height="23.652" transform="translate(903.953 685.687)" fill="#15132a"/>
          <rect id="Rectángulo_4712" data-name="Rectángulo 4712" width="3.873" height="4.73" transform="translate(1078.249 709.339)" fill="#15132a"/>
          <rect id="Rectángulo_4713" data-name="Rectángulo 4713" width="3.873" height="4.73" transform="translate(1078.249 680.957)" fill="#15132a"/>
          <rect id="Rectángulo_4714" data-name="Rectángulo 4714" width="3.873" height="23.652" transform="translate(1082.122 685.687)" fill="#15132a"/>
        </g>
        <rect id="Rectángulo_4715" data-name="Rectángulo 4715" width="3.873" height="23.652" transform="translate(911.7 685.687)" fill="#dd1f26"/>
        <path id="Trazado_10922" data-name="Trazado 10922" d="M915.573,685.687v0Z" fill="#dd1f26"/>
        <rect id="Rectángulo_4716" data-name="Rectángulo 4716" width="3.873" height="23.652" transform="translate(1074.375 685.687)" fill="#dd1f26"/>
        <path id="Trazado_10923" data-name="Trazado 10923" d="M1078.249,685.687v0Z" fill="#dd1f26"/>
        <rect id="Rectángulo_4717" data-name="Rectángulo 4717" width="3.873" height="23.652" transform="translate(915.573 685.687)" fill="#dd1f26"/>
        <rect id="Rectángulo_4718" data-name="Rectángulo 4718" width="3.873" height="28.382" transform="translate(919.446 680.957)" fill="#dd1f26"/>
        <rect id="Rectángulo_4719" data-name="Rectángulo 4719" width="3.873" height="28.382" transform="translate(923.319 680.957)" fill="#dd1f26"/>
        <rect id="Rectángulo_4720" data-name="Rectángulo 4720" width="3.873" height="28.382" transform="translate(927.192 680.957)" fill="#dd1f26"/>
        <rect id="Rectángulo_4721" data-name="Rectángulo 4721" width="3.873" height="28.382" transform="translate(931.066 680.957)" fill="#dd1f26"/>
        <rect id="Rectángulo_4722" data-name="Rectángulo 4722" width="3.873" height="28.382" transform="translate(934.939 680.957)" fill="#dd1f26"/>
        <rect id="Rectángulo_4723" data-name="Rectángulo 4723" width="3.873" height="28.382" transform="translate(938.812 680.957)" fill="#dd1f26"/>
        <rect id="Rectángulo_4724" data-name="Rectángulo 4724" width="3.873" height="28.382" transform="translate(942.685 680.957)" fill="#dd1f26"/>
        <rect id="Rectángulo_4725" data-name="Rectángulo 4725" width="3.873" height="28.382" transform="translate(946.559 680.957)" fill="#dd1f26"/>
        <rect id="Rectángulo_4726" data-name="Rectángulo 4726" width="3.873" height="28.382" transform="translate(950.432 680.957)" fill="#dd1f26"/>
        <rect id="Rectángulo_4727" data-name="Rectángulo 4727" width="3.873" height="28.382" transform="translate(954.305 680.957)" fill="#dd1f26"/>
        <rect id="Rectángulo_4728" data-name="Rectángulo 4728" width="3.873" height="28.382" transform="translate(958.178 680.957)" fill="#dd1f26"/>
        <rect id="Rectángulo_4729" data-name="Rectángulo 4729" width="3.873" height="28.382" transform="translate(962.052 680.957)" fill="#dd1f26"/>
        <rect id="Rectángulo_4730" data-name="Rectángulo 4730" width="3.873" height="28.382" transform="translate(965.925 680.957)" fill="#dd1f26"/>
        <rect id="Rectángulo_4731" data-name="Rectángulo 4731" width="3.873" height="28.382" transform="translate(969.798 680.957)" fill="#dd1f26"/>
        <rect id="Rectángulo_4732" data-name="Rectángulo 4732" width="3.873" height="28.382" transform="translate(973.671 680.957)" fill="#dd1f26"/>
        <rect id="Rectángulo_4733" data-name="Rectángulo 4733" width="3.873" height="28.382" transform="translate(977.544 680.957)" fill="#dd1f26"/>
        <rect id="Rectángulo_4734" data-name="Rectángulo 4734" width="3.873" height="28.382" transform="translate(981.418 680.957)" fill="#dd1f26"/>
        <rect id="Rectángulo_4735" data-name="Rectángulo 4735" width="3.873" height="28.382" transform="translate(985.291 680.957)" fill="#dd1f26"/>
        <rect id="Rectángulo_4736" data-name="Rectángulo 4736" width="81.338" height="28.382" transform="translate(989.164 680.957)" fill="#dd1f26"/>
        <rect id="Rectángulo_4737" data-name="Rectángulo 4737" width="3.873" height="23.652" transform="translate(1070.502 685.687)" fill="#dd1f26"/>
        <rect id="Rectángulo_4738" data-name="Rectángulo 4738" width="3.873" height="14.191" transform="translate(907.826 690.418)" fill="#dd1f26"/>
        <rect id="Rectángulo_4739" data-name="Rectángulo 4739" width="3.873" height="14.191" transform="translate(1078.249 690.418)" fill="#dd1f26"/>
      </g>
      <rect id="Rectángulo_4740" data-name="Rectángulo 4740" width="3.873" height="4.73" transform="translate(911.7 709.339) rotate(180)" fill="#dd1f26"/>
      <rect id="Rectángulo_4741" data-name="Rectángulo 4741" width="3.873" height="4.73" transform="translate(911.7 690.418) rotate(180)" fill="#fff"/>
      <rect id="Rectángulo_4742" data-name="Rectángulo 4742" width="3.873" height="4.73" transform="translate(1082.122 690.418) rotate(180)" fill="#dd1f26"/>
      <rect id="Rectángulo_4743" data-name="Rectángulo 4743" width="3.873" height="4.73" transform="translate(1078.249 709.339) rotate(180)" fill="#dd1f26"/>
      <rect id="Rectángulo_4744" data-name="Rectángulo 4744" width="3.873" height="4.73" transform="translate(1082.122 704.609) rotate(180)" fill="#dd1f26"/>
      <rect id="Rectángulo_4745" data-name="Rectángulo 4745" width="166.549" height="4.73" transform="translate(911.7 680.957)" fill="#dd1f26"/>
      <rect id="Rectángulo_4746" data-name="Rectángulo 4746" width="7.747" height="4.73" transform="translate(919.446 685.687) rotate(180)" fill="#fff"/>
      <rect id="Rectángulo_4747" data-name="Rectángulo 4747" width="166.549" height="4.73" transform="translate(911.7 709.339)" fill="#dd1f26"/>
      <rect id="Rectángulo_4748" data-name="Rectángulo 4748" width="3.873" height="4.73" transform="translate(1082.122 709.339) rotate(180)" fill="#dd1f26"/>
    </g>
  </g>
</svg>
