<svg xmlns="http://www.w3.org/2000/svg" width="51.573" height="188.144" viewBox="0 0 51.573 188.144">
  <g id="Grupo_4143" data-name="Grupo 4143" transform="translate(0)">
    <path id="Trazado_13070" data-name="Trazado 13070" d="M63.363,221.335s-2.909,2.632-5.875,13.057-7.906,16.865-7.712,26.188c.056,2.733,8.9,9.916,10.128,10.128s9.534-25.383,9.534-25.383Z" transform="translate(-49.77 -179.65)" fill="#2c359c"/>
    <path id="Trazado_13071" data-name="Trazado 13071" d="M103.074,510.09v15.255l-.438,4.5-3.961,40.762h-6.56V525.854L89.33,513.268Z" transform="translate(-79.007 -393.056)" fill="#e59a89"/>
    <path id="Trazado_13072" data-name="Trazado 13072" d="M110.521,584.977l-.446,4.593-3.515,36.17H100V584.7C102.549,584.669,106.552,584.682,110.521,584.977Z" transform="translate(-86.893 -448.19)" fill="#e6e6e6"/>
    <path id="Trazado_13073" data-name="Trazado 13073" d="M110.521,584.977l-.446,4.593c-3.891-.167-7.57-.123-10.075-.047V584.7C102.549,584.669,106.552,584.682,110.521,584.977Z" transform="translate(-86.893 -448.19)" fill="#2c359c"/>
    <g id="Grupo_4137" data-name="Grupo 4137" transform="translate(12.301 179.498)">
      <path id="Trazado_13074" data-name="Trazado 13074" d="M96.91,749.469l.393,2.916,1.166-.158.853-2.488Z" transform="translate(-96.91 -749.469)" fill="#bb3f41"/>
      <path id="Trazado_13075" data-name="Trazado 13075" d="M112.857,749.595l.391,2.917,1.167-.157.853-2.489Z" transform="translate(-108.696 -749.562)" fill="#bb3f41"/>
      <path id="Trazado_13076" data-name="Trazado 13076" d="M141.54,751.428l.393,2.916,1.166-.157.853-2.49Z" transform="translate(-129.894 -750.917)" fill="#bb3f41"/>
      <path id="Trazado_13077" data-name="Trazado 13077" d="M158.453,750.29l.392,2.916,1.166-.157.852-2.489Z" transform="translate(-142.393 -750.076)" fill="#bb3f41"/>
      <path id="Trazado_13078" data-name="Trazado 13078" d="M172.163,750.725l.391,2.914,1.167-.157.853-2.489Z" transform="translate(-152.526 -750.397)" fill="#bb3f41"/>
    </g>
    <path id="Trazado_13079" data-name="Trazado 13079" d="M114.967,729.494c-.005,2.153-6.451,1.661-13.366,1.691-9.467.042-13.2.637-12.52-3.919.311-2.1.005-8.123,12.186-3.46.11.042.222.083.334.128A51.958,51.958,0,0,0,108.827,726C112.384,726.835,114.972,727.492,114.967,729.494Z" transform="translate(-78.766 -549.726)" fill="#db3a42"/>
    <path id="Trazado_13080" data-name="Trazado 13080" d="M91.239,705.393l-1.657,9.031h11.069s-1.366-5.417-.609-8.028C100.042,706.4,93.308,705.626,91.239,705.393Z" transform="translate(-79.193 -537.396)" fill="#db3a42"/>
    <path id="Trazado_13081" data-name="Trazado 13081" d="M143.828,732.431H136V728.7c.11.042.222.084.334.128a51.957,51.957,0,0,0,7.226,2.069Z" transform="translate(-113.499 -554.621)" fill="#bb3f41"/>
    <path id="Trazado_13082" data-name="Trazado 13082" d="M88.3,435.48c-.749.117-4.817.509-8.864.8-4.1.295-8.175.485-8.742.185-1.122-.595-2.1-24.638-2.1-24.638l-.107-2.45-.279-6.5s19.42-3.027,19.576-.984c.018.235.06.853.115,1.769.128,2.114.337,5.8.527,9.937C88.874,423.252,89.232,435.334,88.3,435.48Z" transform="translate(-63.398 -312.57)" fill="#3545aa"/>
    <path id="Trazado_13083" data-name="Trazado 13083" d="M105.433,516.99l-2.889,15.276-2.187,7.541-11.312,39.03H82.18l8.029-40.619,1.84-9.3V517.731Z" transform="translate(-73.723 -398.156)" fill="#e9b8a9"/>
    <path id="Trazado_13084" data-name="Trazado 13084" d="M131.533,411.758c-.016.905-.248,7.528-.634,14.647-.488,8.995-1.221,18.783-2.072,18.835-1.521.094-16.557-.008-17.619-.707-.138-.091-.235-.571-.3-1.341-.438-5.175.571-23.383.571-23.383l.1-1.832.376-7.113s3.434-.2,7.424-.287C124.928,410.459,131.556,410.566,131.533,411.758Z" transform="translate(-94.873 -319.483)" fill="#3545aa"/>
    <g id="Grupo_4138" data-name="Grupo 4138" transform="translate(23.129 28.24)">
      <path id="Trazado_13085" data-name="Trazado 13085" d="M145.654,183.676c-.243,2.383-2.066,4.167-4.052,3.965s-3.412-2.318-3.169-4.7l.933-9.146c.243-2.383,2.067-4.167,4.053-3.965s3.411,2.318,3.169,4.7Z" transform="translate(-138.406 -169.813)" fill="#e9b8a9"/>
    </g>
    <path id="Trazado_13086" data-name="Trazado 13086" d="M129.071,89.43c-.35,12.666-3.379,13.324-14.036,12.429q-1.01-.086-2.114-.185c-9.386-.848-13.564-6.751-13.666-17.859-.112-12.152,6.02-16.575,14.532-16.565,5.5.008,15.117.822,16.7,10.138C131,80.415,130.671,84.342,129.071,89.43Z" transform="translate(-86.342 -65.773)" fill="#e9b8a9"/>
    <path id="Trazado_13087" data-name="Trazado 13087" d="M100.058,404.845c-.016.905-.248,7.528-.634,14.647a46.886,46.886,0,0,0-11-5.892,63.467,63.467,0,0,0-8.327-2.536,68.294,68.294,0,0,0-11.612-1.688l-.279-6.5s19.42-3.027,19.576-.984c.018.235.06.853.115,1.769C93.454,403.546,100.082,403.653,100.058,404.845Z" transform="translate(-63.398 -312.57)" fill="#2c359c"/>
    <path id="Trazado_13088" data-name="Trazado 13088" d="M76.493,210.04s25.171-10.57,25.171,8.221c0,10.981-1.555,17.4-1.745,22.974-.229,6.73-.948,13.384-.094,23.027.248,2.806-33.427,1.946-32.934-2.178C70.619,230.834,70.444,219.194,76.493,210.04Z" transform="translate(-62.419 -169.114)" fill="#3f4faa"/>
    <path id="Trazado_13089" data-name="Trazado 13089" d="M210.886,441.259s.443,5.982,1.662,7.755,2.991,2.659,4.1,4.432,3.877-3.1,3.766-4.653-5.317-8.715-5.317-8.715Z" transform="translate(-168.844 -341.313)" fill="#e9b8a9"/>
    <path id="Trazado_13090" data-name="Trazado 13090" d="M175.468,213.124a12.635,12.635,0,0,1,7.012,9.351c1.356,7.119,0,23.561,0,23.561s5.086,25.256,5.255,26.273-6.165,3.051-6.134,2.034-8.445-24.07-8.275-25.426S171.331,218.424,175.468,213.124Z" transform="translate(-140.777 -173.582)" fill="#3545aa"/>
    <g id="Grupo_4139" data-name="Grupo 4139" transform="translate(10.133 101.609)">
      <path id="Trazado_13091" data-name="Trazado 13091" d="M88.6,450.978l.45.009c.293.012.725.022,1.272.064s1.213.09,1.975.2c.381.054.787.119,1.218.211a6.683,6.683,0,0,1,.666.176,3.035,3.035,0,0,1,.728.321,1.176,1.176,0,0,1,.208.17.841.841,0,0,1,.2.315,1.06,1.06,0,0,1,.036.248v.093l0,.188q-.011.366-.023.746c-.021.5-.043,1.024-.065,1.56-.047,1.07-.084,2.2-.146,3.363s-.1,2.369-.157,3.591-.106,2.463-.135,3.7c-.045,1.238-.076,2.475-.064,3.685.009.6.02,1.2.048,1.783A9.464,9.464,0,0,0,95,473.035a1.844,1.844,0,0,0,.092.286c.012.022.026.047.011.03a.341.341,0,0,0-.208-.085q.426.059.843.127c.551.078,1.078.128,1.6.192l3,.312c1.86.191,3.412.369,4.5.5s1.707.223,1.707.223l-.45.026c-.293.012-.723.039-1.27.055s-1.211.044-1.973.051-1.622.027-2.559.017-1.953-.013-3.033-.05c-.546-.027-1.118-.043-1.686-.082q-.421-.034-.85-.078a1,1,0,0,1-.571-.3,1.544,1.544,0,0,1-.233-.326,2.989,2.989,0,0,1-.209-.533,10.612,10.612,0,0,1-.316-1.887c-.062-.619-.092-1.239-.1-1.862-.029-1.246-.018-2.5.013-3.758.048-1.254.115-2.5.19-3.734s.189-2.436.29-3.6.23-2.293.352-3.36c.062-.533.117-1.052.183-1.553l.1-.736.022-.174.01-.087a.1.1,0,0,0,.011.071c.032.063.012,0-.047-.042a2.256,2.256,0,0,0-.5-.278c-.19-.083-.389-.153-.583-.224-.391-.136-.774-.249-1.137-.348-.727-.194-1.371-.351-1.9-.472Z" transform="translate(-88.604 -450.978)" fill="#2c359c"/>
    </g>
    <g id="Grupo_4140" data-name="Grupo 4140" transform="translate(8.648 184.717)">
      <path id="Trazado_13092" data-name="Trazado 13092" d="M82.91,769.469l.393,2.916,1.166-.158.853-2.488Z" transform="translate(-82.91 -769.469)" fill="#bb3f41"/>
      <path id="Trazado_13093" data-name="Trazado 13093" d="M98.857,769.595l.391,2.917,1.167-.157.853-2.489Z" transform="translate(-94.696 -769.562)" fill="#bb3f41"/>
      <path id="Trazado_13094" data-name="Trazado 13094" d="M127.54,771.428l.393,2.916,1.166-.157.853-2.49Z" transform="translate(-115.894 -770.917)" fill="#bb3f41"/>
      <path id="Trazado_13095" data-name="Trazado 13095" d="M144.453,770.29l.392,2.916,1.166-.157.852-2.489Z" transform="translate(-128.393 -770.076)" fill="#bb3f41"/>
      <path id="Trazado_13096" data-name="Trazado 13096" d="M158.163,770.725l.391,2.914,1.167-.157.853-2.489Z" transform="translate(-138.526 -770.397)" fill="#bb3f41"/>
    </g>
    <path id="Trazado_13097" data-name="Trazado 13097" d="M100.967,749.494c-.005,2.153-6.451,1.661-13.366,1.691-9.467.042-13.2.637-12.52-3.919.311-2.1.005-8.123,12.186-3.46.11.042.222.083.334.128A51.965,51.965,0,0,0,94.827,746C98.384,746.835,100.972,747.492,100.967,749.494Z" transform="translate(-68.42 -564.507)" fill="#ed434b"/>
    <path id="Trazado_13098" data-name="Trazado 13098" d="M100.357,599.878l-11.312,39.03H82.18l8.029-40.619A26.261,26.261,0,0,1,100.357,599.878Z" transform="translate(-73.723 -458.227)" fill="#f2f2f2"/>
    <path id="Trazado_13099" data-name="Trazado 13099" d="M77.239,725.393l-1.657,9.031H86.651s-1.366-5.417-.609-8.028C86.042,726.4,79.308,725.626,77.239,725.393Z" transform="translate(-68.847 -552.177)" fill="#ed434b"/>
    <path id="Trazado_13100" data-name="Trazado 13100" d="M129.828,752.431H122V748.7c.11.042.222.083.334.128a51.964,51.964,0,0,0,7.226,2.069Z" transform="translate(-103.152 -569.402)" fill="#bb3f41"/>
    <g id="Grupo_4141" data-name="Grupo 4141" transform="translate(13.41 55.445)">
      <path id="Trazado_13101" data-name="Trazado 13101" d="M101.63,286.409a7.8,7.8,0,0,0,1.5.074,5.2,5.2,0,0,0,2.992-1.067,6.044,6.044,0,0,0,2.149-3.485l-.063-.005a4.042,4.042,0,0,1-3.364,1.181,3.99,3.99,0,0,1-3.667-4.57,4.723,4.723,0,0,1,5.131-4.446c2.807.257,4.328,2.695,4.008,6.2a8.7,8.7,0,0,1-2.953,6.22,6.887,6.887,0,0,1-4.157,1.471,8.719,8.719,0,0,1-1.719-.051Zm1.4-7.83a2.65,2.65,0,0,0,2.371,3.154,3.083,3.083,0,0,0,2.833-1.188,1.232,1.232,0,0,0,.231-.66c.215-2.342-.486-4.216-2.428-4.393C104.452,275.346,103.206,276.637,103.028,278.578Z" transform="translate(-101.159 -274.07)" fill="#fff"/>
    </g>
    <g id="Grupo_4142" data-name="Grupo 4142" transform="translate(12.549 48.355)">
      <path id="Trazado_13102" data-name="Trazado 13102" d="M98.7,251.667l-.843-4.135.583-.119,1.752,1.822a11.926,11.926,0,0,1,1.016,1.192l.011-.009c-.162-.542-.276-1.043-.408-1.687l-.353-1.73.5-.1.843,4.135-.54.11-1.741-1.831a13.42,13.42,0,0,1-1.054-1.223l-.017.01c.137.515.251,1.01.391,1.7l.36,1.767Z" transform="translate(-97.861 -246.899)" fill="#fff"/>
      <path id="Trazado_13103" data-name="Trazado 13103" d="M116.831,253.679l-.054-.381h-.019a1.129,1.129,0,0,1-.914.475.864.864,0,0,1-.95-.845c-.019-.732.621-1.15,1.792-1.175l0-.063a.625.625,0,0,0-.707-.683,1.512,1.512,0,0,0-.783.246l-.135-.36a1.88,1.88,0,0,1,.988-.3c.926-.025,1.169.6,1.185,1.208l.03,1.133a4.273,4.273,0,0,0,.07.725Zm-.123-1.544c-.6,0-1.281.128-1.265.716a.488.488,0,0,0,.534.512.753.753,0,0,0,.719-.527.567.567,0,0,0,.027-.176Z" transform="translate(-110.449 -249.634)" fill="#fff"/>
      <path id="Trazado_13104" data-name="Trazado 13104" d="M127.052,251.473c.064-.307.11-.559.142-.808l.472.1-.075.484.019,0a1.044,1.044,0,0,1,1.045-.352.9.9,0,0,1,.717.769l.012,0a1.25,1.25,0,0,1,.411-.318,1.035,1.035,0,0,1,.7-.072c.392.081.921.46.707,1.49l-.363,1.748-.527-.11.349-1.68c.118-.57-.019-.957-.454-1.047a.713.713,0,0,0-.74.358.9.9,0,0,0-.1.261l-.381,1.833-.527-.11.369-1.778c.1-.472-.039-.859-.45-.944a.753.753,0,0,0-.78.4.765.765,0,0,0-.1.255l-.372,1.791-.527-.11Z" transform="translate(-119.102 -249.682)" fill="#fff"/>
      <path id="Trazado_13105" data-name="Trazado 13105" d="M146.638,258.86a.971.971,0,0,0,.454,1.408,1.99,1.99,0,0,0,.82.239l-.094.395a2.453,2.453,0,0,1-.985-.287,1.408,1.408,0,0,1-.642-2.036,1.472,1.472,0,0,1,2.006-.818,1.285,1.285,0,0,1,.474,1.839,2.042,2.042,0,0,1-.133.221Zm1.62.376a.785.785,0,0,0-.278-1.144.913.913,0,0,0-1.158.418Z" transform="translate(-133.43 -254.811)" fill="#fff"/>
    </g>
    <path id="Trazado_13106" data-name="Trazado 13106" d="M209.088,138.4c.25-1.158.182-2.156-.152-2.228s-.809.808-1.059,1.966-.182,2.156.152,2.228S208.838,139.56,209.088,138.4Z" transform="translate(-166.508 -116.708)" fill="#1a1a1a"/>
    <path id="Trazado_13107" data-name="Trazado 13107" d="M130.486,77.388l-4.6.626-1.127,7.22-2.583,5.712s-4.723,2.108-7.142,10.913q-1.01-.086-2.114-.185c-9.386-.848-13.564-6.751-13.666-17.859-.112-12.152,6.02-16.575,14.532-16.565C119.288,67.258,128.9,68.072,130.486,77.388Z" transform="translate(-86.342 -65.773)" fill="#534741"/>
    <path id="Trazado_13108" data-name="Trazado 13108" d="M178.344,148.422c-.281,1.9-1.109,3.339-3.1,3.032s-2.7-1.989-2.422-3.884,1.445-3.287,3.437-2.98S178.624,146.527,178.344,148.422Z" transform="translate(-140.667 -122.9)" fill="#e9b8a9"/>
    <path id="Trazado_13109" data-name="Trazado 13109" d="M207.726,130.876s2.072-.4,2.735,1.191" transform="translate(-166.508 -112.764)" fill="none" stroke="#534741" stroke-linecap="round" stroke-linejoin="round" stroke-width="2"/>
    <path id="Trazado_13110" data-name="Trazado 13110" d="M130.949,73.353s6.226-3.61.746-10.286a2.811,2.811,0,0,1-1.653,1.065c-1.131.261-9.672-4.349-16.231-1.739,0,0-12.734-3.044-13.212,6.023,0,0-2.152,4.154-.218,5.72S127.333,75.745,130.949,73.353Z" transform="translate(-86.579 -61.591)" fill="#443630"/>
    <path id="Trazado_13111" data-name="Trazado 13111" d="M180.662,149.775a1.5,1.5,0,0,0-1.092-.64c-1.262-.195-2,.687-2.178,1.888a1.948,1.948,0,0,0,1.315,2.416A7.539,7.539,0,0,1,180.662,149.775Z" transform="translate(-144.062 -126.271)" fill="#d69997"/>
    <path id="Trazado_13112" data-name="Trazado 13112" d="M201.323,178.584a2.955,2.955,0,0,1,2.34.5" transform="translate(-161.776 -148.012)" fill="none" stroke="#d38792" stroke-linecap="round" stroke-miterlimit="10" stroke-width="2"/>
    <path id="Trazado_13113" data-name="Trazado 13113" d="M110.764,598.289l-.772,3.9a20.654,20.654,0,0,1,9.7,1.905l1.224-4.221A26.261,26.261,0,0,0,110.764,598.289Z" transform="translate(-94.277 -458.227)" fill="#3545aa"/>
  </g>
</svg>
